<svg width="220" height="302" viewBox="0 0 220 302" fill="none" xmlns="http://www.w3.org/2000/svg">
<circle cx="38.4211" cy="90.4211" r="38.4211" fill="#F2310F"/>
<mask id="mask0_235_6" style="mask-type:alpha" maskUnits="userSpaceOnUse" x="6" y="60" width="63" height="63">
<circle cx="37.7469" cy="91.0949" r="31.0065" fill="#E35151"/>
</mask>
<g mask="url(#mask0_235_6)">
<path d="M79.1019 270.846C76.4977 269.075 75.1956 266.523 75.1956 263.19C75.1956 259.648 76.4977 256.992 79.1019 255.221H95.3519C95.9769 255.221 96.4977 255.013 96.9144 254.596C97.4352 254.075 97.6956 253.502 97.6956 252.877V48.8149C97.6956 48.1899 97.3831 47.6691 96.7581 47.2524C96.2373 46.7316 95.5602 46.4712 94.7269 46.4712L79.7269 48.1899C72.6435 48.8149 66.5498 51.1066 61.4456 55.0649C56.3415 58.9191 52.5394 63.4504 50.0394 68.6587C47.6435 73.7629 46.1331 79.3879 45.5081 85.5337L42.8519 108.034C41.3935 110.325 38.9456 111.471 35.5081 111.471C31.8623 111.471 29.3102 110.325 27.8519 108.034L29.7269 33.6587C29.7269 31.7837 30.7165 30.8462 32.6956 30.8462L129.571 32.4087L189.102 30.8462C191.498 32.617 192.696 35.2733 192.696 38.8149C192.696 42.1483 191.498 44.7004 189.102 46.4712L165.508 46.4712C164.883 46.4712 164.31 46.7316 163.789 47.2524C163.373 47.6691 163.164 48.1899 163.164 48.8149V127.877H191.446C217.591 127.982 238.529 134.544 254.258 147.565C269.987 160.586 277.852 177.565 277.852 198.502C277.852 219.232 270.196 236.523 254.883 250.377C239.571 264.232 220.3 271.159 197.071 271.159L130.196 269.596L79.1019 270.846ZM165.508 255.534H170.196C180.925 255.534 189.414 250.221 195.664 239.596C202.019 228.971 205.196 215.273 205.196 198.502C205.196 191.002 204.519 183.971 203.164 177.409C201.81 170.846 199.779 164.857 197.071 159.44C194.362 154.023 190.664 149.752 185.977 146.627C181.394 143.502 176.029 141.94 169.883 141.94H163.164V253.19C163.164 253.815 163.373 254.388 163.789 254.909C164.31 255.325 164.883 255.534 165.508 255.534Z" fill="#F2C40F"/>
</g>
<circle cx="177.791" cy="41.7914" r="41.7914" fill="#F2310F"/>
<mask id="mask1_235_6" style="mask-type:alpha" maskUnits="userSpaceOnUse" x="149" y="13" width="60" height="60">
<circle cx="179.139" cy="43.1394" r="29.6584" fill="#E35151"/>
</mask>
<g mask="url(#mask1_235_6)">
<path d="M79.1019 270.846C76.4977 269.075 75.1956 266.523 75.1956 263.189C75.1956 259.648 76.4977 256.992 79.1019 255.221H95.3519C95.9769 255.221 96.4977 255.012 96.9144 254.596C97.4352 254.075 97.6956 253.502 97.6956 252.877V48.8145C97.6956 48.1895 97.3831 47.6686 96.7581 47.252C96.2373 46.7311 95.5602 46.4707 94.7269 46.4707L79.7269 48.1895C72.6435 48.8145 66.5498 51.1061 61.4456 55.0645C56.3415 58.9186 52.5394 63.4499 50.0394 68.6582C47.6435 73.7624 46.1331 79.3874 45.5081 85.5332L42.8519 108.033C41.3935 110.325 38.9456 111.471 35.5081 111.471C31.8623 111.471 29.3102 110.325 27.8519 108.033L29.7269 33.6582C29.7269 31.7832 30.7165 30.8457 32.6956 30.8457L129.571 32.4082L189.102 30.8457C191.498 32.6165 192.696 35.2728 192.696 38.8145C192.696 42.1478 191.498 44.6999 189.102 46.4707L165.508 46.4707C164.883 46.4707 164.31 46.7311 163.789 47.252C163.373 47.6686 163.164 48.1895 163.164 48.8145V127.877H191.446C217.591 127.981 238.529 134.544 254.258 147.564C269.987 160.585 277.852 177.564 277.852 198.502C277.852 219.231 270.196 236.523 254.883 250.377C239.571 264.231 220.3 271.158 197.071 271.158L130.196 269.596L79.1019 270.846ZM165.508 255.533H170.196C180.925 255.533 189.414 250.221 195.664 239.596C202.019 228.971 205.196 215.273 205.196 198.502C205.196 191.002 204.519 183.971 203.164 177.408C201.81 170.846 199.779 164.856 197.071 159.439C194.362 154.023 190.664 149.752 185.977 146.627C181.394 143.502 176.029 141.939 169.883 141.939H163.164V253.189C163.164 253.814 163.373 254.387 163.789 254.908C164.31 255.325 164.883 255.533 165.508 255.533Z" fill="#F2C40F"/>
</g>
<circle cx="88.1395" cy="258.139" r="43.1395" fill="#F2310F"/>
<mask id="mask2_235_6" style="mask-type:alpha" maskUnits="userSpaceOnUse" x="58" y="228" width="62" height="62">
<circle cx="88.8137" cy="258.814" r="30.3325" fill="#E35151"/>
</mask>
<g mask="url(#mask2_235_6)">
<path d="M79.1018 270.846C76.4976 269.075 75.1955 266.523 75.1955 263.189C75.1955 259.648 76.4976 256.992 79.1018 255.221H95.3518C95.9768 255.221 96.4976 255.012 96.9143 254.596C97.4351 254.075 97.6955 253.502 97.6955 252.877V48.8145C97.6955 48.1895 97.383 47.6686 96.758 47.252C96.2372 46.7311 95.5601 46.4707 94.7268 46.4707L79.7268 48.1895C72.6434 48.8145 66.5497 51.1061 61.4455 55.0645C56.3414 58.9186 52.5393 63.4499 50.0393 68.6582C47.6434 73.7624 46.133 79.3874 45.508 85.5332L42.8518 108.033C41.3934 110.325 38.9455 111.471 35.508 111.471C31.8622 111.471 29.3101 110.325 27.8518 108.033L29.7268 33.6582C29.7268 31.7832 30.7164 30.8457 32.6955 30.8457L129.571 32.4082L189.102 30.8457C191.498 32.6165 192.696 35.2728 192.696 38.8145C192.696 42.1478 191.498 44.6999 189.102 46.4707L165.508 46.4707C164.883 46.4707 164.31 46.7311 163.789 47.252C163.373 47.6686 163.164 48.1895 163.164 48.8145V127.877H191.446C217.591 127.981 238.529 134.544 254.258 147.564C269.987 160.585 277.852 177.564 277.852 198.502C277.852 219.231 270.196 236.523 254.883 250.377C239.571 264.231 220.3 271.158 197.071 271.158L130.196 269.596L79.1018 270.846ZM165.508 255.533H170.196C180.925 255.533 189.414 250.221 195.664 239.596C202.018 228.971 205.196 215.273 205.196 198.502C205.196 191.002 204.518 183.971 203.164 177.408C201.81 170.846 199.779 164.856 197.071 159.439C194.362 154.023 190.664 149.752 185.977 146.627C181.393 143.502 176.029 141.939 169.883 141.939H163.164V253.189C163.164 253.814 163.373 254.387 163.789 254.908C164.31 255.325 164.883 255.533 165.508 255.533Z" fill="#F2C40F"/>
</g>
</svg>
