<svg width="122" height="122" viewBox="0 0 122 122" fill="none" xmlns="http://www.w3.org/2000/svg">
<circle cx="61" cy="61" r="61" fill="#F2310F"/>
<mask id="mask0_235_3" style="mask-type:alpha" maskUnits="userSpaceOnUse" x="12" y="12" width="98" height="98">
<circle cx="61" cy="61" r="49" fill="#E35151"/>
</mask>
<g mask="url(#mask0_235_3)">
<path d="M-48.8272 162.112L-75.7022 163.362C-78.3063 161.695 -79.6084 159.143 -79.6084 155.706C-79.6084 152.372 -78.3063 149.716 -75.7022 147.737H-61.9522C-58.723 147.737 -56.6918 146.747 -55.8584 144.768L18.0478 -69.2944C20.027 -75.4403 25.4436 -78.5132 34.2978 -78.5132C43.5686 -78.5132 49.0374 -75.4403 50.7041 -69.2944L125.548 145.706C125.964 147.06 126.798 147.737 128.048 147.737H143.517C146.017 149.403 147.267 152.06 147.267 155.706C147.267 159.456 146.017 162.008 143.517 163.362L92.2666 162.112L37.8916 163.362C35.2874 161.903 33.9853 159.351 33.9853 155.706C33.9853 152.164 35.2874 149.508 37.8916 147.737H57.4228C58.0478 147.737 58.5686 147.528 58.9853 147.112C59.402 146.695 59.6103 146.226 59.6103 145.706C59.6103 144.351 59.1936 142.581 58.3603 140.393L39.7666 82.4243L-13.9834 82.4243L-34.4522 141.643C-35.2855 143.31 -35.7022 144.456 -35.7022 145.081C-35.7022 146.851 -34.7647 147.737 -32.8897 147.737H-14.2959C-11.6918 149.508 -10.3897 152.164 -10.3897 155.706C-10.3897 159.351 -11.6918 161.903 -14.2959 163.362L-48.8272 162.112ZM-8.20218 65.3931L33.9853 65.3931L13.8291 2.42431L-8.20218 65.3931Z" fill="#F2C40F"/>
</g>
</svg>
