<svg width="1920" height="3231" viewBox="0 0 1920 3231" fill="none" xmlns="http://www.w3.org/2000/svg">
<path d="M246.05 366H696.167L744.485 408.231V825.958V902.787L696.167 944H246.05L184 902.787V825.958V408.231L246.05 366Z" fill="#EDDEDE"/>
<circle cx="392.421" cy="630.686" r="21.2989" transform="rotate(14.3462 392.421 630.686)" fill="#F2310F"/>
<circle cx="454.282" cy="576.23" r="152.235" transform="rotate(14.3462 454.282 576.23)" fill="#C7AF51"/>
<circle cx="454.03" cy="575.805" r="129.539" transform="rotate(14.3462 454.03 575.805)" fill="#F2C40F"/>
<circle cx="425.124" cy="502.818" r="21.2989" transform="rotate(14.3462 425.124 502.818)" fill="#F2310F"/>
<circle cx="368.108" cy="553.831" r="21.2989" transform="rotate(14.3462 368.108 553.831)" fill="#F2310F"/>
<circle cx="482.402" cy="653.698" r="21.2989" transform="rotate(14.3462 482.402 653.698)" fill="#F2310F"/>
<circle cx="515.104" cy="525.832" r="21.2989" transform="rotate(14.3462 515.104 525.832)" fill="#F2310F"/>
<circle cx="454.03" cy="575.804" r="21.2989" transform="rotate(14.3462 454.03 575.804)" fill="#F2310F"/>
<path d="M455.239 578.121L578.207 484.667C578.207 484.667 607.414 521.893 611.629 561.177C615.844 600.461 599.002 642.074 599.002 642.074L455.239 578.121Z" fill="#EDDEDE"/>
<path d="M184.5 902V828L246 867H696.5L746.5 828V902L696.5 944H246L184.5 902Z" fill="#E2D5D5"/>
<path d="M517.467 574.371L634.157 481.678C634.157 481.678 661.267 517.804 664.833 556.198C668.4 594.592 652.125 635.48 652.125 635.48L517.467 574.371Z" fill="#F2C40F"/>
<path d="M1527.13 1076.04L1287.11 634.612L1418.03 503.912L1683.02 991.269L1614.49 1051.74L1527.13 1076.04Z" fill="#EDDEDE"/>
<path d="M1683.51 994.373L1483.38 995.583L1450.33 934.803L1653.49 939.16L1683.51 994.373Z" fill="#F2310F"/>
<path d="M1629.77 895.548L1429.65 896.758L1396.6 835.978L1599.75 840.335L1629.77 895.548Z" fill="#F2310F"/>
<path d="M1415.27 870.311L1525.08 702.998L1492.03 642.218L1385.24 815.099L1415.27 870.311Z" fill="#F2310F"/>
<circle cx="1391.87" cy="643.779" r="61.2627" transform="rotate(-28.5346 1391.87 643.779)" fill="#F2C40F"/>
<path d="M1508.69 602.715L1562.95 449.76L1736.99 576.177L1645.52 702.101L1508.69 602.715Z" fill="#EDDEDE"/>
<path d="M1195.12 426.738L1300.32 620.215L1404.73 515.95L1306.35 335L1195.12 426.738Z" fill="#F2C40F"/>
<rect x="941.13" y="858" width="330.04" height="330.04" transform="rotate(22.8442 941.13 858)" fill="#CEC0C0"/>
<rect x="903.4" y="877.54" width="330.04" height="330.04" transform="rotate(12.3981 903.4 877.54)" fill="#DFD8D8"/>
<rect x="875.315" y="898.057" width="330.04" height="330.04" transform="rotate(2.01524 875.315 898.057)" fill="#EDDEDE"/>
<mask id="mask0_1_49" style="mask-type:alpha" maskUnits="userSpaceOnUse" x="905" y="941" width="256" height="256">
<circle cx="1033.33" cy="1068.55" r="127.546" fill="#D9D9D9"/>
</mask>
<g mask="url(#mask0_1_49)">
<rect x="1071.26" y="1027.07" width="62.9964" height="164.589" fill="#F2310F"/>
<rect x="929.738" y="1027.07" width="62.9964" height="164.589" fill="#F2C40F"/>
<rect x="991.847" y="1073.21" width="35.0473" height="122.887" fill="#F2310F"/>
<rect x="1037.54" y="1073.21" width="35.0473" height="122.887" fill="#F2C40F"/>
</g>
<path d="M817.5 1367V2291L715.5 2366.75H78V1415.75L228.75 1367H817.5Z" fill="#EDDEDE"/>
<path d="M819 2285.75L717 2362.25V1421L819 1370.75V2285.75Z" fill="#E2D5D5"/>
<path d="M274.504 1525.55C274.504 1525.55 272.01 1521.81 390.495 1499.36C508.981 1476.91 345.595 1615.35 471.564 1615.35C597.533 1615.35 599.778 1603.12 678.603 1693.92" stroke="#F2C40F" stroke-width="36" stroke-linecap="round"/>
<path d="M576.439 1547C576.439 1547 571.103 1563.04 564.244 1575.26C557.384 1587.48 549 1547 549 1547" stroke="#F2C40F" stroke-width="22.5" stroke-linecap="round"/>
<path d="M209.366 2170.38C193.981 2179.84 261.536 2137.27 274.723 2160.01C287.91 2182.76 246.078 2203.08 259.62 2229.85C273.161 2256.62 311.868 2213.5 322.024 2233.58C332.18 2253.66 289.711 2281.03 293.812 2297.44C297.914 2313.86 370.885 2281.99 361.516 2286.73" stroke="#F2C40F" stroke-width="28.5"/>
<path d="M307.831 2116.05C292.954 2105.81 359.217 2150.37 343.748 2171.63C328.279 2192.89 292.776 2162.85 273.77 2186.06C254.765 2209.27 309.851 2227.24 295.597 2244.64C281.343 2262.05 239.137 2234.28 225.782 2244.67C212.428 2255.06 271.089 2308.91 262.965 2302.26" stroke="#F2C40F" stroke-width="28.5"/>
<path d="M535.831 2123.55C520.954 2113.31 587.217 2157.87 571.748 2179.13C556.279 2200.39 520.776 2170.35 501.77 2193.56C482.765 2216.77 537.851 2234.74 523.597 2252.14C509.343 2269.55 467.137 2241.78 453.782 2252.17C440.428 2262.56 499.089 2316.41 490.965 2309.76" stroke="#F2C40F" stroke-width="28.5"/>
<path d="M375.331 2078.55C360.454 2068.31 426.717 2112.87 411.248 2134.13C395.779 2155.39 360.276 2125.35 341.27 2148.56C322.265 2171.77 377.351 2189.74 363.097 2207.14C348.843 2224.55 306.637 2196.78 293.282 2207.17C279.928 2217.56 338.589 2271.41 330.465 2264.76" stroke="#F2C40F" stroke-width="28.5"/>
<path d="M410.178 2115.86C396.242 2127.35 457.294 2075.88 473.487 2096.59C489.679 2117.31 451.042 2143.19 468.14 2167.84C485.237 2192.5 517.641 2144.47 530.464 2162.95C543.287 2181.44 504.988 2214.39 511.31 2230.09C517.632 2245.78 585.522 2204.17 576.894 2210.16" stroke="#F2C40F" stroke-width="28.5"/>
<path d="M405.678 2180.36C391.742 2191.85 452.794 2140.38 468.987 2161.09C485.179 2181.81 446.542 2207.69 463.64 2232.34C480.737 2257 513.141 2208.97 525.964 2227.45C538.787 2245.94 500.488 2278.89 506.81 2294.59C513.132 2310.28 581.022 2268.67 572.394 2274.66" stroke="#F2C40F" stroke-width="28.5"/>
<path d="M276.678 2180.36C262.742 2191.85 323.794 2140.38 339.987 2161.09C356.179 2181.81 317.542 2207.69 334.64 2232.34C351.737 2257 384.141 2208.97 396.964 2227.45C409.787 2245.94 371.488 2278.89 377.81 2294.59C384.132 2310.28 452.022 2268.67 443.394 2274.66" stroke="#F2C40F" stroke-width="28.5"/>
<path d="M273.678 2115.86C259.742 2127.35 320.794 2075.88 336.987 2096.59C353.179 2117.31 314.542 2143.19 331.64 2167.84C348.737 2192.5 381.141 2144.47 393.964 2162.95C406.787 2181.44 368.488 2214.39 374.81 2230.09C381.132 2245.78 449.022 2204.17 440.394 2210.16" stroke="#F2C40F" stroke-width="28.5"/>
<path d="M456.331 2101.05C441.454 2090.81 507.717 2135.37 492.248 2156.63C476.779 2177.89 441.276 2147.85 422.27 2171.06C403.265 2194.27 458.351 2212.24 444.097 2229.64C429.843 2247.05 387.637 2219.28 374.282 2229.67C360.928 2240.06 419.589 2293.91 411.465 2287.26" stroke="#F2C40F" stroke-width="28.5"/>
<path d="M601 2326H191V2120.3C347.185 2020.98 436.872 2026.87 601 2120.3V2326Z" fill="#2C2929" fill-opacity="0.37"/>
<path d="M500.552 1870.89C500.306 1869.51 499.993 1867.74 499.732 1866.39C499.65 1865.97 499.825 1866.16 499.774 1865.86C499.673 1865.29 499.462 1864.78 499.351 1864.22C499.315 1864.03 499.586 1864.21 499.544 1864.02C499.315 1862.94 498.924 1861.97 498.565 1860.92C496.803 1855.73 493.977 1851.03 490.257 1846.95C489.037 1845.6 487.588 1843.88 486.011 1842.82C485.828 1842.7 485.747 1843.01 485.699 1843C484.951 1842.89 485.493 1842.56 485.198 1842.24C484.026 1840.98 482.429 1839.9 480.937 1839.21C480.301 1838.91 480.61 1839.78 480.166 1839.15C480.134 1839.11 480.45 1838.9 480.298 1838.78C479.953 1838.5 479.191 1838.18 478.898 1838.01C478.336 1837.68 478.237 1837.64 477.678 1837.38C476.914 1837.03 476.051 1836.5 475.172 1836.26C474.984 1836.21 475.101 1836.62 474.793 1836.57C474.486 1836.52 473.736 1836.24 473.501 1836.08C473.267 1835.92 473.463 1835.69 473.436 1835.62C473.213 1834.98 472.088 1835.43 471.971 1835.42C469.775 1835.15 468.017 1834.38 465.953 1834.14C464.401 1833.96 462.737 1834.01 461.25 1833.99C461.238 1833.99 461.225 1833.99 461.213 1833.99C459.433 1833.97 457.916 1833.87 456.193 1834.12C456.013 1834.15 456.278 1834.54 456.06 1834.58C453.738 1834.93 451.467 1835.4 449.141 1835.85C448.907 1835.89 449.083 1835.44 448.841 1835.47C447.372 1835.61 444.866 1835.85 444.77 1837.69C443.858 1838.04 442.777 1838.53 441.849 1838.68C441.25 1838.78 441.531 1838.15 441.006 1838.65C440.888 1838.77 441.245 1838.97 441.057 1839.11C440.267 1839.73 439.291 1840.22 438.59 1840.94C438.448 1841.08 438.675 1841.31 438.662 1841.39C438.547 1842.03 437.473 1841.88 437.299 1841.95C436.006 1842.42 435.361 1843.18 434.447 1843.99C434.236 1844.18 434.768 1844.27 434.577 1844.46C433.582 1845.46 432.544 1846.47 431.493 1847.4C431.259 1847.6 431.175 1847.15 431.049 1847.24C430.494 1847.63 430.919 1848.17 430.415 1848.57C430.309 1848.65 430.117 1848.4 430.076 1848.4C429.426 1848.37 429.81 1849.09 429.765 1849.18C429.205 1850.28 428.118 1850.48 427.551 1851.54C427.486 1851.67 427.982 1851.61 427.779 1851.95C426.433 1854.24 425.079 1856.69 423.853 1859.06C423.663 1859.42 423.501 1859.05 423.459 1859.06C422.794 1859.27 423.391 1859.78 423.373 1859.92C423.207 1860.98 422.33 1861.76 422.975 1862.69C421.78 1866.09 421.554 1869.68 421.263 1873.25C421.191 1874.14 421.115 1875.01 421.022 1875.91C421.017 1875.97 420.662 1875.89 420.654 1876.01C420.56 1877.4 421.085 1877.09 421.834 1877.91C422.021 1878.12 421.321 1878.9 421.274 1878.97C421.093 1879.22 420.551 1879.07 420.521 1879.15C420.292 1879.82 421.953 1879.47 422.09 1880.27C422.092 1880.3 421.766 1880.25 421.747 1880.32C421.689 1880.55 421.849 1880.74 421.784 1880.97C421.633 1881.49 420.865 1881.85 421.498 1882.48C421.581 1882.56 422.476 1882.21 422.605 1882.93C422.651 1883.22 423.007 1884.48 423.058 1884.84C423.105 1885.21 422.74 1885.06 422.735 1885.09C422.646 1886.16 422.375 1885.85 421.969 1886.53C421.574 1887.21 422.867 1886.61 423.082 1886.75C423.296 1886.89 423.237 1887.69 423.197 1887.9C423.155 1888.11 422.894 1887.97 422.892 1888.14C422.894 1889.3 423.715 1888.32 424.051 1888.56C424.845 1889.11 424.149 1890.11 424.388 1890.84C424.452 1891.04 424.592 1890.79 424.691 1890.94C425.081 1891.55 424.993 1892.09 425.643 1892.67C425.751 1892.77 426.604 1893.04 426.428 1893.64C426.403 1893.72 426.095 1893.7 426.202 1894C426.36 1894.44 426.754 1895.18 427.098 1895.54C427.351 1895.82 427.469 1895.24 427.613 1895.69C427.678 1895.89 427.265 1895.71 427.406 1896.08C427.544 1896.45 428.121 1897.25 428.351 1897.54C428.58 1897.84 428.71 1897.48 428.745 1897.5C428.95 1897.57 429.498 1898.04 429.537 1898.09C431.489 1900.53 433.187 1902.99 435.697 1904.82C435.893 1904.97 435.967 1904.62 435.999 1904.64C436.724 1905.05 435.688 1905.3 435.975 1905.89C436.305 1905.33 436.502 1905.63 437.013 1905.93C437.26 1906.07 437.284 1905.78 437.32 1905.77C437.874 1905.71 437.823 1906.27 437.828 1906.4C437.843 1906.86 438.338 1906.68 438.355 1906.98C438.377 1907.29 437.811 1907.34 438.287 1907.66C438.544 1907.55 438.53 1906.83 438.936 1906.98C440.441 1907.59 442.799 1909.43 443.969 1910.01C445.114 1910.6 445.519 1910.72 446.184 1911.07C447.397 1911.7 447.088 1911.12 447.934 1911.23C448.783 1911.32 448.071 1912.17 448.114 1912.42C448.159 1912.67 448.357 1912.49 448.463 1912.65C448.569 1912.82 448.21 1912.86 448.536 1913.01C448.866 1913.17 449.91 1913.06 450.09 1912.87C450.475 1912.47 450.197 1911.87 451.033 1912.28C451.081 1912.31 450.847 1912.52 451.037 1912.6C452.54 1913.21 454.195 1913.55 455.775 1913.94C455.993 1913.99 455.758 1914.26 455.885 1914.29C457.218 1914.64 456.797 1914.09 457.575 1913.63C457.345 1914.33 457.711 1914.81 458.759 1914.88C459.388 1914.91 459.292 1914.6 459.701 1914.4C459.822 1914.34 460.254 1914.56 460.337 1914.42C460.608 1913.95 460.208 1913.42 461.25 1913.64C461.25 1913.64 461.251 1913.64 461.251 1913.64C461.268 1913.64 461.26 1913.68 461.25 1913.72C461.237 1913.78 461.22 1913.85 461.25 1913.89C461.262 1913.91 461.281 1913.92 461.31 1913.92C462.346 1914.02 462.455 1913.53 463.548 1913.42C464.406 1913.34 465.961 1913.5 466.95 1913.4C467.032 1914.16 467.954 1913.85 468.238 1913.27C468.876 1913.18 469.548 1913.02 470.173 1912.96C470.388 1912.93 470.298 1913.17 470.33 1913.19C470.819 1913.45 470.979 1912.9 471.108 1912.85C472.522 1912.31 473.814 1912.3 475.052 1911.48C475.096 1911.45 475.002 1910.96 475.487 1911.17C475.52 1911.18 475.152 1911.56 475.794 1911.34C476.433 1911.12 477.725 1910.88 478.486 1910.27C478.671 1910.12 479.017 1909.53 479.565 1909.6C479.639 1909.61 479.64 1909.76 479.755 1909.79C480.124 1909.87 480.041 1909.37 480.532 1909.58C481.022 1909.78 481.811 1909.7 482.499 1908.96C482.522 1908.94 482.523 1908.5 482.783 1908.35C483.199 1908.1 483.816 1907.8 484.232 1907.52C484.431 1907.38 484.174 1907.28 484.207 1907.25C485.465 1906.24 486.501 1905.72 487.884 1904.67C488.139 1904.47 488.627 1903.66 489.233 1903.41C489.899 1903.13 490.13 1904.4 491.08 1903.09C491.463 1902.55 491.059 1901.09 492.306 1900.7C493.628 1898.95 495.118 1897.52 496.119 1895.54C496.164 1895.45 496.045 1895.01 496.171 1894.82C496.358 1894.53 496.588 1894.45 496.723 1894.24C497.287 1893.38 497.622 1892.49 498.084 1891.62C498.258 1891.28 498.34 1891.47 498.543 1891.07C498.743 1890.67 498.687 1890.31 499.021 1889.8C499.273 1889.41 499.826 1889.14 500.093 1888.58C499.732 1888.41 499.898 1888.02 500.055 1887.29C500.084 1887.14 499.905 1887.24 499.912 1887.17C499.94 1886.89 500.13 1886.69 500.142 1886.42C500.146 1886.35 500.022 1886.31 500.017 1886.25C499.977 1885.78 500.474 1885.18 500.557 1885.07C500.879 1884.67 500.779 1884.41 500.948 1884.08C501.116 1883.74 501.064 1884.3 501.218 1883.89C501.538 1883.05 501.771 1881.92 501.941 1881.04C502.009 1880.68 501.804 1880.89 501.81 1880.84C501.908 1880.11 502.187 1879.38 501.931 1878.93C502.801 1878.53 501.921 1878.48 502.196 1877.44C502.218 1877.36 502.601 1877.29 502.624 1877.62C502.648 1877.95 502.476 1878.42 502.504 1878.88C502.511 1878.99 502.786 1879.65 502.795 1879.74C502.871 1880.42 502.275 1880.41 502.238 1880.44C501.831 1880.77 502.082 1881.57 502.07 1881.77C502.017 1882.69 501.758 1883.41 501.657 1884.17C501.59 1884.66 501.969 1884.82 501.852 1885.2C501.456 1886.45 500.757 1886.68 500.83 1888.01C500.842 1888.3 501.375 1888.22 500.697 1888.98C500.655 1889.03 500.084 1889.55 500.125 1890.01C500.131 1890.07 500.259 1890.12 500.244 1890.19C500.138 1890.64 499.916 1890.87 499.763 1891.34C499.609 1891.81 499.427 1892.39 499.131 1892.87C498.953 1893.17 498.514 1893.42 498.379 1893.53C497.997 1893.84 498.033 1894.43 497.69 1894.55C497.344 1894.68 497.313 1894.02 496.808 1894.58C497.124 1894.8 497.432 1895.06 497.742 1895.3C496.894 1896.72 495.887 1898 494.904 1899.33C494.782 1899.49 495.082 1899.46 494.955 1899.64C494.417 1900.41 493.783 1900.94 493.199 1901.71C492.747 1902.31 492.368 1903.08 491.863 1903.7C491.184 1903.7 490.479 1904.64 489.823 1905.18C489.595 1905.36 489.52 1905.25 489.336 1905.36C488.639 1905.76 489.206 1905.85 489.088 1906.05C488.569 1906.9 487.865 1906.16 487.03 1906.86C486.987 1906.89 486.757 1907.76 486.696 1907.85C486.329 1908.41 486.5 1907.76 486.164 1907.96C485.546 1908.32 485.07 1908.49 484.468 1909.09C484.294 1909.27 483.99 1909.89 483.443 1909.91C483.372 1909.91 483.303 1909.73 483.255 1909.75C482.392 1910.06 482.669 1910.58 482.315 1911.02C481.959 1911.47 481.052 1911.49 480.853 1911.45C480.334 1911.38 481.081 1911.18 481.087 1911.14C481.155 1910.69 480.675 1911.03 480.266 1911.2C479.942 1910.7 479.411 1911 479.843 1911.38C479.892 1911.42 480.175 1911.22 480.266 1911.2C480.184 1911.9 479.589 1912.29 478.676 1912.1C478.249 1912.01 478.432 1911.6 477.503 1912.13C477.08 1912.36 477.411 1912.68 477.056 1912.95C476.238 1913.57 474.901 1913.64 473.956 1914.01C473.613 1914.14 474.023 1914.26 473.79 1914.36C473.169 1914.62 472.551 1914.62 471.923 1914.88C471.866 1914.9 472.072 1915.11 471.87 1915.17C470.33 1915.6 468.931 1915.73 467.284 1915.98C466.491 1916.1 465.071 1916.41 464.233 1916.45C463.291 1916.49 462.227 1916.37 461.25 1916.28C460.711 1916.24 460.205 1916.21 459.767 1916.23C458.964 1916.27 459.128 1916.54 458.769 1916.71C458.068 1917.05 456.933 1916.31 456.792 1916.19C456.788 1916.19 457.481 1916.18 457.128 1916.01C456.944 1915.7 456.801 1916.19 456.792 1916.19C456.692 1916.12 455.324 1915.91 455.047 1915.92C454.895 1915.93 454.94 1916.2 454.861 1916.2C452.977 1916.18 451.103 1915.87 449.3 1915.25C449.269 1915.24 449.4 1914.96 449.327 1914.93C448.316 1914.51 447.537 1914.66 446.599 1914.57C445.663 1914.49 444.998 1914.16 444.705 1913.47C444.045 1913.28 443.238 1912.67 442.796 1912.3C442.354 1911.94 442.015 1912.45 441.964 1912.44C440.391 1912.1 439.75 1911.37 438.4 1910.5C437.755 1910.09 436.432 1909.34 435.713 1908.91C435.142 1908.57 434.912 1908.22 434.371 1907.93C434.298 1907.89 434.191 1908.16 434.165 1908.16C433.414 1908.01 434.102 1907.66 434.068 1907.48C433.95 1906.82 433.867 1906.45 433.076 1906.06C432.897 1905.97 431.796 1906.35 431.477 1906.14C431.069 1905.88 431.447 1905.74 431.02 1905.46C430.983 1905.44 430.837 1905.61 430.617 1905.39C429.593 1904.38 428.597 1903.17 427.601 1902.06C427.465 1901.91 427.364 1902.34 427.162 1902.12C426.217 1901.1 425.278 1899.89 424.634 1898.68C424.477 1898.39 424.808 1898.41 424.829 1898.31C424.955 1897.69 424.054 1897.55 423.985 1897.47C422.345 1895.57 421.95 1893.61 420.627 1891.46C420.554 1891.35 419.441 1890.66 419.846 1889.98C419.871 1889.94 420.296 1889.27 419.734 1889.05C419.699 1889.03 419.494 1889.42 419.341 1888.94C419.189 1888.45 418.694 1887.75 418.824 1886.97C418.862 1886.72 419.324 1886.04 418.641 1885.56C418.594 1885.54 417.172 1884.85 417.869 1884.29C417.984 1884.2 418.831 1884.06 418.215 1883.4C418.097 1883.28 417.973 1883.59 417.763 1883.23C417.44 1882.67 417.498 1881.84 416.981 1881.18C416.89 1881.06 416.206 1880.6 416.577 1880.08C416.635 1880 416.943 1880.09 416.939 1879.85C416.921 1878.73 416.589 1877.58 416.703 1876.43C416.743 1876.03 417.23 1876.2 417.33 1875.78C417.429 1875.36 417.516 1874.54 417.289 1874.11C417.062 1873.68 416.312 1874.17 416.24 1873.51C416.231 1873.42 416.223 1873.34 416.216 1873.25C415.976 1870.45 416.633 1867.69 417.187 1864.98C417.274 1864.57 416.936 1864.86 417.05 1864.24C417.43 1861.96 418.359 1857.99 419.699 1856.36C420.746 1855.07 420.319 1857.05 420.961 1856.02C421.27 1855.52 420.698 1854.57 420.733 1854.43C421.054 1853.04 421.861 1852.36 422.36 1851.21C422.465 1850.97 422.016 1851 422.11 1850.8C422.428 1850.11 422.983 1849.51 423.346 1848.89C423.509 1848.61 423.237 1848.5 423.42 1848.26C423.855 1847.69 424.316 1847.23 424.939 1846.82C424.996 1846.79 425.036 1847.34 425.353 1846.92C425.868 1846.25 426.714 1845.59 427.124 1844.67C427.246 1844.4 426.753 1843.96 427.505 1843.78C427.664 1843.74 428.142 1844.39 428.112 1843.4C428.101 1843.23 428.264 1841.69 429.119 1841.67C429.342 1841.67 430.083 1841.84 430.257 1841.53C430.279 1841.48 429.896 1841.36 430.078 1841.13C430.727 1840.34 431.544 1839.64 432.273 1838.88C432.468 1838.67 431.909 1838.66 432.211 1838.36C433.04 1837.54 434.253 1836.73 435.247 1836.17C435.613 1835.96 435.552 1836.38 435.596 1836.39C436.3 1836.56 436.124 1835.8 436.237 1835.67C436.934 1834.9 437.773 1834.78 438.523 1834.23C438.731 1834.08 438.399 1833.87 438.428 1833.82C438.738 1833.29 438.707 1834.03 439.032 1833.92C439.944 1833.63 440.846 1833.12 441.681 1832.67C441.987 1832.5 441.458 1832.3 441.737 1832.16C443.386 1831.29 445.221 1830.59 447.01 1830.24C447.347 1830.17 447.241 1830.54 447.33 1830.58C447.944 1830.91 448.417 1830.05 448.561 1829.94C449.198 1829.44 449.559 1829.64 450.185 1829.42C453.261 1828.35 457.31 1828.02 460.351 1828.1C460.655 1828.1 460.955 1828.11 461.25 1828.12C464.801 1828.3 467.639 1828.88 471.034 1829.57C471.268 1829.62 471.123 1829.17 471.327 1829.2C473.965 1829.73 476.427 1830.74 478.919 1831.72C479.125 1831.81 478.983 1831.32 479.319 1831.45C480.01 1831.7 480.834 1832.13 481.435 1832.58C481.727 1832.8 481.158 1832.86 481.453 1833.08C482.138 1833.58 482.898 1834.04 483.659 1834.43C483.983 1834.6 483.703 1833.98 484.111 1834.23C486.887 1835.91 489.461 1837.88 491.465 1840.49C491.602 1840.67 491.257 1841.32 491.677 1841.56C491.836 1841.44 491.994 1841.27 492.149 1841.14C495.48 1844.41 497.959 1848.39 499.921 1852.55C500.003 1852.72 500.131 1852.27 500.291 1852.62C501.214 1854.6 502.025 1856.58 502.392 1858.8C502.427 1859.02 501.954 1859.07 502.197 1859.66C502.243 1859.77 502.551 1860.68 502.699 1860.9C502.721 1860.92 502.882 1860.69 502.959 1861C503.405 1862.76 503.658 1864.66 503.726 1866.47C503.737 1866.76 503.52 1866.48 503.527 1866.69C503.582 1868.15 503.781 1869.72 503.627 1871.11C503.525 1872.04 503.259 1871.71 503.002 1872.2C502.967 1872.27 502.957 1872.83 502.811 1872.86C502.45 1872.94 502.044 1872.68 501.658 1872.79C501.594 1872.81 501.655 1873.25 501.584 1873.25C501.584 1873.25 501.584 1873.25 501.584 1873.25C501.563 1873.25 501.532 1873.21 501.481 1873.11C501.467 1873.08 501.366 1872.56 501.284 1872.43C501.228 1872.34 501.092 1872.5 501.013 1872.32C500.932 1872.14 501.041 1871.94 500.932 1871.64C500.82 1871.34 500.659 1871.49 500.552 1870.89ZM440.855 1910.61C440.552 1910.11 439.953 1911.02 440.572 1911.06C440.603 1911.06 440.871 1910.63 440.855 1910.61ZM495.43 1897.66C494.796 1898.01 494.899 1898.65 495.371 1898.42C495.841 1898.18 495.622 1897.55 495.43 1897.66ZM498.695 1891.69C498.151 1892.27 498.935 1892.81 499.13 1891.98C499.141 1891.93 498.726 1891.66 498.695 1891.69ZM502.86 1869.96C502.853 1869.97 502.867 1870.38 502.875 1870.39C503.067 1870.59 503.046 1869.78 502.86 1869.96ZM500.931 1885.37C500.753 1885.56 500.673 1886.25 500.902 1886.02C501.087 1885.82 501.154 1885.13 500.931 1885.37ZM423.872 1891.11C423.884 1891.1 423.776 1890.83 423.687 1890.88C423.402 1891.03 423.659 1891.36 423.872 1891.11ZM502.675 1874.18C502.611 1875.85 501.897 1876.81 502.082 1875.02C502.11 1874.69 502.24 1875.73 502.317 1875.32C502.453 1874.56 502.091 1874.04 502.297 1873.26C502.335 1873.12 502.681 1874.08 502.675 1874.18C502.675 1874.18 502.675 1874.18 502.675 1874.18ZM441.229 1909.33C441.227 1909.31 440.888 1909.11 440.873 1909.12C440.513 1909.31 441.203 1909.73 441.229 1909.33ZM420.629 1874.89C420.661 1874.87 420.67 1873.96 420.639 1873.93C419.977 1873.46 419.959 1875.33 420.629 1874.89ZM466.968 1913.42C467.346 1913.07 467.837 1912.96 468.236 1913.27C467.815 1913.32 467.39 1913.38 466.968 1913.42Z" fill="#2C2929"/>
<path d="M478.749 1849.26C478.647 1849.61 478.388 1850.01 478.156 1850.3C478.084 1850.39 478.001 1850.28 477.946 1850.34C477.839 1850.46 477.831 1850.61 477.717 1850.73C477.678 1850.76 477.534 1850.63 477.498 1850.67C477.3 1850.89 477.227 1851.15 477.067 1851.4C476.276 1852.6 475.611 1853.84 474.914 1855.1C474.684 1855.52 474.281 1855.97 474.138 1856.45C474.121 1856.5 474.286 1856.54 474.293 1856.56C474.409 1856.8 474.131 1856.61 474.043 1856.69C473.694 1857.01 473.468 1857.45 473.343 1857.87C473.29 1858.04 473.665 1858.02 473.42 1858.11C473.403 1858.11 473.264 1857.99 473.226 1858.03C473.139 1858.12 473.075 1858.32 473.025 1858.4C472.928 1858.54 472.917 1858.56 472.847 1858.71C472.749 1858.9 472.559 1859.1 472.495 1859.33C472.481 1859.38 472.673 1859.39 472.666 1859.48C472.66 1859.56 472.555 1859.75 472.486 1859.79C472.417 1859.84 472.302 1859.75 472.268 1859.75C471.975 1859.72 472.214 1860.11 472.209 1860.14C472.108 1860.73 471.701 1861.08 471.471 1861.56C471.297 1861.93 471.174 1862.36 470.999 1862.7C470.789 1863.12 470.533 1863.43 470.355 1863.84C470.336 1863.89 470.552 1863.93 470.529 1863.98C470.287 1864.55 470.004 1865.09 469.612 1865.58C469.572 1865.63 469.438 1865.48 469.388 1865.52C469.088 1865.8 468.501 1866.18 469.138 1866.73C469 1866.94 468.838 1867.21 468.592 1867.34C468.434 1867.43 468.312 1867.21 468.313 1867.41C468.313 1867.46 468.496 1867.49 468.484 1867.55C468.433 1867.81 468.26 1868.04 468.234 1868.31C468.229 1868.36 468.379 1868.42 468.399 1868.44C468.556 1868.65 468.121 1868.67 468.076 1868.7C467.742 1868.92 467.71 1869.18 467.569 1869.47C467.536 1869.53 467.767 1869.54 467.743 1869.61C467.613 1869.96 467.433 1870.29 467.193 1870.58C467.139 1870.64 467.006 1870.49 466.972 1870.52C466.823 1870.64 467.118 1870.82 466.982 1870.93C466.953 1870.96 466.821 1870.87 466.802 1870.87C466.518 1870.84 466.826 1871.08 466.823 1871.11C466.791 1871.44 466.345 1871.45 466.264 1871.76C466.255 1871.79 466.469 1871.8 466.432 1871.9C466.187 1872.54 465.828 1873.17 465.394 1873.72C465.327 1873.8 465.225 1873.67 465.206 1873.67C464.902 1873.64 465.217 1873.87 465.216 1873.91C465.193 1874.2 464.794 1874.29 465.127 1874.65C464.492 1875.62 464.233 1876.76 463.375 1877.61C463.365 1877.62 463.205 1877.52 463.185 1877.54C463.007 1877.74 463.114 1877.83 463.272 1878L463.131 1878.36L462.666 1878.32C462.622 1878.4 462.568 1878.48 462.492 1878.57C462.422 1878.65 462.31 1878.2 462.299 1878.16C462.26 1878.04 462.358 1877.77 462.343 1877.75C462.213 1877.55 462.104 1878.47 461.894 1878.44C461.887 1878.44 461.94 1878.27 461.924 1878.25C461.877 1878.19 461.813 1878.25 461.768 1878.18C461.665 1878.03 461.686 1877.58 461.461 1877.81C461.432 1877.84 461.392 1878.37 461.208 1878.32C461.135 1878.29 460.802 1878.25 460.714 1878.21C460.627 1878.16 460.715 1878 460.709 1877.99C460.492 1877.74 460.6 1877.66 460.523 1877.31C460.446 1876.96 460.366 1877.75 460.302 1877.83C460.239 1877.91 460.082 1877.7 460.047 1877.63C460.011 1877.56 460.083 1877.46 460.048 1877.42C459.817 1877.14 459.875 1877.79 459.769 1877.9C459.52 1878.16 459.444 1877.56 459.264 1877.48C459.215 1877.45 459.238 1877.59 459.19 1877.6C459.003 1877.62 458.922 1877.42 458.693 1877.56C458.655 1877.58 458.439 1877.9 458.369 1877.63C458.359 1877.59 458.423 1877.46 458.351 1877.41C458.244 1877.35 458.042 1877.28 457.912 1877.31C457.815 1877.34 457.885 1877.59 457.781 1877.5C457.735 1877.46 457.85 1877.33 457.762 1877.27C457.674 1877.21 457.43 1877.18 457.337 1877.17C457.244 1877.16 457.268 1877.35 457.258 1877.36C457.203 1877.42 457.013 1877.48 456.998 1877.48C456.204 1877.38 455.52 1876.97 454.737 1876.96C454.675 1876.96 454.687 1877.16 454.678 1877.16C454.459 1877.21 454.696 1876.73 454.577 1876.54C454.541 1876.93 454.466 1876.84 454.314 1876.86C454.241 1876.87 454.258 1877.03 454.249 1877.04C454.112 1877.26 454.082 1876.95 454.072 1876.89C454.036 1876.66 453.923 1876.91 453.897 1876.75C453.872 1876.6 454.011 1876.4 453.871 1876.38C453.812 1876.51 453.863 1876.89 453.748 1876.93C453.316 1877.1 452.611 1876.7 452.294 1876.63C451.977 1876.55 451.87 1876.56 451.69 1876.48C451.366 1876.34 451.45 1876.63 451.223 1876.72C450.994 1876.81 451.193 1876.17 451.183 1876.02C451.175 1875.88 451.121 1876.02 451.095 1875.94C451.07 1875.85 451.164 1875.77 451.081 1875.73C450.999 1875.68 450.725 1875.9 450.673 1876.05C450.562 1876.35 450.621 1876.69 450.409 1876.54C450.396 1876.54 450.464 1876.37 450.417 1876.34C450.035 1876.15 449.62 1876.08 449.237 1875.91C449.185 1875.88 449.262 1875.7 449.232 1875.68C448.916 1875.51 448.988 1875.85 448.752 1876.18C448.863 1875.71 448.805 1875.4 448.552 1875.36C448.401 1875.34 448.396 1875.55 448.276 1875.68C448.24 1875.72 448.153 1875.56 448.119 1875.66C448.008 1875.97 448.056 1876.35 447.816 1876.17C447.806 1876.16 447.868 1875.99 447.83 1875.97C447.585 1875.86 447.505 1876.2 447.222 1876.2C447.001 1876.2 446.645 1875.94 446.403 1875.87C446.488 1875.33 446.236 1875.42 446.087 1875.77C445.929 1875.74 445.753 1875.73 445.606 1875.66C445.555 1875.63 445.613 1875.48 445.609 1875.46C445.545 1875.18 445.422 1875.54 445.385 1875.54C444.99 1875.63 444.725 1875.31 444.328 1875.52C444.314 1875.53 444.239 1875.9 444.183 1875.62C444.18 1875.6 444.323 1875.44 444.157 1875.41C443.99 1875.37 443.703 1875.12 443.444 1875.26C443.381 1875.29 443.193 1875.58 443.114 1875.32C443.103 1875.29 443.135 1875.18 443.122 1875.12C443.079 1874.92 442.984 1875.29 442.948 1874.96C442.911 1874.62 442.772 1874.36 442.504 1874.54C442.495 1874.55 442.395 1874.84 442.322 1874.83C442.205 1874.8 442.046 1874.71 441.923 1874.7C441.863 1874.69 441.874 1874.88 441.863 1874.88C441.45 1874.93 441.192 1874.72 440.776 1874.59C440.7 1874.56 440.439 1874.78 440.317 1874.56C440.183 1874.32 440.488 1873.43 440.074 1873.59C439.908 1873.65 439.543 1874.79 439.355 1874.14C438.797 1874.21 438.346 1873.83 437.777 1873.97C437.751 1873.97 437.627 1874.29 437.571 1874.27C437.488 1874.26 437.464 1874.1 437.405 1874.08C437.159 1874 436.909 1874.09 436.669 1874.04C436.577 1874.01 436.633 1873.86 436.524 1873.84C436.415 1873.81 436.311 1874.01 436.176 1873.89C436.075 1873.79 436.024 1873.36 435.881 1873.29C435.815 1873.7 435.713 1873.68 435.514 1873.76C435.476 1873.78 435.492 1873.93 435.473 1873.94C435.395 1874.01 435.35 1873.88 435.274 1873.95C435.255 1873.97 435.234 1874.11 435.217 1874.13C435.078 1874.32 434.946 1873.98 434.924 1873.92C434.837 1873.69 434.755 1873.87 434.677 1873.77C434.599 1873.67 434.749 1873.59 434.651 1873.52C434.448 1873.39 434.164 1873.37 433.943 1873.33C433.855 1873.31 433.888 1873.51 433.874 1873.52C433.684 1873.54 433.529 1873.31 433.372 1873.67C433.388 1872.68 433.248 1873.75 433.015 1873.52C432.997 1873.5 433.038 1873.03 433.127 1872.97C433.216 1872.92 433.315 1873.08 433.44 1872.99C433.47 1872.97 433.682 1872.56 433.706 1872.54C433.895 1872.35 433.817 1873.05 433.82 1873.09C433.855 1873.51 434.105 1873.07 434.158 1873.04C434.398 1872.93 434.57 1873.05 434.769 1872.98C434.899 1872.92 434.977 1872.47 435.069 1872.5C435.375 1872.59 435.392 1873.24 435.767 1872.74C435.847 1872.63 435.857 1872.13 436.026 1872.55C436.037 1872.57 436.153 1872.95 436.283 1872.74C436.299 1872.72 436.32 1872.57 436.338 1872.56C436.457 1872.5 436.512 1872.63 436.638 1872.59C436.763 1872.55 436.917 1872.49 437.044 1872.56C437.12 1872.6 437.185 1872.88 437.214 1872.95C437.295 1873.16 437.458 1872.87 437.492 1873.1C437.527 1873.34 437.342 1873.68 437.499 1873.85C437.56 1873.48 437.632 1873.09 437.698 1872.72C438.088 1872.79 438.456 1872.97 438.852 1873.01C438.901 1873.01 438.881 1872.81 438.934 1872.81C439.16 1872.81 439.332 1872.98 439.569 1872.95C439.753 1872.93 439.978 1872.75 440.171 1872.72C440.222 1873.17 440.518 1873.06 440.712 1873.13C440.78 1873.16 440.758 1873.27 440.802 1873.31C440.97 1873.48 440.937 1873.09 440.998 1873.04C441.256 1872.81 441.149 1873.67 441.412 1873.69C441.426 1873.69 441.662 1873.26 441.689 1873.23C441.864 1873.07 441.69 1873.4 441.778 1873.44C441.937 1873.53 442.038 1873.66 442.256 1873.55C442.319 1873.52 442.499 1873.26 442.579 1873.49C442.589 1873.52 442.559 1873.67 442.57 1873.68C442.763 1873.86 442.838 1873.39 442.984 1873.25C443.13 1873.1 443.271 1873.46 443.296 1873.56C443.361 1873.82 443.204 1873.65 443.195 1873.68C443.089 1873.95 443.234 1873.92 443.336 1873.96C443.283 1874.43 443.435 1874.42 443.442 1874C443.443 1873.95 443.354 1873.99 443.336 1873.96C443.496 1873.52 443.666 1873.48 443.783 1873.94C443.838 1874.15 443.724 1874.37 443.992 1874.32C444.113 1874.3 444.115 1873.97 444.23 1873.9C444.492 1873.74 444.752 1874.08 444.999 1874.07C445.089 1874.06 445.029 1873.88 445.092 1873.87C445.257 1873.84 445.377 1873.99 445.546 1873.95C445.561 1873.95 445.553 1873.76 445.603 1873.76C445.98 1873.8 446.289 1873.96 446.68 1874.02C446.869 1874.05 447.221 1874 447.414 1874.05C447.749 1874.13 448.127 1874.46 448.426 1874.44C448.621 1874.42 448.607 1874.23 448.706 1874.12C448.898 1873.9 449.111 1874.38 449.138 1874.45C449.139 1874.45 448.97 1874.47 449.043 1874.58C449.065 1874.78 449.137 1874.45 449.138 1874.45C449.157 1874.5 449.475 1874.58 449.545 1874.56C449.583 1874.54 449.589 1874.37 449.608 1874.36C450.065 1874.27 450.507 1874.29 450.936 1874.44C450.943 1874.44 450.903 1874.63 450.921 1874.64C451.163 1874.77 451.361 1874.55 451.592 1874.44C451.823 1874.33 451.983 1874.4 452.059 1874.76C452.224 1874.74 452.43 1874.92 452.548 1875.03C452.666 1875.14 452.74 1874.76 452.752 1874.75C453.147 1874.57 453.323 1874.81 453.692 1874.9C453.867 1874.95 454.227 1874.94 454.425 1874.93C454.581 1874.92 454.66 1875.02 454.808 1874.98C454.828 1874.98 454.834 1874.81 454.84 1874.8C455.026 1874.62 454.891 1875.02 454.912 1875.1C454.99 1875.39 455.041 1875.54 455.26 1875.44C455.31 1875.42 455.531 1874.85 455.62 1874.83C455.736 1874.8 455.663 1875 455.785 1874.97C455.796 1874.97 455.813 1874.83 455.883 1874.85C456.207 1874.92 456.553 1875.05 456.896 1875.09C456.943 1875.09 456.913 1874.88 456.981 1874.88C457.301 1874.9 457.645 1874.96 457.938 1875.1C458.01 1875.14 457.942 1875.28 457.952 1875.32C458.014 1875.6 458.213 1875.24 458.238 1875.24C458.827 1875.14 459.207 1875.54 459.805 1875.46C459.838 1875.46 460.138 1875.09 460.194 1875.45C460.198 1875.48 460.251 1875.85 460.381 1875.62C460.389 1875.61 460.35 1875.41 460.463 1875.45C460.575 1875.48 460.779 1875.39 460.908 1875.61C460.949 1875.68 461.015 1876.06 461.206 1875.79C461.219 1875.78 461.544 1875.17 461.562 1875.62C461.565 1875.7 461.482 1876.17 461.696 1875.95C461.737 1875.91 461.69 1875.8 461.79 1875.74C461.942 1875.66 462.107 1875.82 462.307 1875.63C462.342 1875.6 462.514 1875.3 462.58 1875.55C462.59 1875.59 462.537 1875.75 462.588 1875.77C462.725 1875.84 462.876 1875.85 463.025 1875.87L461.035 1876.94C461.083 1876.83 461.138 1876.73 461.228 1876.65C461.303 1876.59 461.514 1876.74 461.617 1876.68C461.72 1876.63 461.863 1876.48 461.8 1876.34C461.738 1876.2 461.322 1876.12 461.357 1875.97C461.509 1875.32 462.004 1874.84 462.316 1874.26C462.362 1874.18 462.196 1874.19 462.255 1874.05C462.471 1873.57 462.737 1872.69 463.214 1872.41C463.595 1872.19 463.569 1872.69 463.78 1872.48C463.882 1872.38 463.516 1872.04 463.516 1872.01C463.516 1871.65 463.8 1871.54 463.865 1871.26C463.878 1871.2 463.68 1871.17 463.693 1871.12C463.737 1870.95 463.892 1870.82 463.948 1870.67C463.973 1870.6 463.834 1870.55 463.874 1870.49C463.966 1870.35 464.084 1870.25 464.276 1870.17C464.294 1870.16 464.417 1870.33 464.475 1870.22C464.568 1870.05 464.794 1869.89 464.763 1869.63C464.754 1869.55 464.451 1869.4 464.722 1869.37C464.779 1869.37 465.126 1869.57 464.883 1869.27C464.843 1869.22 464.538 1868.77 464.87 1868.78C464.958 1868.78 465.296 1868.84 465.283 1868.74C465.28 1868.73 465.099 1868.69 465.111 1868.62C465.158 1868.39 465.28 1868.18 465.332 1867.94C465.345 1867.87 465.136 1867.88 465.161 1867.78C465.231 1867.53 465.414 1867.25 465.577 1867.04C465.638 1866.97 465.749 1867.09 465.767 1867.1C466.062 1867.11 465.756 1866.9 465.753 1866.85C465.734 1866.59 465.965 1866.51 466.014 1866.3C466.028 1866.24 465.851 1866.2 465.842 1866.19C465.755 1866.01 466.002 1866.23 466.066 1866.17C466.247 1866.02 466.336 1865.8 466.407 1865.6C466.434 1865.53 466.211 1865.52 466.237 1865.45C466.385 1865.06 466.589 1864.67 466.867 1864.35C466.919 1864.29 467.041 1864.4 467.08 1864.4C467.354 1864.41 467.114 1864.12 467.101 1864.07C467.039 1863.85 467.193 1863.85 467.234 1863.71C467.431 1862.99 467.902 1862.21 468.25 1861.61C468.703 1860.83 469.138 1860.26 469.471 1859.47C469.493 1859.42 469.28 1859.38 469.296 1859.34C469.511 1858.77 469.842 1858.26 470.048 1857.68C470.065 1857.64 469.855 1857.62 469.877 1857.54C469.92 1857.38 470.02 1857.19 470.148 1857.07C470.21 1857.01 470.318 1857.18 470.377 1857.12C470.516 1856.98 470.617 1856.8 470.672 1856.61C470.695 1856.53 470.458 1856.55 470.502 1856.45C470.799 1855.78 471.078 1855.11 471.634 1854.55C471.672 1854.52 472.064 1854.65 472.039 1854.52C471.939 1854.46 471.817 1854.41 471.708 1854.35C472.108 1853.36 472.692 1852.46 473.173 1851.5C473.193 1851.46 472.962 1851.44 473 1851.36C473.221 1850.9 473.378 1850.43 473.797 1850.05C473.838 1850.02 474.174 1850.2 474.186 1850.04C474.188 1850.01 474.24 1849.79 474.19 1849.7C474.182 1849.68 474.002 1849.64 474.029 1849.58C474.188 1849.18 474.417 1848.79 474.7 1848.45C474.746 1848.4 474.887 1848.54 474.921 1848.51C475.162 1848.24 475.193 1847.83 475.493 1847.6C475.694 1847.45 475.957 1847.67 476.301 1847.7C476.35 1847.71 476.416 1847.59 476.589 1847.66C477.027 1847.85 477.469 1848.13 477.938 1848.32C478.039 1848.37 478.012 1848.15 478.204 1848.36C478.216 1848.37 478.238 1848.53 478.305 1848.6C478.351 1848.65 478.542 1848.69 478.594 1848.77C478.645 1848.85 478.477 1848.82 478.528 1848.93C478.58 1849.04 478.792 1849.11 478.749 1849.26ZM453.08 1875.51C453.174 1875.71 453.29 1875.05 453.135 1875.19C453.128 1875.2 453.075 1875.5 453.08 1875.51ZM438.381 1873.47C438.496 1873.79 438.668 1873.37 438.589 1873.13C438.511 1872.88 438.345 1873.37 438.381 1873.47ZM436.704 1873.44C436.855 1873.7 437.023 1872.76 436.796 1872.92C436.783 1872.93 436.695 1873.43 436.704 1873.44ZM476.149 1848.24C476.158 1848.24 476.208 1848.15 476.201 1848.15C476.031 1848.01 475.93 1848.18 476.149 1848.24ZM435.037 1873.44C435.076 1873.57 435.265 1873.45 435.216 1873.28C435.177 1873.15 434.988 1873.27 435.037 1873.44ZM459.307 1877.15C459.307 1877.16 459.376 1877.18 459.383 1877.12C459.404 1876.94 459.299 1876.98 459.307 1877.15ZM432.261 1873.04C432.665 1873.14 432.8 1873.95 432.366 1873.8C432.288 1873.77 432.577 1873.58 432.484 1873.49C432.315 1873.34 432.118 1873.81 431.964 1873.52C431.937 1873.47 432.238 1873.04 432.262 1873.04C432.261 1873.04 432.261 1873.04 432.261 1873.04ZM453.033 1876.32C453.034 1876.33 453.13 1876.36 453.133 1876.35C453.217 1876.14 453.023 1876.1 453.033 1876.32ZM463.322 1877.3C463.341 1877.3 463.455 1877.1 463.443 1877.09C463.178 1876.83 462.947 1877.23 463.322 1877.3ZM446.402 1875.85C446.264 1876.05 446.133 1876.05 446.088 1875.78C446.191 1875.8 446.297 1875.82 446.402 1875.85Z" fill="#F2310F"/>
<rect x="1180" y="2037" width="466" height="4" fill="#2C2929"/>
<path d="M160.382 1967.36C160.007 1967.54 160.188 1967.45 160.411 1967.21C160.663 1966.96 161.005 1966.59 161.319 1966.26C161.519 1966.04 161.685 1966.31 161.838 1966.15C162.149 1965.83 162.202 1965.45 162.527 1965.11C162.635 1965 162.938 1965.37 163.044 1965.25C163.603 1964.61 163.875 1963.81 164.357 1963.04C166.746 1959.25 168.781 1955.11 171.866 1951.15C172.897 1949.84 174.516 1948.54 175.832 1947.23C175.987 1947.08 175.642 1946.86 175.654 1946.81C175.884 1946 176.191 1946.75 176.598 1946.58C178.22 1945.89 180 1945.1 181.755 1944.7C182.491 1944.54 181.647 1943.86 182.474 1944.22C182.528 1944.24 182.368 1944.66 182.577 1944.69C183.053 1944.75 183.916 1944.7 184.265 1944.78C184.936 1944.92 185.055 1944.94 185.65 1945.07C186.5 1945.28 187.323 1945.79 188.161 1946.08C188.344 1946.14 188.291 1945.65 188.606 1945.72C188.907 1945.79 189.565 1946.18 189.745 1946.41C189.923 1946.63 189.654 1946.86 189.654 1946.95C189.652 1947.22 189.809 1947.35 190.021 1947.42C190.386 1947.54 190.913 1947.47 190.982 1947.5C192.935 1948.47 193.905 1950.3 194.878 1952.02C195.641 1953.34 196.347 1954.84 196.62 1956.24C196.941 1957.91 196.801 1959.32 196.802 1960.89C196.801 1961.05 197.302 1960.87 197.301 1961.08C197.276 1963.28 196.85 1965.37 195.996 1967.3C195.911 1967.49 195.559 1967.12 195.448 1967.3C194.782 1968.45 193.358 1969.94 194.853 1971.31C194.485 1972.07 194.007 1973.01 193.354 1973.53C192.931 1973.86 192.694 1973.24 192.632 1973.86C192.617 1974 193.066 1974.02 193.014 1974.22C192.789 1975.05 192.261 1975.81 192.056 1976.65C192.015 1976.82 192.365 1976.96 192.401 1977.03C192.683 1977.65 191.569 1977.81 191.44 1977.91C190.467 1978.64 190.216 1979.42 189.65 1980.3C189.518 1980.5 190.093 1980.52 189.98 1980.73C189.388 1981.79 188.642 1982.8 187.765 1983.62C187.569 1983.81 187.368 1983.36 187.258 1983.43C186.775 1983.76 187.344 1984.34 186.885 1984.65C186.789 1984.72 186.538 1984.45 186.494 1984.44C185.805 1984.31 186.338 1985.07 186.301 1985.15C185.866 1986.13 184.731 1986.05 184.185 1986.88C184.119 1986.98 184.644 1987.08 184.438 1987.35C183.06 1989.12 181.29 1990.74 179.362 1991.93C179.066 1992.11 179.024 1991.69 178.98 1991.67C178.283 1991.4 178.693 1992.22 178.624 1992.32C178.076 1993.09 177.001 1992.98 177.127 1994.21C174.253 1995.9 171.332 1998.08 167.624 1998.1C167.146 1998.09 166.665 1998.04 166.185 1997.94C166.135 1997.94 166.206 1997.49 166.107 1997.48C164.965 1997.25 165.204 1997.92 164.333 1998.72C164.112 1998.92 163.602 1997.85 163.566 1997.77C163.408 1997.48 163.675 1996.85 163.619 1996.79C163.179 1996.32 162.96 1998.48 162.243 1998.37C162.221 1998.36 162.379 1997.98 162.326 1997.93C162.166 1997.78 161.957 1997.9 161.804 1997.74C161.454 1997.34 161.528 1996.29 160.809 1996.75C160.714 1996.81 160.548 1998.03 159.94 1997.82C159.697 1997.73 158.602 1997.44 158.337 1997.26C158.064 1997.09 158.392 1996.78 158.376 1996.76C157.755 1996 158.124 1995.89 158.002 1995.03C157.896 1994.17 157.365 1995.93 157.136 1996.06C156.906 1996.2 156.501 1995.58 156.423 1995.38C156.344 1995.19 156.608 1995.02 156.52 1994.9C155.942 1994.05 155.814 1995.59 155.436 1995.75C154.534 1996.11 154.608 1994.64 154.118 1994.26C153.986 1994.15 153.971 1994.49 153.826 1994.45C153.252 1994.29 153.138 1993.76 152.362 1993.78C152.235 1993.79 151.36 1994.24 151.35 1993.54C151.35 1993.44 151.64 1993.22 151.462 1993.03C151.197 1992.74 150.654 1992.34 150.26 1992.22C149.966 1992.14 149.957 1992.8 149.733 1992.45C149.634 1992.3 150.067 1992.18 149.869 1991.92C149.672 1991.65 149.005 1991.24 148.751 1991.08C148.499 1990.92 148.395 1991.36 148.359 1991.37C148.146 1991.43 147.552 1991.26 147.51 1991.23C145.346 1989.77 143.971 1987.7 142.013 1986.15C141.859 1986.03 141.641 1986.44 141.615 1986.42C140.996 1986.08 142.211 1985.6 142.161 1985C141.568 1985.69 141.487 1985.38 141.085 1985.11C140.891 1984.98 140.725 1985.31 140.685 1985.32C140.061 1985.45 140.396 1984.8 140.458 1984.66C140.684 1984.14 140.068 1984.38 140.22 1984.03C140.372 1983.68 140.982 1983.59 140.677 1983.27C140.351 1983.39 139.947 1984.22 139.612 1984.05C138.327 1983.43 137.298 1981.06 136.772 1980.16C136.232 1979.26 135.996 1979 135.771 1978.42C135.379 1977.37 135.049 1978.04 134.446 1977.57C133.848 1977.09 135.379 1976.65 135.623 1976.4C135.871 1976.16 135.521 1976.23 135.627 1976.04C135.735 1975.85 136.052 1975.97 135.987 1975.7C135.923 1975.43 135.061 1975.03 134.703 1975.09C133.946 1975.21 133.389 1975.86 133.317 1975.05C133.313 1975 133.744 1974.97 133.713 1974.8C133.461 1973.47 133.013 1972.17 132.948 1970.84C132.94 1970.66 133.42 1970.7 133.421 1970.59C133.45 1969.5 132.799 1970.05 131.839 1969.62C132.978 1969.53 133.581 1969.08 133.474 1968.32C133.414 1967.85 132.936 1968 132.553 1967.72C132.438 1967.64 132.744 1967.26 132.508 1967.22C131.737 1967.07 130.901 1967.47 131.193 1966.55C131.208 1966.52 131.628 1966.62 131.648 1966.49C131.791 1965.63 130.992 1965.53 130.947 1964.55C130.911 1963.78 131.579 1962.5 131.853 1961.71C133.09 1962 132.979 1961.23 132.235 1960.67C132.421 1960.17 132.569 1959.59 132.879 1959.15C132.986 1958.99 133.282 1959.24 133.328 1959.24C134.034 1959.16 133.336 1958.63 133.355 1958.51C133.59 1957.21 134.645 1956.67 134.798 1955.33C134.803 1955.29 134.299 1954.87 134.611 1954.8C134.663 1954.79 134.738 1954.79 134.841 1954.81C134.889 1954.82 134.98 1955.38 135.344 1954.93C135.728 1954.45 136.649 1954.02 136.89 1953.12C136.936 1952.92 136.732 1952.06 137.397 1952.18C137.486 1952.2 137.632 1952.41 137.782 1952.46C138.252 1952.62 137.735 1951.87 138.465 1952.23C139.217 1952.56 139.884 1952.7 140.167 1951.82C140.174 1951.8 139.894 1951.12 140.098 1951C140.396 1950.81 140.978 1950.63 141.312 1950.47C141.476 1950.39 141.184 1950.04 141.21 1950.02C142.362 1949.23 143.554 1949.41 144.857 1949.84C145.076 1949.91 146.031 1949.58 146.291 1950.25C146.532 1950.97 145.053 1952.58 146.1 1952.65C146.465 1952.65 148.793 1951.01 148.431 1952.66C149.867 1953.64 150.188 1955.36 151.512 1956.51C151.571 1956.57 152.352 1956.37 152.44 1956.54C152.567 1956.78 152.337 1957.09 152.415 1957.26C152.737 1958.02 153.364 1958.51 153.699 1959.22C153.826 1959.48 153.452 1959.57 153.601 1959.89C153.75 1960.21 154.291 1960.19 154.307 1960.72C154.317 1961.12 153.602 1961.9 153.718 1962.38C154.597 1961.94 154.732 1962.24 155.229 1962.64C155.325 1962.72 155.574 1962.45 155.635 1962.48C155.89 1962.59 155.729 1962.9 155.995 1963C156.059 1963.02 156.358 1962.87 156.427 1962.88C157.026 1962.96 156.615 1963.81 156.543 1963.96C156.277 1964.53 156.745 1964.48 156.704 1964.83C156.663 1965.17 156.247 1964.9 156.297 1965.26C156.405 1965.99 156.874 1966.75 157.218 1967.39C157.354 1967.64 157.648 1967.25 157.677 1967.28C158.05 1967.71 157.969 1968.5 158.887 1968.29C157.154 1969.86 159.267 1968.49 159.329 1969.4C159.336 1969.47 158.496 1970.17 158.211 1970.04C157.932 1969.92 157.998 1969.4 157.588 1969.22C157.493 1969.18 156.367 1969.29 156.276 1969.26C155.58 1969.04 156.949 1968.15 157.015 1968.08C157.701 1967.34 156.457 1967.37 156.311 1967.26C155.666 1966.81 155.575 1966.15 155.086 1965.76C154.765 1965.49 153.801 1965.95 153.688 1965.66C153.321 1964.72 154.481 1963.72 152.906 1963.48C152.569 1963.43 151.627 1964.14 152.109 1963.08C152.14 1963.02 152.638 1962.16 152.026 1962.13C151.949 1962.13 151.649 1962.29 151.6 1962.26C151.28 1962.05 151.413 1961.72 151.127 1961.46C150.839 1961.2 150.464 1960.92 150.364 1960.5C150.305 1960.25 150.7 1959.66 150.776 1959.48C150.998 1958.97 150.182 1959.02 150.543 1958.57C150.902 1958.11 151.827 1958.05 151.839 1957.39C151.072 1957.83 150.271 1958.25 149.495 1958.68C148.915 1957.66 148.535 1956.56 147.825 1955.71C147.737 1955.6 147.447 1956 147.345 1955.9C146.923 1955.49 146.848 1954.88 146.346 1954.57C145.963 1954.33 145.296 1954.42 144.967 1954.34C145.383 1953.38 144.724 1953.38 144.512 1953.21C144.431 1953.15 144.525 1952.9 144.477 1952.79C144.276 1952.4 144.195 1953.3 144.107 1953.42C143.837 1953.99 144.03 1951.95 143.492 1952.03C143.443 1952.04 143.355 1953.14 143.365 1953.22C143.294 1953.69 143.245 1952.86 143.086 1952.82C142.782 1952.76 142.435 1952.63 142.218 1953.11C142.14 1953.26 142.28 1953.96 141.785 1953.68C141.718 1953.64 141.525 1953.34 141.49 1953.34C140.848 1953.39 141.523 1954.29 141.576 1954.75C141.63 1955.2 140.756 1954.97 140.513 1954.91C139.911 1954.7 140.488 1954.58 140.461 1954.53C140.125 1953.92 139.898 1954.3 139.678 1954.45C138.856 1953.72 138.608 1954.09 139.434 1954.63C139.524 1954.69 139.602 1954.46 139.678 1954.45C140.284 1955.38 140.131 1955.74 139.011 1955.52C138.484 1955.42 138.212 1954.87 137.906 1955.59C137.768 1955.91 138.448 1956.27 138.433 1956.63C138.421 1956.89 138.305 1957.11 138.136 1957.3C137.801 1957.69 137.25 1957.98 137.089 1958.41C137.005 1958.64 137.477 1958.64 137.435 1958.8C137.327 1959.22 136.873 1959.42 136.838 1959.87C136.836 1959.91 137.266 1960.01 137.218 1960.13C136.869 1961.01 136.331 1961.71 136.091 1962.7C135.971 1963.18 136.072 1964.07 135.987 1964.56C135.825 1965.4 135.219 1966.54 135.458 1967.32C135.611 1967.83 136.031 1967.66 136.351 1967.83C136.966 1968.13 136.099 1969.02 135.971 1969.17C135.966 1969.17 135.776 1968.76 135.606 1969.04C135.182 1969.27 135.969 1969.17 135.971 1969.17C135.88 1969.26 135.999 1970.15 136.134 1970.3C136.204 1970.38 136.584 1970.22 136.613 1970.26C137.294 1971.3 137.81 1972.33 138.166 1973.52C138.168 1973.54 137.74 1973.71 137.751 1973.76C137.889 1974.51 138.606 1974.66 139.186 1975.01C139.77 1975.36 139.908 1975.79 139.438 1976.52C139.765 1976.85 139.846 1977.59 139.897 1978.03C139.949 1978.47 140.705 1977.99 140.738 1978C141.81 1978.51 141.763 1979.27 142.414 1980.17C142.717 1980.59 143.506 1981.27 143.966 1981.61C144.329 1981.87 144.367 1982.21 144.753 1982.4C144.805 1982.43 145.046 1982.11 145.068 1982.11C145.724 1982.09 144.889 1982.63 144.835 1982.82C144.641 1983.51 144.57 1983.91 145.212 1984.1C145.362 1984.15 146.598 1983.39 146.832 1983.48C147.137 1983.62 146.716 1983.91 147.048 1984.04C147.076 1984.05 147.274 1983.82 147.42 1983.96C148.1 1984.62 148.803 1985.42 149.617 1985.99C149.728 1986.07 149.883 1985.57 150.045 1985.68C150.815 1986.18 151.61 1986.75 152.237 1987.43C152.389 1987.59 152.089 1987.81 152.074 1987.92C151.992 1988.6 152.824 1988.06 152.888 1988.08C154.495 1988.56 155.194 1989.86 156.855 1990.21C156.953 1990.23 157.945 1989.63 157.893 1990.5C157.888 1990.56 157.849 1991.45 158.314 1991.02C158.342 1990.99 158.334 1990.52 158.615 1990.68C158.902 1990.84 159.462 1990.74 159.726 1991.34C159.804 1991.52 159.866 1992.44 160.46 1991.92C160.506 1991.88 161.519 1990.6 161.449 1991.66C161.437 1991.84 161.123 1992.9 161.734 1992.47C161.849 1992.39 161.749 1992.11 162.014 1992.01C162.413 1991.86 162.843 1992.26 163.338 1991.84C163.428 1991.76 163.833 1991.07 163.997 1991.66C164.024 1991.76 163.905 1992.11 164.031 1992.17C164.627 1992.44 165.281 1992.23 165.843 1992.47C166.054 1992.55 165.97 1993.15 166.208 1993.3C166.4 1993.42 166.748 1993.51 166.966 1993.38C167.016 1993.35 167.06 1993.31 167.093 1993.25C167.258 1992.94 166.88 1992.04 167.146 1991.92C168.277 1991.36 169.931 1991.25 171.466 1990.41C171.688 1990.29 171.331 1990.11 171.644 1989.91C172.812 1989.17 174.57 1987.37 175.995 1987.04C177.168 1986.75 176.476 1987.98 177.243 1987.6C177.613 1987.41 177.152 1986.32 177.194 1986.23C177.604 1985.33 178.395 1985.22 178.857 1984.51C178.951 1984.36 178.507 1984.18 178.59 1984.06C178.872 1983.63 179.363 1983.38 179.649 1983C179.775 1982.83 179.489 1982.63 179.637 1982.5C179.987 1982.18 180.361 1981.96 180.9 1981.8C180.95 1981.79 181.101 1982.28 181.336 1982.01C181.712 1981.59 182.406 1981.21 182.537 1980.49C182.575 1980.27 181.949 1979.8 182.631 1979.78C182.774 1979.78 183.472 1980.42 183.098 1979.55C183.041 1979.4 182.606 1978.11 183.411 1978.18C183.623 1978.2 184.415 1978.4 184.445 1978.14C184.446 1978.1 184.025 1977.97 184.097 1977.79C184.358 1977.15 184.778 1976.56 185.024 1975.9C185.089 1975.72 184.574 1975.73 184.681 1975.48C184.976 1974.77 185.53 1974.02 185.996 1973.43C186.169 1973.21 186.4 1973.54 186.444 1973.55C187.16 1973.56 186.482 1972.99 186.485 1972.87C186.513 1972.16 187.093 1971.89 187.251 1971.29C187.294 1971.13 186.872 1971.07 186.852 1971.02C186.667 1970.57 187.234 1971.1 187.397 1970.94C187.854 1970.49 188.093 1969.84 188.266 1969.26C188.329 1969.04 187.795 1969.1 187.855 1968.91C188.204 1967.79 188.623 1966.69 189.167 1965.68C189.27 1965.5 189.591 1965.72 189.683 1965.7C190.329 1965.55 189.66 1964.92 189.607 1964.81C189.371 1964.28 189.723 1964.18 189.739 1963.78C189.824 1961.82 190.122 1959.64 189.97 1958.11C189.784 1956.14 189.437 1954.69 188.115 1953.48C188.031 1953.41 187.772 1953.84 187.698 1953.78C187.3 1953.47 186.938 1953.18 186.489 1952.88C185.787 1952.4 185.137 1952.05 184.535 1951.94C184.448 1951.92 184.42 1952.4 184.287 1952.39C184.013 1952.38 183.78 1952.31 183.587 1952.14C183.494 1952.06 183.676 1951.68 183.571 1951.6C183.326 1951.43 183.028 1951.4 182.789 1951.51C182.689 1951.56 182.912 1952 182.79 1952.03C182.02 1952.21 181.046 1952.84 179.373 1953.73C179.26 1953.79 178.473 1953.23 178.419 1953.57C178.606 1953.76 178.844 1953.96 179.053 1954.16C177.43 1956.26 175.595 1958.8 174.068 1961.68C174.004 1961.8 174.565 1961.82 174.444 1962.05C173.738 1963.43 173.206 1964.86 172.017 1966.13C171.9 1966.26 171.135 1965.78 171.04 1966.29C171.023 1966.38 170.802 1967.09 170.891 1967.35C170.906 1967.39 171.34 1967.45 171.245 1967.67C170.663 1968.97 169.884 1970.28 168.805 1971.52C168.625 1971.72 168.403 1971.24 168.272 1971.38C167.329 1972.31 166.895 1973.9 164.464 1974.82C162.714 1975.25 163.017 1974.24 162.215 1973.58C162.096 1973.51 161.283 1973.35 161.406 1972.9C161.721 1971.84 162.139 1970.7 162.419 1969.55C162.52 1969.3 162.672 1969.67 162.769 1969.04C162.799 1969 162.486 1968.68 162.327 1968.47C162.226 1968.32 162.482 1967.88 162.221 1967.68C161.935 1967.49 161.653 1967.9 161.311 1967.79C161.128 1967.74 161.025 1967.58 160.885 1967.47C160.757 1967.35 160.537 1967.29 160.382 1967.36ZM140.196 1980.01C140.09 1980.57 141.349 1979.63 140.813 1979.56C140.786 1979.55 140.201 1979.98 140.196 1980.01ZM149.493 1955.91C149.783 1955.12 148.765 1955.46 148.528 1956.04C148.278 1956.61 149.402 1956.15 149.493 1955.91ZM152.566 1960.02C152.763 1959.24 150.772 1960.24 151.462 1960.56C151.502 1960.58 152.555 1960.06 152.566 1960.02ZM164.601 1972.28C164.597 1972.26 164.249 1972.53 164.254 1972.55C164.373 1973.1 165.108 1972.53 164.601 1972.28ZM155.464 1964.37C155.648 1964.06 155.094 1963.75 154.867 1964.13C154.685 1964.43 155.237 1964.74 155.464 1964.37ZM154.439 1993.56C154.434 1993.58 154.629 1993.7 154.682 1993.58C154.852 1993.19 154.52 1993.16 154.439 1993.56ZM160.451 1971.92C159.359 1970.85 160.498 1969.18 161.12 1970.22C161.254 1970.41 160.36 1970.27 160.437 1970.59C160.652 1971.25 161.634 1970.58 161.683 1971.31C161.694 1971.38 161.459 1971.6 161.149 1971.74C160.845 1971.89 160.474 1971.95 160.448 1971.92C160.449 1971.92 160.45 1971.92 160.451 1971.92ZM138.851 1981.35C138.839 1981.37 139.018 1981.62 139.039 1981.62C139.531 1981.43 139.175 1980.93 138.851 1981.35ZM167.05 1997.45C167.062 1997.48 167.318 1997.48 167.534 1997.45C167.696 1997.44 167.839 1997.41 167.847 1997.39C167.963 1996.99 167.697 1996.81 167.444 1996.8C167.153 1996.8 166.829 1997.02 167.05 1997.45ZM131.889 1961.71C131.481 1961.24 131.548 1960.77 132.234 1960.67C132.1 1961.01 132.001 1961.36 131.889 1961.71Z" fill="#F2310F"/>
<rect x="1161" y="1434" width="504" height="711" fill="#EDDEDE"/>
<path d="M1052.5 2475V2315H1381V2475" stroke="#B5ADAD" stroke-width="9"/>
<rect x="910" y="2406.5" width="628" height="393" fill="#E2D5D5"/>
<path d="M922.5 2802L865 2826.5V2430.5L909 2407.5C932.5 2553.5 922.5 2652.43 922.5 2802Z" fill="#EDDEDE"/>
<rect x="865" y="2431" width="628" height="393" fill="#EDDEDE"/>
<path d="M1007.5 2499.5V2339.5H1336V2499.5" stroke="#B5ADAD" stroke-width="9"/>
<rect x="1290" y="2466" width="92" height="48" fill="#E2D5D5"/>
<rect x="962" y="2466" width="92" height="48" fill="#E2D5D5"/>
<path d="M1076.99 2567.84L1153.81 2531.24L1203.74 2581.57L1283.41 2563.33" stroke="#F2C40F" stroke-width="73"/>
<path d="M1076.99 2567.84L1153.81 2531.24L1203.74 2581.57L1283.41 2563.33" stroke="#EDDEDE" stroke-width="53"/>
<path d="M1076.99 2567.84L1153.81 2531.24L1203.74 2581.57L1283.41 2563.33" stroke="#F2C40F" stroke-width="7"/>
<path d="M1061 2666.84L1137.82 2630.24L1187.75 2680.57L1267.41 2662.33" stroke="#F2C40F" stroke-width="73"/>
<path d="M1061 2666.84L1137.82 2630.24L1187.75 2680.57L1267.41 2662.33" stroke="#EDDEDE" stroke-width="53"/>
<path d="M1061 2666.84L1137.82 2630.24L1187.75 2680.57L1267.41 2662.33" stroke="#F2C40F" stroke-width="7"/>
<path d="M1545 2795.5L1493 2825.5V2433L1538.5 2408L1545 2795.5Z" fill="#E2D5D5"/>
</svg>
