<svg width="1920" height="1080" viewBox="0 0 1920 1080" fill="none" xmlns="http://www.w3.org/2000/svg">
<g clip-path="url(#clip0_97_318)">
<path d="M624.13 210.728C657.758 204.466 692.411 206.593 725.02 216.922C757.629 227.251 787.188 245.462 811.077 269.943C834.967 294.424 852.45 324.419 861.979 357.271C871.507 390.123 872.787 424.818 865.704 458.282C858.621 491.747 843.395 522.948 821.373 549.122C799.351 575.296 771.215 595.635 739.455 608.338C707.695 621.041 673.293 625.715 639.295 621.946C605.298 618.178 572.754 606.083 544.548 586.732L662.212 415.212L624.13 210.728Z" fill="#F2C40F"/>
<path d="M647.392 858.202C638.808 895.761 621.092 930.624 595.816 959.701C570.54 988.779 538.482 1011.17 502.483 1024.9C466.485 1038.63 427.656 1043.27 389.436 1038.41C351.216 1033.55 314.785 1019.33 283.37 997.03C251.955 974.725 226.525 945.017 209.334 910.537C192.142 876.058 183.72 837.87 184.812 799.358C185.904 760.845 196.478 723.197 215.596 689.747C234.714 656.297 261.786 628.078 294.415 607.59L419 806L647.392 858.202Z" fill="#F2C40F"/>
<path d="M528.525 288.225C524.586 334.89 507.4 379.46 478.991 416.689C450.581 453.919 412.129 482.259 368.159 498.377C324.189 514.495 276.53 517.719 230.789 507.669C185.049 497.62 143.131 474.716 109.966 441.652L283.545 267.545L528.525 288.225Z" fill="#F2C40F"/>
<path d="M1672.96 746.658C1687.9 791.071 1688.73 839.023 1675.31 883.922C1661.9 928.822 1634.91 968.464 1598.05 997.4C1561.19 1026.34 1516.27 1043.14 1469.47 1045.51C1422.67 1047.88 1376.28 1035.7 1336.69 1010.63C1297.09 985.571 1266.24 948.858 1248.35 905.543C1230.47 862.228 1226.45 814.438 1236.83 768.743C1247.21 723.047 1271.5 681.69 1306.34 650.356C1341.18 619.021 1384.88 599.249 1431.41 593.757L1458 818.998L1672.96 746.658Z" fill="#F2C40F"/>
<path d="M1358.28 441.489C1347.12 482.654 1322.64 518.964 1288.67 544.745C1254.69 570.527 1213.13 584.329 1170.48 583.994C1127.84 583.659 1086.5 569.207 1052.93 542.895C1019.37 516.583 995.461 479.893 984.951 438.558C974.442 397.223 977.92 353.572 994.842 314.422C1011.76 275.273 1041.18 242.832 1078.49 222.167C1115.8 201.502 1158.9 193.778 1201.06 200.201C1243.23 206.624 1282.08 226.832 1311.54 257.669L1172 391L1358.28 441.489Z" fill="#F2C40F"/>
<path d="M1468.23 457.19C1453.73 413.859 1454.7 366.841 1470.98 324.147C1487.26 281.454 1517.85 245.726 1557.52 223.052C1597.19 200.379 1643.49 192.161 1688.54 199.8C1733.59 207.44 1774.6 230.463 1804.57 264.947C1834.55 299.432 1851.64 343.243 1852.94 388.918C1854.24 434.592 1839.66 479.303 1811.68 515.432C1783.71 551.561 1744.07 576.873 1699.53 587.055C1654.99 597.237 1608.29 591.659 1567.4 571.271L1655.52 394.521L1468.23 457.19Z" fill="#F2C40F"/>
<path d="M1096.65 943.282C1073.52 980.021 1038.66 1007.87 997.714 1022.31C956.771 1036.75 912.151 1036.94 871.089 1022.84C830.027 1008.74 794.93 981.189 771.49 944.646C748.05 908.102 737.641 864.713 741.952 821.513C746.262 778.313 765.039 737.835 795.237 706.644C825.435 675.453 865.284 655.376 908.322 649.671C951.36 643.965 995.063 652.965 1032.35 675.21C1069.63 697.456 1098.3 731.643 1113.72 772.227L933.638 840.638L1096.65 943.282Z" fill="#F2C40F"/>
<circle cx="1275.5" cy="464.06" r="24.9621" fill="#FFF5DA"/>
<circle cx="1510.24" cy="378.186" r="25.5442" transform="rotate(-12.483 1510.24 378.186)" fill="#FFF5DA"/>
<circle cx="1682.31" cy="532.804" r="25.5442" transform="rotate(-12.483 1682.31 532.804)" fill="#FFF5DA"/>
<circle cx="1778.64" cy="235.813" r="25.5442" transform="rotate(-12.483 1778.64 235.813)" fill="#FFF5DA"/>
<circle cx="1709" cy="451.599" r="25.5442" transform="rotate(-12.483 1709 451.599)" fill="#FFF5DA"/>
<circle cx="1597.75" cy="306.489" r="25.5442" transform="rotate(-12.483 1597.75 306.489)" fill="#FFF5DA"/>
<circle cx="1376.2" cy="675.843" r="29.3344" transform="rotate(26.2245 1376.2 675.843)" fill="#FFF5DA"/>
<circle cx="1519.72" cy="811.939" r="29.3344" transform="rotate(26.2245 1519.72 811.939)" fill="#FFF5DA"/>
<circle cx="1243.69" cy="883.334" r="29.3344" transform="rotate(26.2245 1243.69 883.334)" fill="#FFF5DA"/>
<circle cx="1555.85" cy="968.512" r="29.3344" transform="rotate(26.2245 1555.85 968.512)" fill="#FFF5DA"/>
<circle cx="1028.44" cy="755.562" r="24.9154" fill="#FFF5DA"/>
<circle cx="881.377" cy="1018.08" r="24.9154" fill="#FFF5DA"/>
<circle cx="791.438" cy="719.1" r="24.9154" fill="#FFF5DA"/>
<circle cx="917.839" cy="743.408" r="24.9154" fill="#FFF5DA"/>
<circle cx="967.669" cy="918.423" r="24.9154" fill="#FFF5DA"/>
<circle cx="1249.93" cy="325.245" r="24.9621" fill="#FFF5DA"/>
<circle cx="1185.39" cy="261.927" r="24.9621" fill="#FFF5DA"/>
<circle cx="1027.1" cy="333.77" r="24.9621" fill="#FFF5DA"/>
<circle cx="1185.39" cy="513.984" r="24.9621" fill="#FFF5DA"/>
<circle cx="621.438" cy="489.86" r="26.9022" transform="rotate(156.752 621.438 489.86)" fill="#FFF5DA"/>
<circle cx="691.546" cy="264.067" r="26.9022" transform="rotate(156.752 691.546 264.067)" fill="#FFF5DA"/>
<circle cx="707.651" cy="554.229" r="26.9022" transform="rotate(156.752 707.651 554.229)" fill="#FFF5DA"/>
<circle cx="461.436" cy="349.207" r="31.7978" transform="rotate(15.3021 461.436 349.207)" fill="#FFF5DA"/>
<circle cx="539.488" cy="657.47" r="30.3015" fill="#FFF5DA"/>
<circle cx="232.217" cy="334.736" r="31.7978" transform="rotate(15.3021 232.217 334.736)" fill="#FFF5DA"/>
<circle cx="277.861" cy="697.38" r="30.3015" fill="#FFF5DA"/>
<circle cx="508.447" cy="885.1" r="30.3015" fill="#FFF5DA"/>
<circle cx="375.417" cy="991.525" r="30.3015" fill="#FFF5DA"/>
<circle cx="804.303" cy="337.032" r="26.9022" transform="rotate(156.752 804.303 337.032)" fill="#FFF5DA"/>
<circle cx="1237.75" cy="255.839" r="12.7855" fill="#FFF5DA"/>
<circle cx="1185.39" cy="325.245" r="12.7855" fill="#FFF5DA"/>
<circle cx="1113.55" cy="268.016" r="12.7855" fill="#FFF5DA"/>
<circle cx="1126.95" cy="510.331" r="12.7855" fill="#FFF5DA"/>
<circle cx="972.531" cy="779.869" r="12.7615" fill="#FFF5DA"/>
<circle cx="967.669" cy="681.423" r="12.7615" fill="#FFF5DA"/>
<circle cx="864.362" cy="705.73" r="12.7615" fill="#FFF5DA"/>
<circle cx="843.7" cy="956.1" r="12.7615" fill="#FFF5DA"/>
<circle cx="939.715" cy="987.7" r="12.7615" fill="#FFF5DA"/>
<circle cx="1036.95" cy="942.73" r="12.7615" fill="#FFF5DA"/>
<circle cx="843.7" cy="762.853" r="12.7615" fill="#FFF5DA"/>
<circle cx="1262.11" cy="522.508" r="12.7855" fill="#FFF5DA"/>
<circle cx="1044.15" cy="483.542" r="12.7855" fill="#FFF5DA"/>
<circle cx="1180.52" cy="457.971" r="12.7855" fill="#FFF5DA"/>
<circle cx="596.518" cy="564.837" r="13.7792" transform="rotate(156.752 596.518 564.837)" fill="#FFF5DA"/>
<circle cx="682.787" cy="496.355" r="13.7792" transform="rotate(156.752 682.787 496.355)" fill="#FFF5DA"/>
<circle cx="783.979" cy="545.72" r="13.7792" transform="rotate(156.752 783.979 545.72)" fill="#FFF5DA"/>
<circle cx="423.283" cy="423.999" r="16.2867" transform="rotate(15.3021 423.283 423.999)" fill="#FFF5DA"/>
<circle cx="387.463" cy="308.061" r="16.2867" transform="rotate(15.3021 387.463 308.061)" fill="#FFF5DA"/>
<circle cx="207.769" cy="453.479" r="16.2867" transform="rotate(15.3021 207.769 453.479)" fill="#FFF5DA"/>
<circle cx="178.285" cy="408.425" r="16.2867" transform="rotate(15.3021 178.285 408.425)" fill="#FFF5DA"/>
<circle cx="229.083" cy="771.286" r="15.5203" fill="#FFF5DA"/>
<circle cx="444.888" cy="830.41" r="15.5203" fill="#FFF5DA"/>
<circle cx="591.222" cy="930.923" r="15.5203" fill="#FFF5DA"/>
<circle cx="477.407" cy="994.481" r="15.5203" fill="#FFF5DA"/>
<circle cx="294.12" cy="945.704" r="15.5203" fill="#FFF5DA"/>
<circle cx="399.066" cy="917.619" r="15.5203" fill="#FFF5DA"/>
<circle cx="360.635" cy="710.682" r="15.5203" fill="#FFF5DA"/>
<circle cx="642.324" cy="332.347" r="13.7792" transform="rotate(156.752 642.324 332.347)" fill="#FFF5DA"/>
<circle cx="739.141" cy="305.038" r="13.7792" transform="rotate(156.752 739.141 305.038)" fill="#FFF5DA"/>
<circle cx="1593.5" cy="373.792" r="13.0836" transform="rotate(-12.483 1593.5 373.792)" fill="#FFF5DA"/>
<circle cx="1540.05" cy="282.25" r="13.0836" transform="rotate(-12.483 1540.05 282.25)" fill="#FFF5DA"/>
<circle cx="1641.16" cy="266.248" r="13.0836" transform="rotate(-12.483 1641.16 266.248)" fill="#FFF5DA"/>
<circle cx="1712.15" cy="223.731" r="13.0836" transform="rotate(-12.483 1712.15 223.731)" fill="#FFF5DA"/>
<circle cx="1753.82" cy="504.209" r="13.0836" transform="rotate(-12.483 1753.82 504.209)" fill="#FFF5DA"/>
<circle cx="1436.79" cy="640.286" r="15.0249" transform="rotate(26.2245 1436.79 640.286)" fill="#FFF5DA"/>
<circle cx="1387.69" cy="778.806" r="15.0249" transform="rotate(26.2245 1387.69 778.806)" fill="#FFF5DA"/>
<circle cx="1294.08" cy="748.645" r="15.0249" transform="rotate(26.2245 1294.08 748.645)" fill="#FFF5DA"/>
<circle cx="1311.86" cy="832.373" r="15.0249" transform="rotate(26.2245 1311.86 832.373)" fill="#FFF5DA"/>
<circle cx="1297.06" cy="927.173" r="15.0249" transform="rotate(26.2245 1297.06 927.173)" fill="#FFF5DA"/>
<circle cx="1515.12" cy="899" r="15.0249" transform="rotate(26.2245 1515.12 899)" fill="#FFF5DA"/>
<circle cx="1612.97" cy="888.179" r="15.0249" transform="rotate(26.2245 1612.97 888.179)" fill="#FFF5DA"/>
<circle cx="1617.63" cy="810.717" r="15.0249" transform="rotate(26.2245 1617.63 810.717)" fill="#FFF5DA"/>
<circle cx="1649.64" cy="477.5" r="13.0836" transform="rotate(-12.483 1649.64 477.5)" fill="#FFF5DA"/>
<circle cx="1611.74" cy="548.426" r="13.0836" transform="rotate(-12.483 1611.74 548.426)" fill="#FFF5DA"/>
<circle cx="1811.88" cy="414.784" r="13.0836" transform="rotate(-12.483 1811.88 414.784)" fill="#FFF5DA"/>
<circle cx="1109.9" cy="567.562" r="24.9621" fill="#FFF5DA"/>
</g>
<defs>
<clipPath id="clip0_97_318">
<rect width="1920" height="1080" fill="white"/>
</clipPath>
</defs>
</svg>
