<svg width="103" height="104" viewBox="0 0 103 104" fill="none" xmlns="http://www.w3.org/2000/svg">
<ellipse cx="51.5" cy="52" rx="51.5" ry="52" fill="#F2310F"/>
<mask id="mask0_235_5" style="mask-type:alpha" maskUnits="userSpaceOnUse" x="10" y="10" width="84" height="83">
<ellipse cx="52" cy="51.5" rx="42" ry="41.5" fill="#E35151"/>
</mask>
<g mask="url(#mask0_235_5)">
<path d="M56.1468 195.502C39.2718 195.502 27.1885 192.117 19.8968 185.346C12.6052 178.471 7.86559 167.117 5.67809 151.284L4.27184 144.252C2.50101 131.544 0.261428 122.742 -2.44691 117.846C-5.05107 112.846 -9.84274 110.346 -16.8219 110.346H-20.5719L-20.5719 173.627C-20.5719 174.252 -20.4157 174.825 -20.1032 175.346C-19.6865 175.763 -19.2177 175.971 -18.6969 175.971H-9.16566C-6.56149 177.95 -5.25941 180.607 -5.25941 183.94C-5.25941 187.377 -6.56149 189.93 -9.16566 191.596L-49.7907 190.659L-91.0407 191.596C-93.3323 190.138 -94.4782 187.586 -94.4782 183.94C-94.4782 180.294 -93.3323 177.638 -91.0407 175.971H-81.6657C-80.2073 175.971 -79.4782 175.19 -79.4782 173.627L-79.4782 41.5962C-79.4782 40.0337 -80.2073 39.2524 -81.6657 39.2524H-91.0407C-93.3323 37.5858 -94.4782 34.9295 -94.4782 31.2837C-94.4782 27.9504 -93.3323 25.3983 -91.0407 23.6274L-49.7907 24.5649L-9.16566 23.6274C-6.56149 25.6066 -5.25941 28.1587 -5.25941 31.2837C-5.25941 34.617 -6.56149 37.2733 -9.16566 39.2524H-18.6969C-19.2177 39.2524 -19.6865 39.5129 -20.1032 40.0337C-20.4157 40.4504 -20.5719 40.9712 -20.5719 41.5962L-20.5719 97.5337H-10.7282C-4.16566 97.5337 0.678094 95.242 3.80309 90.6587C7.03226 85.9712 10.001 77.6899 12.7093 65.8149L13.8031 60.9712L15.5218 53.0024C18.2302 40.7108 22.0843 32.1691 27.0843 27.3774C32.1885 22.4816 39.4281 20.0337 48.8031 20.0337C59.9489 20.0337 68.2302 22.8462 73.6468 28.4712C79.0635 34.0962 81.7718 41.1274 81.7718 49.5649C81.7718 69.7733 73.6468 79.8774 57.3968 79.8774C50.626 79.8774 45.2093 78.0024 41.1468 74.2524C37.1885 70.3983 35.3656 65.4504 35.6781 59.4087C35.7823 55.3462 37.3448 50.9712 40.3656 46.2837C43.3864 41.5962 44.9489 38.3149 45.0531 36.4399C45.1573 34.9816 44.7927 33.7837 43.9593 32.8462C43.2302 31.8045 42.2927 31.2837 41.1468 31.2837C35.9385 31.2837 31.876 38.2108 28.9593 52.0649C28.9593 51.8566 28.5948 53.5233 27.8656 57.0649C27.1364 60.5024 26.4073 63.992 25.6781 67.5337C24.9489 70.9712 24.6364 72.6379 24.7406 72.5337C22.6573 81.1795 20.5218 87.5858 18.3343 91.7524C16.251 95.8149 13.4906 98.9399 10.0531 101.127C9.74059 101.232 9.42809 101.388 9.11559 101.596C8.80309 101.7 8.59476 101.805 8.49059 101.909C8.38643 101.909 8.23018 102.013 8.02184 102.221C7.91768 102.325 7.86559 102.482 7.86559 102.69C7.86559 102.794 7.86559 103.002 7.86559 103.315C7.86559 104.148 8.38643 104.565 9.42809 104.565C26.3031 105.607 38.8552 108.367 47.0843 112.846C55.3135 117.221 60.2614 125.138 61.9281 136.596C63.8031 147.638 65.001 157.221 65.5218 165.346C65.8343 173.263 67.7093 177.221 71.1468 177.221C74.8968 177.221 77.6573 173.68 79.4281 166.596C81.1989 159.513 81.9802 151.544 81.7718 142.69C81.3552 137.377 82.8656 134.721 86.3031 134.721C88.3864 134.721 90.1573 135.867 91.6156 138.159C93.1781 140.45 93.9593 143.211 93.9593 146.44C93.9593 179.148 81.3552 195.502 56.1468 195.502Z" fill="#F2C40F"/>
</g>
</svg>
