<svg width="1920" height="1075" viewBox="0 0 1920 1075" fill="none" xmlns="http://www.w3.org/2000/svg">
<path d="M281.5 209.5C211.401 159.708 143.599 106.792 73.5 57" stroke="#F2C40F" stroke-width="61"/>
<path d="M1619 209.5C1689.1 159.708 1756.9 106.792 1827 57" stroke="#F2C40F" stroke-width="61"/>
<rect x="246" y="181" width="1409" height="875" fill="#F2C40F"/>
<path d="M1394 294.77C1401.16 264.422 1417.89 241.115 1444.19 224.852C1470.48 208.589 1498.72 204.013 1528.88 211.125C1559.23 218.281 1582.53 235.008 1598.8 261.307C1615.06 287.605 1619.62 315.929 1612.46 346.278C1605.35 376.441 1588.64 399.655 1562.34 415.918C1536.04 432.182 1507.72 436.736 1477.37 429.58C1447.21 422.468 1423.99 405.763 1407.73 379.464C1391.47 353.165 1386.89 324.934 1394 294.77Z" fill="#F2310F"/>
<rect x="457" y="450" width="977" height="521" fill="#2C2929" fill-opacity="0.29"/>
<mask id="mask0_63_856" style="mask-type:alpha" maskUnits="userSpaceOnUse" x="1199" y="592" width="202" height="360">
<path d="M1373.34 675.903C1374.32 613.894 1355.32 951.75 1358.01 923.265" stroke="#F2C40F" stroke-width="54"/>
<path d="M1304.66 651.474C1305.64 589.464 1286.64 927.32 1289.33 898.836" stroke="#F2C40F" stroke-width="54"/>
<path d="M1241.68 626.885C1242.66 564.875 1223.67 902.731 1226.35 874.247" stroke="#F2C40F" stroke-width="54"/>
</mask>
<g mask="url(#mask0_63_856)">
<rect x="1159.94" y="543.717" width="430.511" height="107.628" transform="rotate(22.0821 1159.94 543.717)" fill="#2C2929"/>
<rect x="1119.48" y="643.45" width="430.511" height="105.849" transform="rotate(22.0821 1119.48 643.45)" fill="#F2310F"/>
<rect x="1079.68" y="741.535" width="430.511" height="107.628" transform="rotate(22.0821 1079.68 741.535)" fill="#F2C40F"/>
</g>
<mask id="mask1_63_856" style="mask-type:alpha" maskUnits="userSpaceOnUse" x="529" y="704" width="345" height="248">
<path d="M573.95 812.096C554.082 846.191 616.909 743.898 659.374 744.776C724.499 746.122 633.395 883.669 693.828 907.978C752.964 931.766 846.952 794.439 831.546 820.372" stroke="#F2C40F" stroke-width="81"/>
</mask>
<g mask="url(#mask1_63_856)">
<rect x="509.969" y="676.972" width="424.958" height="83.4113" transform="rotate(9.37665 509.969 676.972)" fill="#EFEFEF"/>
<rect x="496.38" y="759.269" width="424.958" height="83.4113" transform="rotate(9.37665 496.38 759.269)" fill="#424ADE"/>
<rect x="482.79" y="841.565" width="424.958" height="83.4113" transform="rotate(9.37665 482.79 841.565)" fill="#F2310F"/>
</g>
<mask id="mask2_63_856" style="mask-type:alpha" maskUnits="userSpaceOnUse" x="468" y="522" width="251" height="166">
<path d="M492.986 626.837C488.367 659.373 504.707 560.746 537.737 548.09C588.392 528.68 561.309 663.377 615.555 663.152C668.637 662.932 698.012 527.499 694.272 552.338" stroke="#F2C40F" stroke-width="48"/>
</mask>
<g mask="url(#mask2_63_856)">
<rect x="401.21" y="542.702" width="353.895" height="153.772" transform="rotate(-12.7735 401.21 542.702)" fill="#F2310F"/>
<rect x="435.386" y="693.455" width="353.895" height="53.8104" transform="rotate(-12.7735 435.386 693.455)" fill="#246226"/>
<rect x="450" y="510.936" width="17.7994" height="232.622" transform="rotate(-12.7735 450 510.936)" fill="#EFEFEF"/>
</g>
<mask id="mask3_63_856" style="mask-type:alpha" maskUnits="userSpaceOnUse" x="723" y="485" width="251" height="268">
<path d="M929.835 512.913C930.331 495.139 962.246 597.793 942.606 627.296C923.366 656.197 840.343 516.344 849.439 566.314C858.534 616.283 877.811 644.643 876.679 685.205C875.546 725.767 798.172 621.896 762.284 600.369C724.652 577.796 775.733 755.82 776.636 723.462" stroke="#F2C40F" stroke-width="50"/>
</mask>
<g mask="url(#mask3_63_856)">
<rect x="679.19" y="527.882" width="403.691" height="79.2368" transform="rotate(-9.95509 679.19 527.882)" fill="#F2310F"/>
<rect x="692.888" y="605.925" width="403.691" height="79.2368" transform="rotate(-9.95509 692.888 605.925)" fill="#424ADE"/>
<rect x="706.586" y="683.969" width="403.691" height="79.2368" transform="rotate(-9.95509 706.586 683.969)" fill="#F2C40F"/>
</g>
<mask id="mask4_63_856" style="mask-type:alpha" maskUnits="userSpaceOnUse" x="894" y="675" width="265" height="268">
<path d="M1130.48 738.205L943.462 704.834L918.295 882.014L1109.94 929.069L1130.48 738.205Z" fill="#F2C40F"/>
<path d="M999.924 715.738L993.822 691.494L999.924 715.738ZM1113.6 733.34L1124.79 710.982L1113.6 733.34ZM1126.59 789.616L1108.15 772.727L1126.59 789.616ZM1121.19 812.168L1097.61 820.493L1121.19 812.168ZM1121.6 835.345L1145.25 843.464L1121.6 835.345ZM1115.28 857.797L1090.87 852.403L1115.28 857.797ZM1092.39 914.27L1102.25 891.295L1092.39 914.27ZM1023.09 907.169L1014.71 883.613L1023.09 907.169ZM934.741 881.157L934.101 906.149L934.741 881.157ZM923.754 872.418L898.86 870.115L923.754 872.418ZM920.93 851.852L896.966 858.975L920.93 851.852ZM920.716 828.591L896.801 821.307L920.716 828.591ZM955.768 701.33L962.613 725.375C962.651 725.365 962.347 725.453 961.774 725.454C961.181 725.454 960.531 725.358 959.915 725.164C958.633 724.759 958.593 724.294 959.62 725.393L977.884 708.322L996.148 691.251C990.636 685.353 983.64 680.225 974.986 677.489C966.153 674.697 957.23 674.921 948.924 677.286L955.768 701.33ZM977.884 708.322L959.62 725.393C971.327 737.918 987.66 744.604 1006.03 739.981L999.924 715.738L993.822 691.494C993.812 691.496 994.107 691.424 994.636 691.438C995.181 691.453 995.753 691.554 996.271 691.728C997.345 692.09 997.246 692.425 996.148 691.251L977.884 708.322ZM999.924 715.738L1006.03 739.981C1013.74 738.04 1021.39 736.338 1028.99 734.872L1024.25 710.325L1019.52 685.777C1010.98 687.424 1002.42 689.33 993.822 691.494L999.924 715.738ZM1024.25 710.325L1028.99 734.872C1029.79 734.717 1030.09 734.799 1030.14 734.812C1030.22 734.831 1030.75 734.958 1031.78 735.722L1046.67 715.638L1061.56 695.554C1049.32 686.484 1034.78 682.832 1019.52 685.777L1024.25 710.325ZM1046.67 715.638L1031.78 735.722C1040.12 741.901 1048.9 747.007 1058.13 750.903L1067.85 727.869L1077.57 704.836C1072.31 702.619 1066.98 699.571 1061.56 695.554L1046.67 715.638ZM1067.85 727.869L1058.13 750.903C1070.07 755.942 1082.7 757.139 1095.35 754.795L1090.79 730.214L1086.24 705.632C1082.78 706.274 1080.11 705.908 1077.57 704.836L1067.85 727.869ZM1090.79 730.214L1095.35 754.795C1098.2 754.267 1100.26 754.619 1102.41 755.698L1113.6 733.34L1124.79 710.982C1112.64 704.907 1099.5 703.174 1086.24 705.632L1090.79 730.214ZM1113.6 733.34L1102.41 755.698C1104.04 756.512 1104.06 756.821 1103.47 756.162C1103.14 755.798 1102.66 755.183 1102.21 754.297C1101.75 753.397 1101.41 752.386 1101.21 751.331L1125.81 746.849L1150.4 742.366C1147.45 726.165 1135.65 716.418 1124.79 710.982L1113.6 733.34ZM1125.81 746.849L1101.21 751.331C1102.57 758.754 1105.08 766.998 1108.33 775.738L1131.76 767.04L1155.2 758.342C1152.48 751.019 1151.03 745.802 1150.4 742.366L1125.81 746.849ZM1131.76 767.04L1108.33 775.738C1108.35 775.803 1108.24 775.532 1108.2 774.979C1108.15 774.406 1108.19 773.756 1108.34 773.121C1108.64 771.789 1109.12 771.671 1108.15 772.727L1126.59 789.616L1145.02 806.505C1150.48 800.542 1155.04 793.152 1157.07 784.294C1159.14 775.269 1158.19 766.408 1155.2 758.342L1131.76 767.04ZM1126.59 789.616L1108.15 772.727C1102.73 778.649 1098.19 785.957 1096.1 794.696C1093.97 803.607 1094.76 812.411 1097.61 820.493L1121.19 812.168L1144.76 803.842C1144.74 803.792 1144.84 804.061 1144.88 804.593C1144.91 805.144 1144.87 805.755 1144.73 806.339C1144.43 807.562 1144.02 807.601 1145.02 806.505L1126.59 789.616ZM1121.19 812.168L1097.61 820.493C1098.73 823.654 1098.53 825.568 1097.96 827.227L1121.6 835.345L1145.25 843.464C1149.79 830.25 1149.31 816.713 1144.76 803.842L1121.19 812.168ZM1121.6 835.345L1097.96 827.227C1095.11 835.539 1092.74 843.932 1090.87 852.403L1115.28 857.797L1139.69 863.191C1141.15 856.599 1143 850.024 1145.25 843.464L1121.6 835.345ZM1115.28 857.797L1090.87 852.403C1089.45 858.798 1087.58 865.181 1085.22 871.557L1108.67 880.219L1132.12 888.881C1135.25 880.425 1137.77 871.86 1139.69 863.191L1115.28 857.797ZM1108.67 880.219L1085.22 871.557C1078.59 889.524 1084.55 906.321 1094.13 919.001L1114.07 903.933L1134.02 888.865C1132.38 886.687 1132.26 885.797 1132.34 886.158C1132.39 886.372 1132.46 886.811 1132.42 887.402C1132.39 887.998 1132.26 888.513 1132.12 888.881L1108.67 880.219ZM1114.07 903.933L1094.13 919.001C1095.1 920.294 1095.2 920.631 1094.97 920.143C1094.87 919.931 1093.44 916.993 1093.68 912.345C1093.99 906.445 1096.91 900.436 1102.11 896.485C1106.25 893.341 1109.99 892.915 1110.5 892.856L1113.34 917.694L1116.19 942.532C1120.11 942.083 1126.44 940.791 1132.35 936.305C1139.32 931.012 1143.18 923.185 1143.61 914.991C1143.98 908.051 1141.85 902.343 1140.22 898.886C1138.47 895.153 1136.22 891.769 1134.02 888.865L1114.07 903.933ZM1113.34 917.694L1110.5 892.856C1108.54 893.081 1105.93 892.872 1102.25 891.295L1092.39 914.27L1082.54 937.246C1093.14 941.795 1104.5 943.87 1116.19 942.532L1113.34 917.694ZM1092.39 914.27L1102.25 891.295C1091.33 886.613 1079.77 884.746 1067.94 885.553L1069.64 910.495L1071.34 935.437C1075.56 935.15 1079.17 935.8 1082.54 937.246L1092.39 914.27ZM1069.64 910.495L1067.94 885.553C1063.55 885.851 1059.76 885.209 1056.25 883.778L1046.83 906.936L1037.41 930.094C1048.25 934.502 1059.66 936.232 1071.34 935.437L1069.64 910.495ZM1046.83 906.936L1056.25 883.778C1042.37 878.134 1028.01 878.885 1014.71 883.613L1023.09 907.169L1031.46 930.725C1035.46 929.304 1036.93 929.9 1037.41 930.094L1046.83 906.936ZM1023.09 907.169L1014.71 883.613C1013.94 883.886 1013.45 883.983 1013.22 884.017C1012.99 884.05 1012.99 884.027 1013.14 884.042C1013.31 884.057 1013.51 884.1 1013.7 884.168C1013.88 884.234 1013.92 884.275 1013.8 884.195L999.936 905.001L986.075 925.806C1000.32 935.294 1016.45 936.059 1031.46 930.725L1023.09 907.169ZM999.936 905.001L1013.8 884.195C1000.5 875.335 985.318 873.518 970.482 877.569L977.067 901.686L983.652 925.803C984.358 925.611 984.84 925.545 985.124 925.524C985.401 925.503 985.527 925.521 985.544 925.524C985.558 925.526 985.564 925.526 985.599 925.539C985.637 925.554 985.794 925.619 986.075 925.806L999.936 905.001ZM977.067 901.686L970.482 877.569C970.481 877.569 970.928 877.449 971.726 877.474C972.557 877.499 973.474 877.674 974.348 878.013C976.143 878.709 976.351 879.511 975.403 878.253L955.442 893.305L935.48 908.357C940.488 914.997 947.277 921.145 956.28 924.634C965.528 928.218 974.987 928.169 983.652 925.803L977.067 901.686ZM955.442 893.305L975.403 878.253C966.167 866.005 952.78 856.611 935.381 856.166L934.741 881.157L934.101 906.149C933.984 906.146 933.772 906.123 933.524 906.052C933.278 905.981 933.144 905.905 933.147 905.907C933.17 905.92 934.032 906.436 935.48 908.357L955.442 893.305ZM934.741 881.157L935.381 856.166C933.55 856.119 937.224 855.717 941.673 859.257C944.234 861.294 946.374 864.136 947.61 867.495C948.775 870.661 948.78 873.295 948.648 874.72L923.754 872.418L898.86 870.115C898.009 879.322 900.685 890.542 910.548 898.387C918.66 904.84 928.087 905.995 934.101 906.149L934.741 881.157ZM923.754 872.418L948.648 874.72C949.569 864.761 947.799 854.505 944.894 844.73L920.93 851.852L896.966 858.975C898.867 865.369 898.98 868.823 898.86 870.115L923.754 872.418ZM920.93 851.852L944.894 844.73C943.762 840.92 943.925 838.195 944.632 835.875L920.716 828.591L896.801 821.307C892.986 833.832 893.292 846.614 896.966 858.975L920.93 851.852ZM920.716 828.591L944.632 835.875C947.797 825.483 948.98 814.782 948.2 803.931L923.264 805.722L898.329 807.513C898.673 812.309 898.157 816.854 896.801 821.307L920.716 828.591ZM923.264 805.722L948.2 803.931C947.966 800.675 948.533 797.574 950.197 794.204L927.782 783.133L905.367 772.062C899.884 783.164 897.439 795.122 898.329 807.513L923.264 805.722ZM927.782 783.133L950.197 794.204C954.593 785.303 957.916 776.094 960.086 766.6L935.714 761.029L911.343 755.458C910.084 760.964 908.118 766.491 905.367 772.062L927.782 783.133ZM935.714 761.029L960.086 766.6C961.758 759.285 963.515 751.983 965.358 744.692L941.12 738.566L916.882 732.44C914.946 740.099 913.1 747.772 911.343 755.458L935.714 761.029ZM941.12 738.566L965.358 744.692C967.834 734.893 968.869 724.936 968.404 714.899L943.431 716.054L918.458 717.209C918.69 722.237 918.184 727.288 916.882 732.44L941.12 738.566ZM943.431 716.054L968.404 714.899C968.232 711.176 968.136 708.604 968.102 707.043C968.084 706.193 968.092 705.995 968.087 706.17C968.085 706.245 968.079 706.431 968.063 706.694C968.05 706.917 968.014 707.446 967.925 708.142C967.882 708.476 967.648 710.446 966.832 712.854C966.497 713.843 965.382 717.052 962.7 720.408C959.874 723.946 951.984 731.295 939.669 729.546L943.185 704.794L946.701 680.043C934.375 678.292 926.474 685.647 923.637 689.198C920.945 692.568 919.819 695.797 919.475 696.814C918.641 699.277 918.389 701.333 918.331 701.781C918.151 703.187 918.117 704.386 918.106 704.797C918.076 705.904 918.092 707.11 918.114 708.136C918.162 710.329 918.281 713.399 918.458 717.209L943.431 716.054ZM943.185 704.794L939.669 729.546C943.085 730.031 945.874 729.652 945.933 729.645C946.718 729.559 947.337 729.454 947.625 729.403C948.243 729.293 948.746 729.181 948.968 729.131C949.477 729.015 949.967 728.891 950.314 728.802C951.064 728.608 952.021 728.35 953.104 728.051C955.31 727.444 958.494 726.548 962.613 725.375L955.768 701.33L948.924 677.286C944.839 678.449 941.823 679.297 939.834 679.845C938.821 680.124 938.181 680.295 937.836 680.384C937.636 680.435 937.704 680.415 937.916 680.367C937.99 680.351 938.376 680.263 938.908 680.168C939.153 680.125 939.737 680.025 940.495 679.942C940.876 679.9 941.524 679.838 942.333 679.81C942.749 679.795 943.31 679.786 943.973 679.807C944.61 679.827 945.559 679.881 946.701 680.043L943.185 704.794Z" fill="#F2C40F"/>
</mask>
<g mask="url(#mask4_63_856)">
<rect x="885.747" y="635.201" width="94.7266" height="313.882" fill="#F2310F"/>
<rect x="980.474" y="635.201" width="94.7266" height="313.882" fill="#EFEFEF"/>
<rect x="1075.2" y="635.201" width="94.7266" height="313.882" fill="#246226"/>
<path d="M953.555 724.337L955.999 723.811L953.555 724.337ZM951.484 742.839L949.001 742.546L951.484 742.839ZM949.682 761.383L947.325 760.55L949.682 761.383ZM945.307 770.113L943.216 768.742L945.307 770.113ZM943.77 788.698L941.334 789.256L943.77 788.698ZM940.785 807.057L938.727 805.638L940.785 807.057ZM934.168 843.675L931.679 843.918L934.168 843.675ZM934.572 853.15L932.073 853.117L934.572 853.15ZM956.773 879.552L956.386 877.083L956.773 879.552ZM973.848 887.491L973.463 889.961L973.848 887.491ZM982.856 889.817L981.995 892.165L982.856 889.817ZM992.589 889.606L991.787 887.239L992.589 889.606ZM1001.61 891.884L1003.47 890.216L1001.61 891.884ZM1019.75 896.086L1021.17 894.026L1019.75 896.086ZM1054.66 909.322L1055.16 906.873L1054.66 909.322ZM1063.54 912.094L1062.56 914.393L1063.54 912.094ZM1072.91 913.164L1072.53 910.693L1072.91 913.164ZM1090.99 917.577L1090.06 919.898L1090.99 917.577ZM1100.1 878.278L1102.23 879.583L1100.1 878.278ZM1103.96 850.645L1101.53 851.244L1103.96 850.645ZM1104.93 832.017L1107.18 833.091L1104.93 832.017ZM1107.65 804.238L1105.21 803.728L1107.65 804.238ZM1109.31 795.074L1111.78 795.451L1109.31 795.074ZM1113.69 776.883L1111.21 777.224L1113.69 776.883ZM1116.08 767.814L1114.04 766.368L1116.08 767.814ZM1116.62 749.131L1118.85 750.263L1116.62 749.131ZM1115.47 743.253L1116.46 740.961L1115.47 743.253ZM1107.81 739.296L1106.55 741.458L1107.81 739.296ZM1098.9 736.371L1099.14 733.882L1098.9 736.371ZM1071.14 733.015L1071.55 735.48L1071.14 733.015ZM1061.77 732.493L1062.49 730.098L1061.77 732.493ZM1052.9 729.37L1051.96 731.687L1052.9 729.37ZM1025.3 725.165L1026.69 723.085L1025.3 725.165ZM1007.56 718.85L1008.88 716.725L1007.56 718.85ZM979.725 715.915L978.899 718.275L979.725 715.915ZM961.249 713.518L960.896 711.043L961.249 713.518ZM954.449 715.064L952.161 714.055C950.646 717.491 950.305 721.121 951.111 724.863L953.555 724.337L955.999 723.811C955.407 721.061 955.662 718.508 956.736 716.073L954.449 715.064ZM953.555 724.337L951.111 724.863C951.729 727.734 951.65 730.442 950.912 733.026L953.316 733.712L955.72 734.399C956.698 730.975 956.778 727.433 955.999 723.811L953.555 724.337ZM953.316 733.712L950.912 733.026C950.018 736.157 949.381 739.331 949.001 742.546L951.484 742.839L953.967 743.132C954.315 740.185 954.899 737.274 955.72 734.399L953.316 733.712ZM951.484 742.839L949.001 742.546C948.623 745.754 948.489 748.997 948.599 752.275L951.098 752.191L953.597 752.107C953.494 749.077 953.618 746.085 953.967 743.132L951.484 742.839ZM951.098 752.191L948.599 752.275C948.695 755.118 948.271 757.871 947.325 760.55L949.682 761.383L952.039 762.215C953.194 758.947 953.713 755.572 953.597 752.107L951.098 752.191ZM949.682 761.383L947.325 760.55C946.346 763.32 944.981 766.05 943.216 768.742L945.307 770.113L947.397 771.484C949.365 768.482 950.917 765.393 952.039 762.215L949.682 761.383ZM945.307 770.113L943.216 768.742C941.099 771.97 940.023 775.452 940.08 779.138L942.579 779.1L945.079 779.061C945.039 776.458 945.781 773.948 947.397 771.484L945.307 770.113ZM942.579 779.1L940.08 779.138C940.131 782.469 940.551 785.842 941.334 789.256L943.77 788.698L946.207 788.14C945.498 785.046 945.125 782.021 945.079 779.061L942.579 779.1ZM943.77 788.698L941.334 789.256C942.019 792.246 942.173 795.114 941.822 797.878L944.302 798.193L946.782 798.509C947.213 795.119 947.014 791.658 946.207 788.14L943.77 788.698ZM944.302 798.193L941.822 797.878C941.486 800.516 940.479 803.098 938.727 805.638L940.785 807.057L942.843 808.476C944.998 805.351 946.335 802.023 946.782 798.509L944.302 798.193ZM940.785 807.057L938.727 805.638C936.477 808.902 935.437 812.467 935.727 816.261L938.22 816.07L940.713 815.879C940.517 813.321 941.187 810.879 942.843 808.476L940.785 807.057ZM938.22 816.07L935.727 816.261C935.939 819.025 935.489 821.671 934.367 824.236L936.657 825.238L938.947 826.241C940.396 822.931 940.988 819.465 940.713 815.879L938.22 816.07ZM936.657 825.238L934.367 824.236C932.984 827.396 932.101 830.651 931.73 833.994L934.214 834.27L936.699 834.546C937.013 831.721 937.759 828.954 938.947 826.241L936.657 825.238ZM934.214 834.27L931.73 833.994C931.367 837.256 931.352 840.565 931.679 843.918L934.168 843.675L936.656 843.432C936.361 840.413 936.376 837.452 936.699 834.546L934.214 834.27ZM934.168 843.675L931.679 843.918C931.982 847.014 932.113 850.081 932.073 853.117L934.572 853.15L937.072 853.184C937.115 849.958 936.976 846.707 936.656 843.432L934.168 843.675ZM934.572 853.15L932.073 853.117C932.033 856.111 931.748 859.064 931.219 861.977L933.679 862.423L936.139 862.87C936.718 859.681 937.029 856.452 937.072 853.184L934.572 853.15ZM933.679 862.423L931.219 861.977C930.922 863.612 930.783 865.106 930.861 866.411C930.938 867.687 931.236 869.024 932.043 870.111L934.051 868.621L936.059 867.132C936.063 867.138 935.899 866.902 935.852 866.111C935.806 865.35 935.882 864.286 936.139 862.87L933.679 862.423ZM934.051 868.621L932.043 870.111C933.246 871.732 935.58 873.178 938.412 874.55L939.502 872.3L940.592 870.05C937.759 868.678 936.46 867.673 936.059 867.132L934.051 868.621ZM939.502 872.3L938.412 874.55C941.091 875.847 943.695 877.445 946.226 879.35L947.73 877.352L949.233 875.355C946.457 873.266 943.577 871.496 940.592 870.05L939.502 872.3ZM947.73 877.352L946.226 879.35C949.437 881.766 953.139 882.654 957.161 882.022L956.773 879.552L956.386 877.083C953.656 877.511 951.328 876.932 949.233 875.355L947.73 877.352ZM956.773 879.552L957.161 882.022C959.652 881.631 961.753 882.355 963.689 884.457L965.528 882.763L967.366 881.069C964.382 877.83 960.646 876.414 956.386 877.083L956.773 879.552ZM965.528 882.763L963.689 884.457C966.468 887.472 969.73 889.379 973.463 889.961L973.848 887.491L974.234 885.02C971.793 884.64 969.509 883.394 967.366 881.069L965.528 882.763ZM973.848 887.491L973.463 889.961C976.389 890.417 979.232 891.152 981.995 892.165L982.856 889.817L983.716 887.47C980.643 886.344 977.482 885.527 974.234 885.02L973.848 887.491ZM982.856 889.817L981.995 892.165C985.557 893.47 989.4 893.327 993.392 891.974L992.589 889.606L991.787 887.239C988.637 888.306 985.992 888.304 983.716 887.47L982.856 889.817ZM992.589 889.606L993.392 891.974C994.82 891.49 995.966 891.453 996.911 891.692C997.849 891.929 998.797 892.49 999.748 893.552L1001.61 891.884L1003.47 890.216C1001.98 888.55 1000.2 887.366 998.135 886.844C996.072 886.323 993.929 886.512 991.787 887.239L992.589 889.606ZM1001.61 891.884L999.748 893.552C1001.22 895.192 1002.94 896.392 1004.92 897.008C1006.91 897.626 1009 897.606 1011.11 897.065L1010.49 894.643L1009.88 892.221C1008.51 892.57 1007.38 892.535 1006.41 892.233C1005.43 891.93 1004.45 891.306 1003.47 890.216L1001.61 891.884ZM1010.49 894.643L1011.11 897.065C1013.97 896.334 1016.3 896.746 1018.34 898.147L1019.75 896.086L1021.17 894.026C1017.82 891.722 1013.98 891.172 1009.88 892.221L1010.49 894.643ZM1019.75 896.086L1018.34 898.147C1021.13 900.064 1023.99 901.748 1026.93 903.196L1028.04 900.954L1029.14 898.712C1026.43 897.374 1023.77 895.812 1021.17 894.026L1019.75 896.086ZM1028.04 900.954L1026.93 903.196C1030.07 904.743 1033.4 905.603 1036.92 905.773L1037.04 903.276L1037.17 900.779C1034.32 900.641 1031.66 899.953 1029.14 898.712L1028.04 900.954ZM1037.04 903.276L1036.92 905.773C1039.7 905.908 1042.27 906.679 1044.68 908.101L1045.95 905.948L1047.22 903.795C1044.12 901.963 1040.75 900.953 1037.17 900.779L1037.04 903.276ZM1045.95 905.948L1044.68 908.101C1047.67 909.865 1050.83 911.092 1054.16 911.772L1054.66 909.322L1055.16 906.873C1052.39 906.308 1049.75 905.285 1047.22 903.795L1045.95 905.948ZM1054.66 909.322L1054.16 911.772C1057.04 912.36 1059.84 913.234 1062.56 914.393L1063.54 912.094L1064.52 909.794C1061.49 908.503 1058.37 907.529 1055.16 906.873L1054.66 909.322ZM1063.54 912.094L1062.56 914.393C1065.9 915.817 1069.5 916.21 1073.28 915.636L1072.91 913.164L1072.53 910.693C1069.58 911.141 1066.93 910.82 1064.52 909.794L1063.54 912.094ZM1072.91 913.164L1073.28 915.636C1076.26 915.185 1078.94 915.473 1081.39 916.443L1082.31 914.119L1083.23 911.794C1079.88 910.469 1076.3 910.121 1072.53 910.693L1072.91 913.164ZM1082.31 914.119L1081.39 916.443C1084.28 917.589 1087.17 918.741 1090.06 919.898L1090.99 917.577L1091.92 915.256C1089.02 914.097 1086.13 912.943 1083.23 911.794L1082.31 914.119ZM1090.99 917.577L1090.06 919.898C1091.74 920.568 1093.76 920.962 1095.56 919.995C1097.43 918.99 1098.12 917.036 1098.34 915.264L1095.85 914.966L1093.37 914.668C1093.24 915.795 1092.94 915.725 1093.19 915.591C1093.28 915.542 1093.29 915.584 1093.08 915.57C1092.86 915.556 1092.48 915.482 1091.92 915.256L1090.99 917.577ZM1095.85 914.966L1098.34 915.264C1098.68 912.416 1099.12 909.488 1099.66 906.478L1097.2 906.035L1094.74 905.592C1094.18 908.692 1093.73 911.718 1093.37 914.668L1095.85 914.966ZM1097.2 906.035L1099.66 906.478C1100.17 903.637 1101.05 900.831 1102.32 898.058L1100.04 897.023L1097.76 895.988C1096.34 899.121 1095.33 902.324 1094.74 905.592L1097.2 906.035ZM1100.04 897.023L1102.32 898.058C1104 894.352 1103.82 890.446 1102.01 886.558L1099.75 887.609L1097.48 888.661C1098.75 891.417 1098.77 893.788 1097.76 895.988L1100.04 897.023ZM1099.75 887.609L1102.01 886.558C1100.79 883.924 1100.93 881.705 1102.23 879.583L1100.1 878.278L1097.96 876.973C1095.71 880.648 1095.62 884.649 1097.48 888.661L1099.75 887.609ZM1100.1 878.278L1102.23 879.583C1104.36 876.103 1104.91 872.322 1103.83 868.407L1101.42 869.071L1099.01 869.736C1099.71 872.301 1099.38 874.657 1097.96 876.973L1100.1 878.278ZM1101.42 869.071L1103.83 868.407C1103.11 865.816 1103.42 863.435 1104.78 861.106L1102.62 859.849L1100.45 858.591C1098.42 862.08 1097.93 865.847 1099.01 869.736L1101.42 869.071ZM1102.62 859.849L1104.78 861.106C1106.79 857.645 1107.34 853.912 1106.39 850.046L1103.96 850.645L1101.53 851.244C1102.17 853.833 1101.83 856.236 1100.45 858.591L1102.62 859.849ZM1103.96 850.645L1106.39 850.046C1105.64 847.007 1105.28 844.038 1105.29 841.136L1102.79 841.12L1100.29 841.104C1100.27 844.447 1100.69 847.828 1101.53 851.244L1103.96 850.645ZM1102.79 841.12L1105.29 841.136C1105.31 838.396 1105.93 835.721 1107.18 833.091L1104.93 832.017L1102.67 830.943C1101.12 834.204 1100.32 837.599 1100.29 841.104L1102.79 841.12ZM1104.93 832.017L1107.18 833.091C1108.75 829.791 1109.48 826.342 1109.32 822.776L1106.82 822.884L1104.33 822.992C1104.44 825.712 1103.9 828.352 1102.67 830.943L1104.93 832.017ZM1106.82 822.884L1109.32 822.776C1109.19 819.676 1109.13 816.587 1109.16 813.509L1106.66 813.487L1104.16 813.465C1104.13 816.631 1104.19 819.806 1104.33 822.992L1106.82 822.884ZM1106.66 813.487L1109.16 813.509C1109.19 810.551 1109.5 807.632 1110.1 804.749L1107.65 804.238L1105.21 803.728C1104.54 806.933 1104.19 810.18 1104.16 813.465L1106.66 813.487ZM1107.65 804.238L1110.1 804.749C1110.75 801.661 1111.31 798.561 1111.78 795.451L1109.31 795.074L1106.84 794.698C1106.38 797.718 1105.83 800.728 1105.21 803.728L1107.65 804.238ZM1109.31 795.074L1111.78 795.451C1112.21 792.652 1113.08 789.893 1114.42 787.169L1112.18 786.066L1109.93 784.963C1108.38 788.119 1107.34 791.366 1106.84 794.698L1109.31 795.074ZM1112.18 786.066L1114.42 787.169C1116.08 783.791 1116.67 780.228 1116.17 776.543L1113.69 776.883L1111.21 777.224C1111.58 779.901 1111.16 782.46 1109.93 784.963L1112.18 786.066ZM1113.69 776.883L1116.17 776.543C1115.82 774.052 1116.42 771.659 1118.12 769.259L1116.08 767.814L1114.04 766.368C1111.68 769.699 1110.68 773.352 1111.21 777.224L1113.69 776.883ZM1116.08 767.814L1118.12 769.259C1120.7 765.613 1120.96 761.548 1119.02 757.453L1116.76 758.524L1114.5 759.596C1115.71 762.156 1115.52 764.284 1114.04 766.368L1116.08 767.814ZM1116.76 758.524L1119.02 757.453C1117.72 754.729 1117.76 752.419 1118.85 750.263L1116.62 749.131L1114.39 747.999C1112.51 751.713 1112.63 755.664 1114.5 759.596L1116.76 758.524ZM1116.62 749.131L1118.85 750.263C1119.7 748.595 1120.26 746.761 1119.9 744.978C1119.52 743 1118.15 741.694 1116.46 740.961L1115.47 743.253L1114.47 745.545C1114.78 745.682 1114.91 745.801 1114.95 745.845C1114.98 745.875 1114.99 745.892 1115 745.944C1115.03 746.12 1115.04 746.734 1114.39 747.999L1116.62 749.131ZM1115.47 743.253L1116.46 740.961C1114.32 740.025 1111.85 738.755 1109.07 737.135L1107.81 739.296L1106.55 741.458C1109.45 743.144 1112.1 744.512 1114.47 745.545L1115.47 743.253ZM1107.81 739.296L1109.07 737.135C1105.93 735.311 1102.62 734.216 1099.14 733.882L1098.9 736.371L1098.66 738.859C1101.38 739.12 1104 739.975 1106.55 741.458L1107.81 739.296ZM1098.9 736.371L1099.14 733.882C1096.21 733.601 1093.34 733.023 1090.52 732.147L1089.78 734.534L1089.04 736.921C1092.18 737.899 1095.39 738.546 1098.66 738.859L1098.9 736.371ZM1089.78 734.534L1090.52 732.147C1087.39 731.171 1084.18 730.515 1080.92 730.182L1080.67 732.669L1080.41 735.156C1083.34 735.456 1086.22 736.044 1089.04 736.921L1089.78 734.534ZM1080.67 732.669L1080.92 730.182C1077.59 729.842 1074.19 729.968 1070.73 730.549L1071.14 733.015L1071.55 735.48C1074.6 734.969 1077.56 734.864 1080.41 735.156L1080.67 732.669ZM1071.14 733.015L1070.73 730.549C1067.82 731.036 1065.09 730.876 1062.49 730.098L1061.77 732.493L1061.06 734.888C1064.43 735.898 1067.94 736.086 1071.55 735.48L1071.14 733.015ZM1061.77 732.493L1062.49 730.098C1059.58 729.227 1056.7 728.213 1053.84 727.053L1052.9 729.37L1051.96 731.687C1054.96 732.904 1057.99 733.972 1061.06 734.888L1061.77 732.493ZM1052.9 729.37L1053.84 727.053C1050.81 725.825 1047.74 724.806 1044.62 723.998L1043.99 726.418L1043.36 728.838C1046.26 729.59 1049.13 730.539 1051.96 731.687L1052.9 729.37ZM1043.99 726.418L1044.62 723.998C1041.15 723.096 1037.53 723.187 1033.83 724.197L1034.49 726.609L1035.15 729.02C1038.1 728.215 1040.82 728.178 1043.36 728.838L1043.99 726.418ZM1034.49 726.609L1033.83 724.197C1031.19 724.919 1028.87 724.543 1026.69 723.085L1025.3 725.165L1023.91 727.244C1027.33 729.527 1031.15 730.113 1035.15 729.02L1034.49 726.609ZM1025.3 725.165L1026.69 723.085C1023.57 721.005 1020.23 719.766 1016.69 719.428L1016.45 721.917L1016.21 724.405C1018.87 724.658 1021.43 725.584 1023.91 727.244L1025.3 725.165ZM1016.45 721.917L1016.69 719.428C1014 719.172 1011.4 718.285 1008.88 716.725L1007.56 718.85L1006.25 720.976C1009.38 722.913 1012.7 724.071 1016.21 724.405L1016.45 721.917ZM1007.56 718.85L1008.88 716.725C1005.85 714.85 1002.7 713.491 999.416 712.669L998.808 715.093L998.2 717.518C1000.94 718.207 1003.63 719.353 1006.25 720.976L1007.56 718.85ZM998.808 715.093L999.416 712.669C995.865 711.778 992.172 712.048 988.408 713.353L989.227 715.715L990.046 718.077C993.032 717.042 995.727 716.898 998.2 717.518L998.808 715.093ZM989.227 715.715L988.408 713.353C985.488 714.365 982.905 714.38 980.551 713.556L979.725 715.915L978.899 718.275C982.463 719.523 986.215 719.405 990.046 718.077L989.227 715.715ZM979.725 715.915L980.551 713.556C977.459 712.473 974.312 711.663 971.112 711.127L970.699 713.593L970.286 716.058C973.202 716.547 976.073 717.285 978.899 718.275L979.725 715.915ZM970.699 713.593L971.112 711.127C967.787 710.57 964.378 710.546 960.896 711.043L961.249 713.518L961.603 715.993C964.604 715.565 967.495 715.591 970.286 716.058L970.699 713.593ZM961.249 713.518L960.896 711.043C959.341 711.265 958.497 711.233 958.146 711.155C957.985 711.119 958.168 711.123 958.417 711.361C958.742 711.671 958.889 712.096 958.889 712.44L956.389 712.436L953.889 712.433C953.888 713.369 954.237 714.283 954.966 714.979C955.62 715.603 956.411 715.891 957.06 716.035C958.329 716.318 959.916 716.234 961.603 715.993L961.249 713.518ZM956.389 712.436L958.889 712.44C958.889 712.214 958.877 711.871 958.79 711.506C958.743 711.308 958.485 710.223 957.346 709.679C955.999 709.036 954.89 709.77 954.624 709.968C954.268 710.234 954.024 710.545 953.894 710.721C953.379 711.417 952.791 712.628 952.161 714.055L954.449 715.064L956.736 716.073C957.401 714.565 957.784 713.869 957.916 713.69C957.948 713.647 957.845 713.804 957.61 713.979C957.465 714.086 956.457 714.795 955.191 714.191C954.132 713.685 953.935 712.703 953.928 712.672C953.88 712.475 953.889 712.363 953.889 712.433L956.389 712.436Z" fill="#FFF5DA"/>
</g>
<mask id="mask5_63_856" style="mask-type:alpha" maskUnits="userSpaceOnUse" x="992" y="478" width="210" height="187">
<path d="M1148.35 484.266L1003.26 518.194L1040.05 653.654L1192.72 628.151L1148.35 484.266Z" fill="#F2C40F"/>
<path d="M1017.12 513.826L1012.91 523.444L1017.12 513.826ZM1044.87 505.231L1047.28 495.011L1044.87 505.231ZM1073.63 500.951L1074.24 490.468L1073.63 500.951ZM1092.2 495.513L1085.5 487.43L1092.2 495.513ZM1111.56 493.439L1104.99 485.251L1111.56 493.439ZM1152.2 493.948L1142.66 489.579L1152.2 493.948ZM1153.72 513.697L1145.1 519.694L1153.72 513.697ZM1157.36 522.683L1167.74 521.077L1157.36 522.683ZM1175.85 577.636L1186.05 575.158L1175.85 577.636ZM1180.53 586.301L1188.36 579.306L1180.53 586.301ZM1191.17 623.456L1201.42 621.211L1191.17 623.456ZM1178.43 629.879L1182 639.754L1178.43 629.879ZM1169.45 634.773L1163.21 626.334L1169.45 634.773ZM1149.5 632.561L1149.07 643.052L1149.5 632.561ZM1120.88 637.158L1120.8 626.659L1120.88 637.158ZM1032.11 631.132L1024.54 638.406L1032.11 631.132ZM1026.84 622.552L1016.83 625.709L1026.84 622.552ZM1025.65 612.866L1036.14 613.403L1025.65 612.866ZM1018.21 564.837L1010.66 572.132L1018.21 564.837ZM1010.69 556.869L1002.97 563.983L1010.69 556.869ZM1007.43 514.8L1014.06 522.94C1014.07 522.93 1013.97 523.014 1013.75 523.11C1013.52 523.208 1013.25 523.279 1012.98 523.306C1012.42 523.363 1012.33 523.19 1012.91 523.444L1017.12 513.826L1021.33 504.208C1018.23 502.848 1014.68 502.031 1010.89 502.412C1007.01 502.8 1003.61 504.368 1000.8 506.659L1007.43 514.8ZM1017.12 513.826L1012.91 523.444C1019.5 526.333 1026.92 526.201 1033.23 521.369L1026.86 513.029L1020.48 504.688C1020.47 504.691 1020.58 504.614 1020.78 504.531C1020.99 504.447 1021.23 504.391 1021.46 504.372C1021.94 504.333 1021.95 504.479 1021.33 504.208L1017.12 513.826ZM1026.86 513.029L1033.23 521.369C1035.89 519.34 1038.56 517.413 1041.25 515.586L1035.34 506.902L1029.44 498.218C1026.42 500.269 1023.43 502.427 1020.48 504.688L1026.86 513.029ZM1035.34 506.902L1041.25 515.586C1041.53 515.393 1041.66 515.376 1041.68 515.372C1041.71 515.366 1041.94 515.327 1042.46 515.451L1044.87 505.231L1047.28 495.011C1041.06 493.543 1034.84 494.547 1029.44 498.218L1035.34 506.902ZM1044.87 505.231L1042.46 515.451C1046.71 516.451 1050.94 516.964 1055.15 516.934L1055.08 506.434L1055 495.934C1052.61 495.951 1050.04 495.662 1047.28 495.011L1044.87 505.231ZM1055.08 506.434L1055.15 516.934C1060.59 516.896 1065.66 515.261 1070.15 512.257L1064.32 503.53L1058.48 494.803C1057.25 495.625 1056.16 495.926 1055 495.934L1055.08 506.434ZM1064.32 503.53L1070.15 512.257C1071.17 511.581 1072.02 511.375 1073.03 511.433L1073.63 500.951L1074.24 490.468C1068.55 490.14 1063.19 491.653 1058.48 494.803L1064.32 503.53ZM1073.63 500.951L1073.03 511.433C1077.37 511.684 1081.66 511.318 1085.84 510.302L1083.36 500.099L1080.87 489.897C1078.8 490.402 1076.6 490.604 1074.24 490.468L1073.63 500.951ZM1083.36 500.099L1085.84 510.302C1090.69 509.122 1095.05 506.79 1098.91 503.596L1092.2 495.513L1085.5 487.43C1083.81 488.829 1082.28 489.555 1080.87 489.897L1083.36 500.099ZM1092.2 495.513L1098.91 503.596C1098.93 503.577 1098.84 503.657 1098.62 503.752C1098.4 503.85 1098.14 503.924 1097.87 503.955C1097.3 504.018 1097.18 503.845 1097.74 504.081L1101.87 494.43L1106.01 484.779C1102.88 483.441 1099.32 482.66 1095.53 483.085C1091.66 483.518 1088.28 485.124 1085.5 487.43L1092.2 495.513ZM1101.87 494.43L1097.74 504.081C1100.84 505.41 1104.36 506.193 1108.12 505.809C1111.95 505.417 1115.33 503.881 1118.13 501.627L1111.56 493.439L1104.99 485.251C1104.97 485.265 1105.06 485.188 1105.27 485.1C1105.48 485.01 1105.73 484.943 1105.98 484.918C1106.51 484.864 1106.58 485.025 1106.01 484.779L1101.87 494.43ZM1111.56 493.439L1118.13 501.627C1119.23 500.746 1120.02 500.56 1120.75 500.556L1120.69 490.056L1120.62 479.556C1114.76 479.593 1109.46 481.662 1104.99 485.251L1111.56 493.439ZM1120.69 490.056L1120.75 500.556C1124.45 500.533 1128.1 500.306 1131.72 499.871L1130.47 489.446L1129.22 479.021C1126.4 479.359 1123.54 479.538 1120.62 479.556L1120.69 490.056ZM1130.47 489.446L1131.72 499.871C1134.45 499.544 1137.24 499.402 1140.1 499.45L1140.27 488.951L1140.45 478.453C1136.66 478.389 1132.92 478.577 1129.22 479.021L1130.47 489.446ZM1140.27 488.951L1140.1 499.45C1143.81 499.513 1147.49 499.363 1151.13 498.996L1150.07 488.549L1149.02 478.102C1146.23 478.384 1143.37 478.502 1140.45 478.453L1140.27 488.951ZM1150.07 488.549L1151.13 498.996C1151.11 498.998 1149.94 499.143 1148.32 498.533C1146.29 497.771 1144.26 496.068 1143.25 493.509C1142.42 491.403 1142.7 489.763 1142.76 489.447C1142.84 489.036 1142.9 489.037 1142.66 489.579L1152.2 493.948L1161.75 498.316C1162.4 496.896 1163.05 495.202 1163.4 493.359C1163.73 491.613 1163.97 488.808 1162.79 485.803C1161.42 482.344 1158.72 480.006 1155.71 478.876C1153.11 477.897 1150.65 477.938 1149.02 478.102L1150.07 488.549ZM1152.2 493.948L1142.66 489.579C1140.29 494.74 1138.99 500.352 1139.76 506.093L1150.17 504.684L1160.57 503.274C1160.48 502.547 1160.52 501.001 1161.75 498.316L1152.2 493.948ZM1150.17 504.684L1139.76 506.093C1140.43 511.036 1142.26 515.604 1145.1 519.694L1153.72 513.697L1162.34 507.7C1161.33 506.242 1160.78 504.8 1160.57 503.274L1150.17 504.684ZM1153.72 513.697L1145.1 519.694C1146.16 521.21 1146.74 522.713 1146.99 524.289L1157.36 522.683L1167.74 521.077C1166.99 516.221 1165.15 511.734 1162.34 507.7L1153.72 513.697ZM1157.36 522.683L1146.99 524.289C1147.95 530.507 1151.32 535.516 1155.89 539.288L1162.57 531.185L1169.25 523.083C1167.88 521.95 1167.77 521.291 1167.74 521.077L1157.36 522.683ZM1162.57 531.185L1155.89 539.288C1156.16 539.506 1156.3 539.661 1156.36 539.739C1156.42 539.813 1156.42 539.821 1156.39 539.761C1156.36 539.698 1156.33 539.615 1156.31 539.533C1156.3 539.454 1156.3 539.432 1156.3 539.492L1166.79 539.994L1177.28 540.496C1177.62 533.317 1174.41 527.338 1169.25 523.083L1162.57 531.185ZM1166.79 539.994L1156.3 539.492C1155.98 546.196 1158.6 552.057 1163.27 556.528L1170.53 548.949L1177.8 541.37C1177.58 541.157 1177.45 540.997 1177.38 540.9C1177.31 540.804 1177.29 540.755 1177.29 540.748C1177.29 540.743 1177.29 540.741 1177.28 540.725C1177.28 540.708 1177.27 540.638 1177.28 540.496L1166.79 539.994ZM1170.53 548.949L1163.27 556.528C1163.27 556.528 1163.13 556.393 1162.96 556.1C1162.79 555.795 1162.66 555.427 1162.59 555.039C1162.45 554.242 1162.7 553.994 1162.45 554.607L1172.18 558.549L1181.91 562.491C1183.23 559.253 1183.97 555.48 1183.29 551.483C1182.58 547.378 1180.52 543.981 1177.8 541.37L1170.53 548.949ZM1172.18 558.549L1162.45 554.607C1160.03 560.579 1159.54 567.429 1163.13 573.794L1172.27 568.629L1181.42 563.464C1181.44 563.507 1181.48 563.589 1181.51 563.693C1181.53 563.797 1181.54 563.862 1181.54 563.86C1181.54 563.849 1181.53 563.427 1181.91 562.491L1172.18 558.549ZM1172.27 568.629L1163.13 573.794C1164.29 575.84 1165.12 577.94 1165.65 580.114L1175.85 577.636L1186.05 575.158C1185.06 571.062 1183.5 567.158 1181.42 563.464L1172.27 568.629ZM1175.85 577.636L1165.65 580.114C1166.85 585.087 1169.31 589.496 1172.7 593.296L1180.53 586.301L1188.36 579.306C1187.04 577.823 1186.37 576.454 1186.05 575.158L1175.85 577.636ZM1180.53 586.301L1172.7 593.296C1173.81 594.541 1174.24 595.606 1174.38 596.614L1184.77 595.101L1195.17 593.589C1194.37 588.147 1191.97 583.345 1188.36 579.306L1180.53 586.301ZM1184.77 595.101L1174.38 596.614C1175.04 601.129 1176.51 605.406 1178.75 609.39L1187.9 604.247L1197.05 599.103C1196.06 597.343 1195.45 595.524 1195.17 593.589L1184.77 595.101ZM1187.9 604.247L1178.75 609.39C1179.42 610.585 1179.76 611.865 1179.73 613.443L1190.23 613.638L1200.72 613.833C1200.82 608.633 1199.61 603.652 1197.05 599.103L1187.9 604.247ZM1190.23 613.638L1179.73 613.443C1179.65 617.612 1180.04 621.705 1180.91 625.701L1191.17 623.456L1201.42 621.211C1200.92 618.894 1200.68 616.442 1200.72 613.833L1190.23 613.638ZM1191.17 623.456L1180.91 625.701C1181.01 626.153 1180.27 623.568 1182.39 620.729C1183.46 619.289 1184.8 618.473 1185.88 618.07C1186.85 617.704 1187.53 617.701 1187.6 617.701L1187.63 628.201L1187.65 638.701C1190.63 638.695 1195.75 637.926 1199.21 633.291C1202.51 628.87 1202.02 623.917 1201.42 621.211L1191.17 623.456ZM1187.63 628.201L1187.6 617.701C1183.26 617.71 1178.99 618.511 1174.86 620.004L1178.43 629.879L1182 639.754C1184.02 639.023 1185.89 638.705 1187.65 638.701L1187.63 628.201ZM1178.43 629.879L1174.86 620.004C1170.73 621.496 1166.85 623.64 1163.21 626.334L1169.45 634.773L1175.7 643.213C1177.87 641.606 1179.97 640.487 1182 639.754L1178.43 629.879ZM1169.45 634.773L1163.21 626.334C1163.17 626.362 1163.25 626.295 1163.45 626.217C1163.67 626.136 1163.92 626.076 1164.19 626.059C1164.77 626.023 1164.89 626.202 1164.39 625.955L1159.76 635.381L1155.13 644.807C1158.19 646.305 1161.7 647.256 1165.51 647.018C1169.38 646.775 1172.82 645.348 1175.7 643.213L1169.45 634.773ZM1159.76 635.381L1164.39 625.955C1159.78 623.696 1154.94 622.275 1149.93 622.07L1149.5 632.561L1149.07 643.052C1150.63 643.116 1152.63 643.576 1155.13 644.807L1159.76 635.381ZM1149.5 632.561L1149.93 622.07C1143.7 621.815 1138.14 624.048 1133.56 627.853L1140.27 635.93L1146.97 644.008C1148.13 643.051 1148.72 643.038 1149.07 643.052L1149.5 632.561ZM1140.27 635.93L1133.56 627.853C1133.34 628.031 1133.21 628.11 1133.15 628.138C1133.11 628.163 1133.12 628.15 1133.19 628.133C1133.26 628.115 1133.32 628.109 1133.37 628.109C1133.41 628.109 1133.38 628.114 1133.26 628.086L1130.87 638.311L1128.48 648.535C1135.32 650.135 1141.78 648.323 1146.97 644.008L1140.27 635.93ZM1130.87 638.311L1133.26 628.086C1129.11 627.116 1124.95 626.626 1120.8 626.659L1120.88 637.158L1120.97 647.658C1123.34 647.639 1125.84 647.917 1128.48 648.535L1130.87 638.311ZM1120.88 637.158L1120.8 626.659C1115.11 626.704 1109.92 628.633 1105.43 631.919L1111.63 640.391L1117.83 648.864C1119.16 647.891 1120.14 647.665 1120.97 647.658L1120.88 637.158ZM1111.63 640.391L1105.43 631.919C1102.67 633.936 1099.9 635.847 1097.13 637.653L1102.85 646.457L1108.57 655.26C1111.68 653.237 1114.77 651.105 1117.83 648.864L1111.63 640.391ZM1102.85 646.457L1097.13 637.653C1096.03 638.365 1095.22 638.505 1094.38 638.431L1093.46 648.89L1092.54 659.35C1098.33 659.859 1103.78 658.376 1108.57 655.26L1102.85 646.457ZM1093.46 648.89L1094.38 638.431C1090.1 638.054 1085.86 638.271 1081.69 639.108L1083.75 649.403L1085.82 659.698C1087.96 659.268 1090.19 659.143 1092.54 659.35L1093.46 648.89ZM1083.75 649.403L1081.69 639.108C1080 639.447 1078.15 639.46 1076.05 639.03L1073.94 649.317L1071.84 659.604C1076.5 660.556 1081.19 660.627 1085.82 659.698L1083.75 649.403ZM1073.94 649.317L1076.05 639.03C1072.2 638.241 1068.35 637.732 1064.53 637.513L1063.93 647.996L1063.33 658.478C1066.1 658.637 1068.93 659.009 1071.84 659.604L1073.94 649.317ZM1063.93 647.996L1064.53 637.513C1058.82 637.185 1053.48 638.765 1048.79 641.867L1054.58 650.626L1060.36 659.386C1061.55 658.602 1062.45 658.428 1063.33 658.478L1063.93 647.996ZM1054.58 650.626L1048.79 641.867C1046.97 643.064 1045.31 643.684 1043.74 643.935L1045.4 654.304L1047.05 664.672C1051.84 663.906 1056.3 662.075 1060.36 659.386L1054.58 650.626ZM1045.4 654.304L1043.74 643.935C1044.14 643.871 1045.62 643.803 1047.2 644.856C1048.61 645.8 1048.88 646.84 1048.76 646.485L1038.84 649.935L1028.92 653.385C1029.99 656.451 1031.95 659.929 1035.55 662.33C1039.31 664.839 1043.47 665.244 1047.05 664.672L1045.4 654.304ZM1038.84 649.935L1048.76 646.485C1047.79 643.707 1047.2 641.128 1046.92 638.734L1036.49 639.952L1026.06 641.17C1026.54 645.244 1027.51 649.32 1028.92 653.385L1038.84 649.935ZM1036.49 639.952L1046.92 638.734C1046.24 632.938 1043.6 627.936 1039.68 623.857L1032.11 631.132L1024.54 638.406C1025.7 639.62 1025.98 640.499 1026.06 641.17L1036.49 639.952ZM1032.11 631.132L1039.68 623.857C1038.1 622.215 1037.28 620.725 1036.86 619.396L1026.84 622.552L1016.83 625.709C1018.35 630.526 1021.03 634.757 1024.54 638.406L1032.11 631.132ZM1026.84 622.552L1036.86 619.396C1036.28 617.576 1036.02 615.602 1036.14 613.403L1025.65 612.866L1015.16 612.33C1014.93 616.898 1015.46 621.382 1016.83 625.709L1026.84 622.552ZM1025.65 612.866L1036.14 613.403C1036.36 608.953 1035.91 604.579 1034.74 600.334L1024.62 603.136L1014.5 605.938C1015.04 607.9 1015.28 610.012 1015.16 612.33L1025.65 612.866ZM1024.62 603.136L1034.74 600.334C1034.21 598.44 1034 596.382 1034.15 594.097L1023.68 593.382L1013.2 592.666C1012.9 597.181 1013.31 601.626 1014.5 605.938L1024.62 603.136ZM1023.68 593.382L1034.15 594.097C1034.42 590.213 1034.41 586.372 1034.12 582.58L1023.65 583.379L1013.18 584.177C1013.39 586.923 1013.4 589.751 1013.2 592.666L1023.68 593.382ZM1023.65 583.379L1034.12 582.58C1033.86 579.134 1033.51 575.709 1033.08 572.305L1022.66 573.638L1012.25 574.971C1012.64 578.017 1012.95 581.085 1013.18 584.177L1023.65 583.379ZM1022.66 573.638L1033.08 572.305C1032.34 566.549 1029.67 561.589 1025.76 557.541L1018.21 564.837L1010.66 572.132C1011.86 573.37 1012.16 574.279 1012.25 574.971L1022.66 573.638ZM1018.21 564.837L1025.76 557.541C1023.27 554.957 1020.82 552.362 1018.42 549.755L1010.69 556.869L1002.97 563.983C1005.49 566.714 1008.05 569.43 1010.66 572.132L1018.21 564.837ZM1010.69 556.869L1018.42 549.755C1017.04 548.264 1016.44 546.97 1016.18 545.837L1005.94 548.15L995.699 550.462C996.863 555.617 999.427 560.135 1002.97 563.983L1010.69 556.869ZM1005.94 548.15L1016.18 545.837C1015.94 544.773 1015.91 543.257 1016.59 541.048L1006.55 537.975L996.506 534.903C994.955 539.971 994.519 545.238 995.699 550.462L1005.94 548.15ZM1006.55 537.975L1016.59 541.048C1018.35 535.286 1018.28 529.176 1015.45 523.452L1006.04 528.104L996.623 532.756C996.702 532.915 996.97 533.386 996.506 534.903L1006.55 537.975ZM1006.04 528.104L1015.45 523.452C1014.14 520.809 1013.76 519.477 1013.7 519.122L1003.37 520.995L993.035 522.868C993.622 526.108 995.021 529.515 996.623 532.756L1006.04 528.104ZM1003.37 520.995L1013.7 519.122C1013.63 518.73 1013.58 518.422 1013.54 518.188C1013.52 518.072 1013.51 517.984 1013.5 517.92C1013.49 517.854 1013.49 517.827 1013.49 517.832C1013.49 517.833 1013.5 517.902 1013.5 518.022C1013.51 518.122 1013.52 518.39 1013.51 518.759C1013.5 518.99 1013.48 519.939 1013.15 521.127C1012.98 521.72 1012.59 522.915 1011.7 524.212C1010.76 525.578 1008.9 527.543 1005.82 528.379L1003.07 518.246L1000.32 508.113C997.223 508.954 995.348 510.93 994.397 512.314C993.492 513.629 993.095 514.849 992.92 515.474C992.57 516.725 992.532 517.766 992.521 518.116C992.495 518.979 992.571 519.734 992.609 520.087C992.7 520.932 992.862 521.912 993.035 522.868L1003.37 520.995ZM1003.07 518.246L1005.82 528.379C1006.8 528.113 1007.52 527.761 1007.75 527.649C1008.07 527.49 1008.32 527.345 1008.46 527.259C1008.75 527.087 1008.98 526.933 1009.1 526.855C1009.34 526.687 1009.56 526.524 1009.71 526.416C1010.02 526.185 1010.38 525.899 1010.77 525.595C1011.56 524.972 1012.66 524.08 1014.06 522.94L1007.43 514.8L1000.8 506.659C999.418 507.782 998.408 508.596 997.743 509.122C997.401 509.392 997.207 509.542 997.121 509.606C997.067 509.647 997.132 509.596 997.263 509.507C997.32 509.468 997.502 509.345 997.756 509.194C997.882 509.119 998.118 508.983 998.426 508.83C998.585 508.752 998.81 508.645 999.088 508.531C999.349 508.424 999.775 508.261 1000.32 508.113L1003.07 518.246Z" fill="#F2C40F"/>
</mask>
<g mask="url(#mask5_63_856)">
<rect x="1202.63" y="440" width="74.2995" height="246.196" transform="rotate(81.7208 1202.63 440)" fill="#F2310F"/>
<rect x="1213.33" y="513.525" width="74.2995" height="246.196" transform="rotate(81.7208 1213.33 513.525)" fill="#EFEFEF"/>
<rect x="1224.03" y="587.05" width="74.2995" height="246.196" transform="rotate(81.7208 1224.03 587.05)" fill="#424ADE"/>
<path d="M1016.62 529.332L1018.25 528.173L1016.62 529.332ZM1019.41 536.297L1017.43 536.553L1019.41 536.297ZM1020.95 543.583L1022.87 543.014L1020.95 543.583ZM1034.36 601.592L1032.59 602.521L1034.36 601.592ZM1036.11 608.824L1034.11 608.812L1036.11 608.824ZM1048.86 640.122L1049.35 642.061L1048.86 640.122ZM1054.99 639.696L1054.9 641.694L1054.99 639.696ZM1062.63 640.807L1063.1 638.864L1062.63 640.807ZM1069.97 639.565L1071.04 641.257L1069.97 639.565ZM1092.38 638.862L1092.27 636.865L1092.38 638.862ZM1114.22 633.669L1113 632.085L1114.22 633.669ZM1129.11 632.761L1129.21 630.764L1129.11 632.761ZM1136.46 631.619L1137.16 633.493L1136.46 631.619ZM1151.32 630.493L1151.72 632.451L1151.32 630.493ZM1173.15 625.276L1173.09 623.277L1173.15 625.276ZM1177.19 623.147L1175.21 622.854L1177.19 623.147ZM1176.62 617.507L1174.67 617.975L1176.62 617.507ZM1174.9 610.259L1172.95 610.711L1174.9 610.259ZM1170.95 595.913L1172.28 594.423L1170.95 595.913ZM1168.25 588.945L1170.23 589.23L1168.25 588.945ZM1162.36 567.417L1163.95 566.209L1162.36 567.417ZM1157.18 553.422L1159.18 553.497L1157.18 553.422ZM1150.4 532.146L1152.36 531.747L1150.4 532.146ZM1145.07 502.714L1147.03 503.132L1145.07 502.714ZM1137.16 491.614L1138.1 489.847L1137.16 491.614ZM1124.34 493.873L1124.1 495.858L1124.34 493.873ZM1116.86 494.541L1116.25 492.636L1116.86 494.541ZM1109.58 496.074L1109.79 498.063L1109.58 496.074ZM1073.37 504.586L1073.06 502.609L1073.37 504.586ZM1066.45 507.73L1067.69 509.294L1066.45 507.73ZM1051.7 509.987L1052.32 511.891L1051.7 509.987ZM1014.35 522.235L1012.35 522.217C1012.32 525.221 1013.22 527.996 1014.99 530.491L1016.62 529.332L1018.25 528.173C1016.95 526.339 1016.33 524.382 1016.35 522.253L1014.35 522.235ZM1016.62 529.332L1014.99 530.491C1016.36 532.406 1017.15 534.42 1017.43 536.553L1019.41 536.297L1021.4 536.041C1021.03 533.217 1019.97 530.588 1018.25 528.173L1016.62 529.332ZM1019.41 536.297L1017.43 536.553C1017.76 539.137 1018.3 541.67 1019.03 544.153L1020.95 543.583L1022.87 543.014C1022.19 540.738 1021.7 538.414 1021.4 536.041L1019.41 536.297ZM1020.95 543.583L1019.03 544.153C1019.77 546.63 1020.7 549.056 1021.82 551.43L1023.62 550.578L1025.43 549.726C1024.4 547.532 1023.55 545.294 1022.87 543.014L1020.95 543.583ZM1023.62 550.578L1021.82 551.43C1022.78 553.488 1023.34 555.645 1023.49 557.914L1025.49 557.78L1027.49 557.647C1027.3 554.88 1026.62 552.236 1025.43 549.726L1023.62 550.578ZM1025.49 557.78L1023.49 557.914C1023.65 560.258 1023.51 562.697 1023.07 565.233L1025.04 565.579L1027.01 565.926C1027.5 563.098 1027.67 560.337 1027.49 557.647L1025.49 557.78ZM1025.04 565.579L1023.07 565.233C1022.53 568.275 1022.84 571.173 1024.05 573.864L1025.87 573.046L1027.7 572.227C1026.84 570.327 1026.6 568.247 1027.01 565.926L1025.04 565.579ZM1025.87 573.046L1024.05 573.864C1025.14 576.296 1026.51 578.642 1028.17 580.903L1029.78 579.723L1031.4 578.542C1029.9 576.493 1028.67 574.388 1027.7 572.227L1025.87 573.046ZM1029.78 579.723L1028.17 580.903C1029.62 582.884 1030.64 584.943 1031.25 587.085L1033.18 586.532L1035.1 585.98C1034.34 583.353 1033.1 580.872 1031.4 578.542L1029.78 579.723ZM1033.18 586.532L1031.25 587.085C1031.84 589.13 1031.92 591.345 1031.43 593.766L1033.39 594.158L1035.35 594.55C1035.95 591.572 1035.88 588.704 1035.1 585.98L1033.18 586.532ZM1033.39 594.158L1031.43 593.766C1030.81 596.876 1031.17 599.825 1032.59 602.521L1034.36 601.592L1036.13 600.664C1035.18 598.846 1034.9 596.839 1035.35 594.55L1033.39 594.158ZM1034.36 601.592L1032.59 602.521C1033.62 604.485 1034.12 606.572 1034.11 608.812L1036.11 608.824L1038.11 608.837C1038.13 605.947 1037.47 603.212 1036.13 600.664L1034.36 601.592ZM1036.11 608.824L1034.11 608.812C1034.09 611.571 1034.47 614.242 1035.26 616.816L1037.17 616.233L1039.08 615.651C1038.42 613.475 1038.09 611.207 1038.11 608.837L1036.11 608.824ZM1037.17 616.233L1035.26 616.816C1036.02 619.328 1037.05 621.765 1038.36 624.125L1040.11 623.16L1041.86 622.194C1040.69 620.069 1039.76 617.888 1039.08 615.651L1037.17 616.233ZM1040.11 623.16L1038.36 624.125C1039.56 626.305 1040.62 628.517 1041.55 630.761L1043.4 629.995L1045.25 629.229C1044.26 626.845 1043.13 624.5 1041.86 622.194L1040.11 623.16ZM1043.4 629.995L1041.55 630.761C1042.47 632.974 1043.2 635.233 1043.73 637.542L1045.68 637.092L1047.63 636.642C1047.04 634.116 1046.25 631.645 1045.25 629.229L1043.4 629.995ZM1045.68 637.092L1043.73 637.542C1044.04 638.896 1044.56 640.208 1045.51 641.112C1046.6 642.145 1047.99 642.408 1049.35 642.061L1048.86 640.122L1048.37 638.184C1048.23 638.22 1048.2 638.2 1048.24 638.209C1048.28 638.22 1048.3 638.242 1048.27 638.213C1048.16 638.107 1047.87 637.705 1047.63 636.642L1045.68 637.092ZM1048.86 640.122L1049.35 642.061C1050.66 641.731 1052.48 641.586 1054.9 641.694L1054.99 639.696L1055.07 637.698C1052.46 637.581 1050.2 637.72 1048.37 638.184L1048.86 640.122ZM1054.99 639.696L1054.9 641.694C1057.27 641.8 1059.69 642.151 1062.16 642.751L1062.63 640.807L1063.1 638.864C1060.4 638.207 1057.73 637.817 1055.07 637.698L1054.99 639.696ZM1062.63 640.807L1062.16 642.751C1065.28 643.511 1068.28 642.993 1071.04 641.257L1069.97 639.565L1068.9 637.872C1067.03 639.05 1065.14 639.36 1063.1 638.864L1062.63 640.807ZM1069.97 639.565L1071.04 641.257C1072.74 640.182 1074.52 640.05 1076.6 640.982L1077.42 639.156L1078.23 637.33C1075.02 635.893 1071.82 636.034 1068.9 637.872L1069.97 639.565ZM1077.42 639.156L1076.6 640.982C1079.6 642.32 1082.6 642.689 1085.53 641.937L1085.03 640L1084.53 638.062C1082.62 638.554 1080.54 638.361 1078.23 637.33L1077.42 639.156ZM1085.03 640L1085.53 641.937C1087.82 641.347 1090.14 640.988 1092.49 640.859L1092.38 638.862L1092.27 636.865C1089.66 637.008 1087.08 637.408 1084.53 638.062L1085.03 640ZM1092.38 638.862L1092.49 640.859C1095.52 640.692 1098.3 639.372 1100.81 637.115L1099.47 635.629L1098.13 634.143C1096.15 635.923 1094.21 636.758 1092.27 636.865L1092.38 638.862ZM1099.47 635.629L1100.81 637.115C1101.7 636.308 1102.54 635.919 1103.3 635.795C1104.07 635.673 1104.94 635.785 1105.98 636.265L1106.82 634.451L1107.66 632.636C1106.04 631.883 1104.36 631.576 1102.67 631.846C1100.99 632.115 1099.48 632.932 1098.13 634.143L1099.47 635.629ZM1106.82 634.451L1105.98 636.265C1107.58 637.006 1109.22 637.343 1110.87 637.169C1112.53 636.994 1114.06 636.32 1115.44 635.253L1114.22 633.669L1113 632.085C1112.11 632.773 1111.26 633.105 1110.45 633.191C1109.64 633.277 1108.72 633.128 1107.66 632.636L1106.82 634.451ZM1114.22 633.669L1115.44 635.253C1117.31 633.813 1119.15 633.379 1121.09 633.764L1121.48 631.802L1121.87 629.84C1118.68 629.207 1115.68 630.018 1113 632.085L1114.22 633.669ZM1121.48 631.802L1121.09 633.764C1123.75 634.291 1126.39 634.623 1129 634.759L1129.11 632.761L1129.21 630.764C1126.79 630.638 1124.35 630.331 1121.87 629.84L1121.48 631.802ZM1129.11 632.761L1129 634.759C1131.8 634.904 1134.52 634.48 1137.16 633.493L1136.46 631.619L1135.76 629.746C1133.63 630.543 1131.45 630.881 1129.21 630.764L1129.11 632.761ZM1136.46 631.619L1137.16 633.493C1139.24 632.715 1141.38 632.467 1143.6 632.75L1143.85 630.766L1144.1 628.782C1141.24 628.418 1138.45 628.74 1135.76 629.746L1136.46 631.619ZM1143.85 630.766L1143.6 632.75C1146.35 633.101 1149.07 633.003 1151.72 632.451L1151.32 630.493L1150.91 628.534C1148.7 628.994 1146.43 629.078 1144.1 628.782L1143.85 630.766ZM1151.32 630.493L1151.72 632.451C1154.03 631.973 1156.36 631.729 1158.73 631.722L1158.72 629.722L1158.71 627.722C1156.08 627.73 1153.48 628.001 1150.91 628.534L1151.32 630.493ZM1158.72 629.722L1158.73 631.722C1161.63 631.712 1164.4 630.864 1167 629.245L1165.94 627.547L1164.88 625.849C1162.85 627.113 1160.81 627.714 1158.71 627.722L1158.72 629.722ZM1165.94 627.547L1167 629.245C1169.04 627.972 1171.1 627.336 1173.21 627.275L1173.15 625.276L1173.09 623.277C1170.22 623.361 1167.47 624.239 1164.88 625.849L1165.94 627.547ZM1173.15 625.276L1173.21 627.275C1174.59 627.235 1175.9 627.019 1176.96 626.459C1178.12 625.847 1178.96 624.825 1179.17 623.44L1177.19 623.147L1175.21 622.854C1175.2 622.881 1175.2 622.862 1175.22 622.837C1175.24 622.818 1175.22 622.856 1175.1 622.921C1174.81 623.07 1174.21 623.245 1173.09 623.277L1173.15 625.276ZM1177.19 623.147L1179.17 623.44C1179.42 621.71 1179.16 619.531 1178.56 617.039L1176.62 617.507L1174.67 617.975C1175.23 620.31 1175.35 621.89 1175.21 622.854L1177.19 623.147ZM1176.62 617.507L1178.56 617.039C1177.98 614.631 1177.41 612.22 1176.85 609.806L1174.9 610.259L1172.95 610.711C1173.52 613.135 1174.09 615.556 1174.67 617.975L1176.62 617.507ZM1174.9 610.259L1176.85 609.806C1176.33 607.556 1176.09 605.216 1176.14 602.779L1174.14 602.738L1172.14 602.696C1172.08 605.45 1172.35 608.123 1172.95 610.711L1174.9 610.259ZM1174.14 602.738L1176.14 602.779C1176.21 599.522 1174.83 596.711 1172.28 594.423L1170.95 595.913L1169.61 597.403C1171.42 599.025 1172.18 600.763 1172.14 602.696L1174.14 602.738ZM1170.95 595.913L1172.28 594.423C1170.55 592.874 1169.95 591.2 1170.23 589.23L1168.25 588.945L1166.27 588.66C1165.78 592.072 1166.98 595.043 1169.61 597.403L1170.95 595.913ZM1168.25 588.945L1170.23 589.23C1170.7 585.999 1169.91 583.047 1167.87 580.511L1166.31 581.762L1164.75 583.012C1166.08 584.673 1166.58 586.51 1166.27 588.66L1168.25 588.945ZM1166.31 581.762L1167.87 580.511C1166.53 578.833 1166 576.986 1166.26 574.846L1164.28 574.605L1162.29 574.365C1161.9 577.57 1162.74 580.493 1164.75 583.012L1166.31 581.762ZM1164.28 574.605L1166.26 574.846C1166.65 571.666 1165.87 568.749 1163.95 566.209L1162.36 567.417L1160.76 568.624C1162.05 570.325 1162.56 572.2 1162.29 574.365L1164.28 574.605ZM1162.36 567.417L1163.95 566.209C1162.44 564.213 1161.24 562.145 1160.33 560.006L1158.49 560.785L1156.65 561.564C1157.69 564.027 1159.06 566.381 1160.76 568.624L1162.36 567.417ZM1158.49 560.785L1160.33 560.006C1159.48 557.987 1159.09 555.826 1159.18 553.497L1157.18 553.422L1155.18 553.346C1155.07 556.234 1155.55 558.981 1156.65 561.564L1158.49 560.785ZM1157.18 553.422L1159.18 553.497C1159.29 550.576 1158.73 547.813 1157.49 545.241L1155.68 546.11L1153.88 546.979C1154.83 548.941 1155.27 551.052 1155.18 553.346L1157.18 553.422ZM1155.68 546.11L1157.49 545.241C1156.41 543.006 1155.39 540.753 1154.44 538.482L1152.59 539.256L1150.75 540.031C1151.73 542.366 1152.77 544.682 1153.88 546.979L1155.68 546.11ZM1152.59 539.256L1154.44 538.482C1153.52 536.3 1152.83 534.055 1152.36 531.747L1150.4 532.146L1148.44 532.544C1148.96 535.111 1149.73 537.607 1150.75 540.031L1152.59 539.256ZM1150.4 532.146L1152.36 531.747C1151.86 529.274 1151.29 526.819 1150.65 524.384L1148.72 524.888L1146.78 525.393C1147.4 527.758 1147.95 530.142 1148.44 532.544L1150.4 532.146ZM1148.72 524.888L1150.65 524.384C1150.08 522.192 1149.85 519.888 1149.97 517.463L1147.98 517.361L1145.98 517.26C1145.84 520.07 1146.1 522.784 1146.78 525.393L1148.72 524.888ZM1147.98 517.361L1149.97 517.463C1150.13 514.455 1149.44 511.65 1147.9 509.102L1146.19 510.135L1144.47 511.169C1145.59 513.02 1146.09 515.032 1145.98 517.26L1147.98 517.361ZM1146.19 510.135L1147.9 509.102C1146.86 507.38 1146.54 505.433 1147.03 503.132L1145.07 502.714L1143.12 502.297C1142.44 505.491 1142.86 508.492 1144.47 511.169L1146.19 510.135ZM1145.07 502.714L1147.03 503.132C1147.78 499.635 1146.68 496.567 1143.96 494.172L1142.64 495.674L1141.31 497.176C1143.02 498.673 1143.54 500.298 1143.12 502.297L1145.07 502.714ZM1142.64 495.674L1143.96 494.172C1141.7 492.192 1139.74 490.717 1138.1 489.847L1137.16 491.614L1136.23 493.381C1137.46 494.032 1139.14 495.264 1141.31 497.176L1142.64 495.674ZM1137.16 491.614L1138.1 489.847C1135.76 488.606 1133.12 489.256 1130.64 490.675L1131.63 492.41L1132.63 494.145C1134.66 492.983 1135.7 493.102 1136.23 493.381L1137.16 491.614ZM1131.63 492.41L1130.64 490.675C1128.77 491.749 1126.77 492.152 1124.58 491.887L1124.34 493.873L1124.1 495.858C1127.13 496.225 1130 495.654 1132.63 494.145L1131.63 492.41ZM1124.34 493.873L1124.58 491.887C1121.7 491.539 1118.91 491.782 1116.25 492.636L1116.86 494.541L1117.48 496.445C1119.56 495.777 1121.76 495.575 1124.1 495.858L1124.34 493.873ZM1116.86 494.541L1116.25 492.636C1114.01 493.356 1111.72 493.838 1109.37 494.085L1109.58 496.074L1109.79 498.063C1112.41 497.788 1114.97 497.248 1117.48 496.445L1116.86 494.541ZM1109.58 496.074L1109.37 494.085C1106.76 494.359 1104.2 494.89 1101.7 495.676L1102.3 497.584L1102.9 499.492C1105.14 498.786 1107.44 498.31 1109.79 498.063L1109.58 496.074ZM1102.3 497.584L1101.7 495.676C1099.14 496.479 1096.68 497.647 1094.32 499.17L1095.4 500.851L1096.49 502.532C1098.57 501.192 1100.7 500.182 1102.9 499.492L1102.3 497.584ZM1095.4 500.851L1094.32 499.17C1092.34 500.446 1090.28 501.192 1088.13 501.442L1088.36 503.429L1088.59 505.416C1091.39 505.091 1094.02 504.119 1096.49 502.532L1095.4 500.851ZM1088.36 503.429L1088.13 501.442C1085.71 501.722 1083.27 501.888 1080.8 501.94L1080.85 503.94L1080.89 505.939C1083.48 505.885 1086.05 505.71 1088.59 505.416L1088.36 503.429ZM1080.85 503.94L1080.8 501.94C1078.19 501.996 1075.61 502.218 1073.06 502.609L1073.37 504.586L1073.67 506.563C1076.04 506.199 1078.45 505.991 1080.89 505.939L1080.85 503.94ZM1073.37 504.586L1073.06 502.609C1070.23 503.046 1067.6 504.255 1065.2 506.166L1066.45 507.73L1067.69 509.294C1069.61 507.769 1071.6 506.882 1073.67 506.563L1073.37 504.586ZM1066.45 507.73L1065.2 506.166C1063.48 507.533 1061.66 507.989 1059.6 507.608L1059.24 509.575L1058.87 511.542C1062.11 512.138 1065.1 511.364 1067.69 509.294L1066.45 507.73ZM1059.24 509.575L1059.6 507.608C1056.65 507.065 1053.8 507.211 1051.09 508.083L1051.7 509.987L1052.32 511.891C1054.35 511.237 1056.52 511.109 1058.87 511.542L1059.24 509.575ZM1051.7 509.987L1051.09 508.083C1049.03 508.745 1046.85 508.915 1044.5 508.565L1044.2 510.543L1043.91 512.521C1046.82 512.955 1049.63 512.754 1052.32 511.891L1051.7 509.987ZM1044.2 510.543L1044.5 508.565C1041.68 508.144 1038.93 508.144 1036.26 508.576L1036.58 510.55L1036.9 512.525C1039.14 512.163 1041.47 512.157 1043.91 512.521L1044.2 510.543ZM1036.58 510.55L1036.26 508.576C1033.37 509.044 1030.74 510.411 1028.39 512.559L1029.74 514.036L1031.09 515.513C1032.95 513.808 1034.89 512.851 1036.9 512.525L1036.58 510.55ZM1029.74 514.036L1028.39 512.559C1026.56 514.227 1024.67 515.054 1022.68 515.193L1022.82 517.188L1022.96 519.183C1025.97 518.973 1028.69 517.7 1031.09 515.513L1029.74 514.036ZM1022.82 517.188L1022.68 515.193C1020.12 515.371 1017.96 515.668 1016.25 516.107L1016.75 518.044L1017.25 519.98C1018.63 519.626 1020.52 519.353 1022.96 519.183L1022.82 517.188ZM1016.75 518.044L1016.25 516.107C1015.49 516.303 1014.95 516.43 1014.62 516.497C1014.44 516.533 1014.38 516.539 1014.39 516.538C1014.4 516.537 1014.43 516.535 1014.47 516.534C1014.5 516.533 1014.58 516.533 1014.69 516.545C1014.77 516.555 1015.01 516.586 1015.29 516.719C1015.57 516.854 1016.18 517.243 1016.36 518.075L1014.41 518.512L1012.46 518.948C1012.65 519.791 1013.27 520.188 1013.56 520.33C1013.86 520.47 1014.12 520.506 1014.22 520.519C1014.46 520.546 1014.66 520.53 1014.75 520.522C1014.96 520.503 1015.19 520.461 1015.4 520.419C1015.85 520.33 1016.47 520.181 1017.25 519.98L1016.75 518.044ZM1014.41 518.512L1016.36 518.075C1016.35 518.034 1016.32 517.883 1016.24 517.703C1016.2 517.618 1016.11 517.421 1015.93 517.212C1015.77 517.021 1015.33 516.578 1014.58 516.515C1013.78 516.447 1013.23 516.857 1012.99 517.095C1012.77 517.324 1012.65 517.552 1012.61 517.644C1012.51 517.842 1012.47 518.011 1012.46 518.052C1012.43 518.17 1012.42 518.266 1012.42 518.289C1012.42 518.329 1012.41 518.363 1012.41 518.385C1012.41 518.464 1012.4 518.554 1012.4 518.628C1012.39 518.791 1012.39 519.033 1012.38 519.345C1012.37 519.974 1012.36 520.932 1012.35 522.217L1014.35 522.235L1016.35 522.253C1016.36 520.971 1016.37 520.025 1016.38 519.413C1016.39 519.104 1016.39 518.892 1016.4 518.766C1016.4 518.695 1016.4 518.682 1016.4 518.699C1016.4 518.706 1016.4 518.727 1016.39 518.756C1016.39 518.769 1016.38 518.858 1016.36 518.97C1016.35 519.009 1016.31 519.176 1016.21 519.373C1016.17 519.464 1016.05 519.692 1015.83 519.92C1015.59 520.158 1015.04 520.568 1014.24 520.5C1013.49 520.437 1013.05 519.995 1012.89 519.803C1012.71 519.595 1012.62 519.398 1012.58 519.315C1012.5 519.136 1012.47 518.987 1012.46 518.948L1014.41 518.512Z" fill="#FFF5DA"/>
</g>
</svg>
