<svg width="290" height="293" viewBox="0 0 290 293" fill="none" xmlns="http://www.w3.org/2000/svg">
<circle cx="40.0805" cy="40.0805" r="40.0805" fill="#F2310F"/>
<mask id="mask0_235_4" style="mask-type:alpha" maskUnits="userSpaceOnUse" x="7" y="6" width="66" height="66">
<circle cx="40.0805" cy="38.8276" r="32.5654" fill="#E35151"/>
</mask>
<g mask="url(#mask0_235_4)">
<path d="M26.9408 266.752C24.6491 265.294 23.5033 262.742 23.5033 259.096C23.5033 255.45 24.6491 252.794 26.9408 251.127H43.347C44.8054 251.127 45.5345 250.346 45.5345 248.784V44.7212C45.5345 43.1587 44.8054 42.3774 43.347 42.3774H26.9408C24.6491 40.9191 23.5033 38.367 23.5033 34.7212C23.5033 31.0754 24.6491 28.4191 26.9408 26.7524L78.5033 28.3149L216.785 28.3149L267.878 26.7524C270.482 28.5233 271.785 31.1795 271.785 34.7212C271.785 38.367 270.482 40.9191 267.878 42.3774H251.941C250.482 42.3774 249.753 43.1587 249.753 44.7212V248.784C249.753 250.346 250.482 251.127 251.941 251.127H267.878C270.482 252.898 271.785 255.555 271.785 259.096C271.785 262.742 270.482 265.294 267.878 266.752L216.785 265.502L165.535 266.752C162.93 265.294 161.628 262.742 161.628 259.096C161.628 255.555 162.93 252.898 165.535 251.127L181.472 251.127C182.097 251.127 182.618 250.919 183.035 250.502C183.555 249.982 183.816 249.409 183.816 248.784V49.0962C183.816 47.6379 183.035 46.9087 181.472 46.9087H113.347C111.889 46.9087 111.16 47.6379 111.16 49.0962V248.784C111.16 250.346 111.889 251.127 113.347 251.127H129.753C132.253 252.794 133.503 255.45 133.503 259.096C133.503 262.846 132.253 265.398 129.753 266.752L78.5033 265.502L26.9408 266.752Z" fill="#F2C40F"/>
</g>
<circle cx="249.081" cy="252.081" r="40.0805" fill="#F2310F"/>
<mask id="mask1_235_4" style="mask-type:alpha" maskUnits="userSpaceOnUse" x="216" y="218" width="66" height="66">
<circle cx="249.081" cy="250.828" r="32.5654" fill="#E35151"/>
</mask>
<g mask="url(#mask1_235_4)">
<path d="M26.9407 266.752C24.649 265.294 23.5032 262.742 23.5032 259.096C23.5032 255.45 24.649 252.794 26.9407 251.127H43.3469C44.8053 251.127 45.5344 250.346 45.5344 248.784V44.7212C45.5344 43.1587 44.8053 42.3774 43.3469 42.3774H26.9407C24.649 40.9191 23.5032 38.367 23.5032 34.7212C23.5032 31.0754 24.649 28.4191 26.9407 26.7524L78.5032 28.3149L216.784 28.3149L267.878 26.7524C270.482 28.5233 271.784 31.1795 271.784 34.7212C271.784 38.367 270.482 40.9191 267.878 42.3774H251.941C250.482 42.3774 249.753 43.1587 249.753 44.7212V248.784C249.753 250.346 250.482 251.127 251.941 251.127H267.878C270.482 252.898 271.784 255.555 271.784 259.096C271.784 262.742 270.482 265.294 267.878 266.752L216.784 265.502L165.534 266.752C162.93 265.294 161.628 262.742 161.628 259.096C161.628 255.555 162.93 252.898 165.534 251.127L181.472 251.127C182.097 251.127 182.618 250.919 183.034 250.502C183.555 249.982 183.816 249.409 183.816 248.784V49.0962C183.816 47.6379 183.034 46.9087 181.472 46.9087H113.347C111.889 46.9087 111.159 47.6379 111.159 49.0962V248.784C111.159 250.346 111.889 251.127 113.347 251.127H129.753C132.253 252.794 133.503 255.45 133.503 259.096C133.503 262.846 132.253 265.398 129.753 266.752L78.5032 265.502L26.9407 266.752Z" fill="#F2C40F"/>
</g>
</svg>
