<svg width="563" height="731" viewBox="0 0 563 731" fill="none" xmlns="http://www.w3.org/2000/svg">
<path d="M164.699 244.56C163.221 249.549 160.029 253.461 155.125 256.294C150.221 259.128 145.21 259.956 140.093 258.777C134.975 257.598 131.033 254.613 128.264 249.822C125.528 245.086 124.944 240.236 126.511 235.27C128.078 230.305 131.313 226.405 136.218 223.571C141.122 220.737 146.088 219.898 151.116 221.053C156.145 222.208 160.027 225.153 162.763 229.888C165.532 234.68 166.177 239.57 164.699 244.56ZM213.741 216.223C212.263 221.212 209.072 225.124 204.168 227.958C199.263 230.791 194.253 231.619 189.135 230.44C184.018 229.261 180.075 226.276 177.307 221.485C174.571 216.75 173.986 211.899 175.553 206.933C177.12 201.968 180.356 198.068 185.26 195.234C190.164 192.401 195.131 191.561 200.159 192.716C205.187 193.871 209.07 196.816 211.806 201.551C214.574 206.343 215.219 211.233 213.741 216.223ZM262.784 187.886C261.306 192.875 258.115 196.787 253.21 199.621C248.306 202.454 243.295 203.282 238.178 202.103C233.061 200.924 229.118 197.939 226.349 193.148C223.613 188.413 223.029 183.562 224.596 178.597C226.163 173.631 229.399 169.731 234.303 166.897C239.207 164.064 244.173 163.224 249.202 164.379C254.23 165.534 258.112 168.479 260.848 173.214C263.617 178.006 264.262 182.896 262.784 187.886Z" fill="#2C2929"/>
<path d="M191.071 375.555C189.518 380.522 186.269 384.385 181.323 387.145C176.377 389.905 171.354 390.658 166.255 389.403C161.156 388.148 157.258 385.104 154.562 380.272C151.897 375.496 151.385 370.637 153.026 365.696C154.667 360.754 157.961 356.903 162.907 354.143C167.853 351.383 172.831 350.618 177.842 351.848C182.852 353.078 186.69 356.08 189.355 360.856C192.051 365.688 192.623 370.588 191.071 375.555ZM289.992 320.353C288.44 325.32 285.19 329.184 280.244 331.944C275.298 334.704 270.276 335.456 265.177 334.201C260.077 332.946 256.18 329.902 253.483 325.07C250.818 320.295 250.306 315.436 251.947 310.494C253.588 305.552 256.882 301.702 261.828 298.941C266.774 296.181 271.752 295.416 276.763 296.646C281.773 297.876 285.611 300.879 288.276 305.654C290.973 310.487 291.545 315.386 289.992 320.353ZM339.453 292.752C337.9 297.719 334.651 301.583 329.705 304.343C324.759 307.103 319.736 307.855 314.637 306.6C309.538 305.345 305.64 302.302 302.944 297.469C300.279 292.694 299.767 287.835 301.408 282.893C303.049 277.952 306.343 274.101 311.289 271.341C316.235 268.581 321.213 267.816 326.224 269.045C331.234 270.275 335.072 273.278 337.737 278.054C340.433 282.886 341.005 287.786 339.453 292.752Z" fill="#2C2929"/>
<path d="M240.532 347.954C238.979 352.921 235.73 356.784 230.784 359.544C225.838 362.305 220.815 363.057 215.716 361.802C210.617 360.547 206.719 357.503 204.022 352.671C201.357 347.895 200.846 343.037 202.487 338.095C204.128 333.153 207.421 329.302 212.367 326.542C217.313 323.782 222.292 323.017 227.302 324.247C232.313 325.477 236.15 328.48 238.815 333.255C241.512 338.087 242.084 342.987 240.532 347.954Z" fill="#F2C40F"/>
<path d="M172.35 320.65C170.797 325.617 167.548 329.48 162.602 332.24C157.656 335 152.633 335.753 147.534 334.498C142.435 333.243 138.537 330.199 135.841 325.367C133.176 320.591 132.664 315.733 134.305 310.791C135.946 305.849 139.24 301.998 144.186 299.238C149.132 296.478 154.11 295.713 159.12 296.943C164.131 298.173 167.969 301.176 170.634 305.951C173.33 310.783 173.902 315.683 172.35 320.65ZM221.81 293.049C220.258 298.016 217.009 301.88 212.063 304.64C207.117 307.4 202.094 308.152 196.995 306.897C191.896 305.642 187.998 302.598 185.301 297.766C182.636 292.991 182.124 288.132 183.766 283.19C185.407 278.248 188.7 274.398 193.646 271.637C198.592 268.877 203.571 268.112 208.581 269.342C213.592 270.572 217.429 273.575 220.094 278.35C222.791 283.183 223.363 288.082 221.81 293.049ZM271.271 265.448C269.719 270.415 266.469 274.279 261.523 277.039C256.577 279.799 251.555 280.551 246.456 279.296C241.356 278.041 237.459 274.998 234.762 270.165C232.097 265.39 231.585 260.531 233.226 255.589C234.867 250.648 238.161 246.797 243.107 244.037C248.053 241.277 253.031 240.512 258.042 241.741C263.052 242.971 266.89 245.974 269.555 250.75C272.252 255.582 272.824 260.482 271.271 265.448ZM320.732 237.848C319.179 242.815 315.93 246.678 310.984 249.438C306.038 252.198 301.015 252.951 295.916 251.696C290.817 250.441 286.919 247.397 284.223 242.565C281.558 237.789 281.046 232.93 282.687 227.989C284.328 223.047 287.621 219.196 292.568 216.436C297.514 213.676 302.492 212.911 307.502 214.141C312.513 215.371 316.351 218.373 319.016 223.149C321.712 227.981 322.284 232.881 320.732 237.848Z" fill="#2C2929"/>
<path d="M217.687 501.367C216.2 506.354 213.002 510.26 208.093 513.085C203.184 515.91 198.172 516.729 193.056 515.541C187.941 514.354 184.003 511.362 181.243 506.565C178.516 501.825 177.94 496.974 179.515 492.011C181.091 487.048 184.333 483.154 189.243 480.329C194.152 477.504 199.12 476.673 204.146 477.837C209.172 479 213.049 481.952 215.777 486.692C218.537 491.488 219.174 496.38 217.687 501.367ZM266.779 473.116C265.292 478.103 262.094 482.009 257.185 484.834C252.276 487.659 247.264 488.478 242.148 487.29C237.033 486.102 233.096 483.11 230.335 478.314C227.608 473.574 227.032 468.723 228.607 463.76C230.183 458.797 233.426 454.903 238.335 452.078C243.244 449.252 248.212 448.422 253.238 449.585C258.264 450.749 262.141 453.701 264.869 458.441C267.629 463.237 268.266 468.129 266.779 473.116Z" fill="#2C2929"/>
<path d="M315.871 444.865C314.384 449.851 311.186 453.758 306.277 456.583C301.368 459.408 296.356 460.226 291.241 459.039C286.125 457.851 282.188 454.859 279.427 450.063C276.7 445.323 276.124 440.472 277.699 435.509C279.275 430.546 282.518 426.651 287.427 423.826C292.336 421.001 297.304 420.171 302.33 421.334C307.356 422.498 311.233 425.45 313.961 430.19C316.721 434.986 317.358 439.878 315.871 444.865ZM364.963 416.613C363.476 421.6 360.278 425.506 355.369 428.331C350.46 431.157 345.448 431.975 340.333 430.788C335.217 429.6 331.28 426.608 328.519 421.812C325.792 417.072 325.216 412.22 326.791 407.257C328.367 402.294 331.61 398.4 336.519 395.575C341.428 392.75 346.396 391.919 351.422 393.083C356.448 394.247 360.325 397.198 363.053 401.938C365.813 406.735 366.45 411.626 364.963 416.613ZM414.055 388.362C412.568 393.349 409.37 397.255 404.461 400.08C399.552 402.905 394.54 403.724 389.425 402.536C384.309 401.349 380.372 398.357 377.612 393.56C374.884 388.821 374.308 383.969 375.884 379.006C377.459 374.043 380.702 370.149 385.611 367.324C390.52 364.499 395.488 363.668 400.514 364.832C405.541 365.995 409.418 368.947 412.145 373.687C414.905 378.484 415.542 383.375 414.055 388.362Z" fill="#F2C40F"/>
<path d="M199.612 445.204C198.125 450.191 194.927 454.097 190.018 456.922C185.108 459.747 180.096 460.566 174.981 459.378C169.866 458.191 165.928 455.199 163.168 450.402C160.44 445.662 159.864 440.811 161.44 435.848C163.016 430.885 166.258 426.991 171.167 424.166C176.076 421.341 181.044 420.51 186.07 421.674C191.097 422.837 194.974 425.789 197.702 430.529C200.462 435.325 201.098 440.217 199.612 445.204ZM346.888 360.45C345.401 365.437 342.203 369.343 337.294 372.168C332.385 374.993 327.372 375.812 322.257 374.625C317.142 373.437 313.204 370.445 310.444 365.649C307.716 360.909 307.14 356.057 308.716 351.094C310.292 346.131 313.534 342.237 318.443 339.412C323.353 336.587 328.32 335.756 333.347 336.92C338.373 338.084 342.25 341.035 344.978 345.775C347.738 350.572 348.375 355.463 346.888 360.45ZM395.98 332.199C394.493 337.186 391.295 341.092 386.386 343.917C381.477 346.742 376.464 347.561 371.349 346.373C366.234 345.186 362.296 342.194 359.536 337.397C356.808 332.657 356.232 327.806 357.808 322.843C359.384 317.88 362.626 313.986 367.535 311.161C372.445 308.336 377.412 307.505 382.439 308.669C387.465 309.832 391.342 312.784 394.07 317.524C396.83 322.32 397.467 327.212 395.98 332.199Z" fill="#2C2929"/>
<path d="M248.704 416.953C247.217 421.94 244.019 425.846 239.11 428.671C234.2 431.496 229.188 432.315 224.073 431.127C218.958 429.939 215.02 426.947 212.26 422.151C209.532 417.411 208.956 412.56 210.532 407.597C212.108 402.634 215.35 398.74 220.259 395.914C225.168 393.089 230.136 392.259 235.163 393.422C240.189 394.586 244.066 397.538 246.794 402.278C249.554 407.074 250.19 411.966 248.704 416.953ZM297.796 388.701C296.309 393.688 293.111 397.594 288.202 400.42C283.292 403.245 278.28 404.063 273.165 402.876C268.05 401.688 264.112 398.696 261.352 393.9C258.624 389.16 258.048 384.308 259.624 379.345C261.2 374.382 264.442 370.488 269.351 367.663C274.261 364.838 279.228 364.007 284.255 365.171C289.281 366.335 293.158 369.287 295.886 374.027C298.646 378.823 299.282 383.715 297.796 388.701Z" fill="#F2C40F"/>
<path d="M257.447 645.933C256.363 651.022 253.487 655.171 248.819 658.379C244.15 661.586 239.219 662.802 234.026 662.026C228.832 661.25 224.668 658.582 221.534 654.021C218.437 649.514 217.476 644.724 218.651 639.651C219.826 634.578 222.748 630.438 227.416 627.23C232.084 624.022 236.97 622.798 242.073 623.557C247.176 624.316 251.276 626.95 254.373 631.457C257.507 636.018 258.532 640.843 257.447 645.933ZM304.13 613.856C303.046 618.946 300.169 623.094 295.501 626.302C290.833 629.51 285.902 630.726 280.708 629.95C275.515 629.174 271.351 626.505 268.217 621.945C265.12 617.437 264.159 612.647 265.334 607.574C266.509 602.502 269.43 598.361 274.098 595.154C278.767 591.946 283.652 590.722 288.755 591.481C293.859 592.24 297.959 594.873 301.056 599.38C304.19 603.941 305.214 608.767 304.13 613.856ZM350.813 581.78C349.728 586.869 346.852 591.018 342.184 594.226C337.515 597.433 332.584 598.649 327.391 597.873C322.197 597.097 318.033 594.429 314.899 589.868C311.802 585.361 310.841 580.571 312.016 575.498C313.191 570.425 316.113 566.285 320.781 563.077C325.449 559.869 330.335 558.645 335.438 559.404C340.541 560.163 344.641 562.797 347.738 567.304C350.872 571.865 351.897 576.69 350.813 581.78ZM397.495 549.703C396.411 554.793 393.534 558.942 388.866 562.149C384.198 565.357 379.267 566.573 374.073 565.797C368.88 565.021 364.716 562.353 361.582 557.792C358.485 553.284 357.524 548.494 358.699 543.421C359.874 538.349 362.795 534.208 367.463 531.001C372.132 527.793 377.017 526.569 382.12 527.328C387.224 528.087 391.324 530.72 394.421 535.227C397.555 539.788 398.579 544.614 397.495 549.703ZM444.178 517.627C443.093 522.716 440.217 526.865 435.549 530.073C430.88 533.28 425.95 534.496 420.756 533.72C415.562 532.944 411.398 530.276 408.265 525.715C405.167 521.208 404.206 516.418 405.381 511.345C406.556 506.272 409.478 502.132 414.146 498.924C418.814 495.717 423.7 494.492 428.803 495.251C433.906 496.01 438.006 498.644 441.103 503.151C444.237 507.712 445.262 512.537 444.178 517.627ZM490.86 485.55C489.776 490.64 486.9 494.789 482.231 497.996C477.563 501.204 472.632 502.42 467.438 501.644C462.245 500.868 458.081 498.2 454.947 493.639C451.85 489.131 450.889 484.341 452.064 479.268C453.239 474.196 456.16 470.055 460.829 466.848C465.497 463.64 470.382 462.416 475.486 463.175C480.589 463.934 484.689 466.567 487.786 471.074C490.92 475.635 491.945 480.461 490.86 485.55Z" fill="#2C2929"/>
<path d="M231.745 575.291C230.474 580.337 227.446 584.377 222.663 587.41C217.879 590.443 212.907 591.476 207.745 590.509C202.584 589.542 198.521 586.721 195.558 582.048C192.63 577.429 191.846 572.607 193.208 567.581C194.569 562.555 197.642 558.525 202.425 555.492C207.209 552.459 212.136 551.416 217.208 552.363C222.279 553.31 226.279 556.093 229.208 560.712C232.171 565.385 233.017 570.245 231.745 575.291ZM470.923 423.64C469.651 428.686 466.624 432.725 461.84 435.758C457.057 438.791 452.084 439.824 446.923 438.857C441.761 437.89 437.699 435.07 434.735 430.396C431.807 425.777 431.023 420.955 432.385 415.929C433.746 410.903 436.819 406.874 441.602 403.841C446.386 400.808 451.314 399.765 456.385 400.712C461.457 401.659 465.457 404.442 468.385 409.06C471.349 413.734 472.194 418.594 470.923 423.64Z" fill="#2C2929"/>
<path d="M279.581 544.961C278.309 550.007 275.282 554.047 270.498 557.08C265.715 560.113 260.742 561.146 255.581 560.178C250.419 559.211 246.357 556.391 243.394 551.717C240.465 547.099 239.682 542.276 241.043 537.25C242.405 532.224 245.477 528.195 250.261 525.162C255.044 522.129 259.972 521.086 265.043 522.033C270.115 522.98 274.115 525.763 277.043 530.381C280.007 535.055 280.853 539.915 279.581 544.961ZM327.416 514.631C326.145 519.677 323.117 523.716 318.334 526.749C313.55 529.782 308.578 530.815 303.416 529.848C298.255 528.881 294.192 526.061 291.229 521.387C288.301 516.768 287.517 511.946 288.879 506.92C290.24 501.894 293.312 497.865 298.096 494.832C302.88 491.799 307.807 490.756 312.879 491.703C317.95 492.65 321.95 495.433 324.879 500.051C327.842 504.725 328.688 509.585 327.416 514.631ZM375.252 484.3C373.98 489.346 370.953 493.386 366.169 496.419C361.386 499.452 356.413 500.485 351.252 499.518C346.09 498.551 342.028 495.73 339.065 491.057C336.136 486.438 335.353 481.616 336.714 476.59C338.075 471.564 341.148 467.534 345.931 464.501C350.715 461.468 355.643 460.425 360.714 461.372C365.786 462.319 369.786 465.102 372.714 469.721C375.678 474.394 376.523 479.254 375.252 484.3ZM423.087 453.97C421.816 459.016 418.788 463.056 414.005 466.089C409.221 469.122 404.249 470.155 399.087 469.187C393.926 468.22 389.863 465.4 386.9 460.726C383.972 456.108 383.188 451.285 384.549 446.259C385.911 441.233 388.983 437.204 393.767 434.171C398.55 431.138 403.478 430.095 408.55 431.042C413.621 431.989 417.621 434.772 420.55 439.39C423.513 444.064 424.359 448.924 423.087 453.97Z" fill="#F2C40F"/>
</svg>
