<svg width="1920" height="1080" viewBox="0 0 1920 1080" fill="none" xmlns="http://www.w3.org/2000/svg">
<path d="M1484.25 1043.93C1405.06 1043.93 1338.69 1018.9 1285.12 968.826C1231.56 918.753 1204.77 854.707 1204.77 776.687C1204.77 699.832 1231.56 636.368 1285.12 586.295C1338.69 536.223 1405.06 511.187 1484.25 511.187C1561.1 511.187 1625.15 536.223 1676.39 586.295C1728.79 636.368 1754.99 699.832 1754.99 776.687C1754.99 854.707 1729.37 918.753 1678.13 968.826C1626.89 1018.9 1562.27 1043.93 1484.25 1043.93Z" fill="#F2310F"/>
<path d="M1206.87 417.756C1206.87 496.803 1181.88 563.062 1131.9 616.535C1081.91 670.008 1017.98 696.744 940.091 696.744C863.37 696.744 800.016 670.008 750.031 616.535C700.046 563.062 675.053 496.803 675.053 417.756C675.053 341.035 700.046 277.1 750.031 225.952C800.016 173.642 863.37 147.487 940.091 147.487C1017.98 147.487 1081.91 173.061 1131.9 224.208C1181.88 275.356 1206.87 339.872 1206.87 417.756Z" fill="#F2310F"/>
<path d="M476.734 1073.83C555.692 1073.83 621.877 1048.87 675.29 998.941C728.702 949.011 755.408 885.149 755.408 807.352C755.408 730.717 728.702 667.434 675.29 617.505C621.877 567.576 555.692 542.611 476.734 542.611C400.099 542.611 336.236 567.576 285.146 617.505C232.894 667.434 206.768 730.717 206.768 807.352C206.768 885.149 232.314 949.011 283.404 998.941C334.494 1048.87 398.938 1073.83 476.734 1073.83Z" fill="#F2310F"/>
</svg>
